SplineFontDB: 1.0
FontName: NimbusSanL-BoldCond
FullName: Nimbus Sans L Condensed Bold
FamilyName: Nimbus Sans L Condensed
Weight: Bold
Copyright: Copyright (URW)++,Copyright 1999 by (URW)++ Design & Development; Cyrillic glyphs added by Valek Filippov (C) 2001-2004
Version: 1.06
ItalicAngle: 0
UnderlinePosition: -100
UnderlineWidth: 50
Ascent: 800
Descent: 200
NeedsXUIDChange: 1
UniqueID: 4102715
FSType: 0
OS2WinAscent: 0
OS2WinAOffset: 1
OS2WinDescent: 0
OS2WinDOffset: 1
HheadAscent: 0
HheadAOffset: 1
HheadDescent: 0
HheadDOffset: 1
ScriptLang: 2
 1 latn 1 dflt 
 1 DFLT 1 dflt 
Encoding: adobestandard
UnicodeInterp: none
DisplaySize: -36
AntiAlias: 1
FitToEm: 1
WinInfo: 60 30 13
BeginPrivate: 7
BlueValues 31 [-20 0 532 552 718 738 691 711]
BlueScale 8 0.039625
StdHW 5 [119]
StdVW 5 [114]
StemSnapH 200 [116 119 123 128] 
systemdict /internaldict known
{1183615869 systemdict /internaldict get exec
/StemSnapLength 2 copy known { get 4 lt } { pop pop true } ifelse }
{ true } ifelse { pop [119 128] } if
StemSnapV 196 [114 119 124] 
systemdict /internaldict known
{1183615869 systemdict /internaldict get exec
/StemSnapLength 2 copy known { get 3 lt } { pop pop true } ifelse }
{ true } ifelse { pop [114 124] } if
ForceBold 5 false
EndPrivate
BeginChars: 739 632
StartChar: exclam
Encoding: 33 33 2
Width: 273
Flags: W
HStem: 0 21G<77 197> 698 20G<74 200>
VStem: 74 126<534 718>
Fore
197 142 m 1
 197 0 l 1
 77 0 l 1
 77 142 l 1
 197 142 l 1
200 535 m 1
 167 199 l 1
 107 199 l 1
 74 535 l 1
 74 718 l 1
 200 718 l 1
 200 535 l 1
EndSplineSet
EndChar
StartChar: quotedbl
Encoding: 34 34 3
Width: 389
Flags: W
HStem: 698 20G<80 160 228 308>
VStem: 80 80<447 718> 228 80<447 718>
Fore
228 447 m 1
 228 718 l 1
 308 718 l 1
 308 447 l 1
 228 447 l 1
80 447 m 1
 80 718 l 1
 160 718 l 1
 160 447 l 1
 80 447 l 1
EndSplineSet
EndChar
StartChar: numbersign
Encoding: 35 35 4
Width: 456
Flags: W
HStem: 0 21G<72 149 228 305> 199 90<24 94 181 251 338 407> 409 90<48 118 205 275 362 431> 678 20G<151 228 307 384>
DStem: 94 199 171 199 72 0 149 0 118 409 195 409 104 289 181 289 151 698 228 698 128 499 205 499 251 199 328 199 228 0 305 0 275 409 352 409 261 289 338 289 307 698 384 698 285 499 362 499
Fore
417 289 m 1
 407 199 l 1
 328 199 l 1
 305 0 l 1
 228 0 l 1
 251 199 l 1
 171 199 l 1
 149 0 l 1
 72 0 l 1
 94 199 l 1
 15 199 l 1
 25 289 l 1
 104 289 l 1
 118 409 l 1
 39 409 l 1
 49 499 l 1
 128 499 l 1
 151 698 l 1
 228 698 l 1
 205 499 l 1
 285 499 l 1
 307 698 l 1
 384 698 l 1
 362 499 l 1
 441 499 l 1
 431 409 l 1
 352 409 l 1
 338 289 l 1
 417 289 l 1
275 409 m 1
 195 409 l 1
 181 289 l 1
 261 289 l 1
 275 409 l 1
EndSplineSet
EndChar
StartChar: dollar
Encoding: 36 36 5
Width: 456
Flags: W
VStem: 37 103<503 526> 209 38<-115 -17 89 282 431 604 709 775> 319 110<182 201>
Fore
420 501 m 1
 314 501 l 1
 309 576 291 604 247 604 c 1
 247 417 l 1
 317 389 349 371 374 348 c 0
 410 315 429 263 429 201 c 0
 429 125 402 61 354 22 c 0
 325 -1 300 -11 247 -17 c 1
 247 -115 l 1
 209 -115 l 1
 209 -17 l 1
 77 -3 24 63 25 215 c 1
 132 215 l 1
 137 129 154 102 209 89 c 1
 209 299 l 1
 143 321 116 336 87 364 c 0
 54 397 37 444 37 503 c 0
 37 578 64 642 111 678 c 0
 139 699 161 706 209 710 c 1
 209 775 l 1
 247 775 l 1
 247 710 l 1
 358 697 411 633 420 501 c 1
209 431 m 1
 209 604 l 1
 165 599 140 570 140 522 c 0
 140 474 161 446 209 431 c 1
247 282 m 1
 247 89 l 1
 294 95 319 129 319 184 c 0
 319 233 298 262 247 282 c 1
EndSplineSet
EndChar
StartChar: percent
Encoding: 37 37 6
Width: 729
Flags: W
HStem: -12 70<569.246 584> 296 70<577 583> 332 70<139.246 154> 640 70<147 153>
VStem: 23 82<492 542> 194 82<521 542> 453 82<156 206> 624 82<156 206>
DStem: 495 710 556 710 169 -19 230 -19
Fore
151 710 m 0xbf
 235 710 276 647 276 521 c 0
 276 394 234 332 150 332 c 0
 65 332 23 394 23 520 c 0
 23 649 64 710 151 710 c 0xbf
150 640 m 0
 115 640 105 612 105 516 c 0
 105 431 116 402 149 402 c 0
 183 402 194 431 194 521 c 0
 194 610 183 640 150 640 c 0
556 710 m 1
 230 -19 l 1
 169 -19 l 1
 495 710 l 1
 556 710 l 1
581 366 m 0xdf
 665 366 706 303 706 177 c 0
 706 50 665 -12 580 -12 c 0
 495 -12 453 50 453 176 c 0
 453 305 494 366 581 366 c 0xdf
580 296 m 0
 545 296 535 268 535 173 c 0
 535 87 546 58 579 58 c 0
 613 58 624 87 624 178 c 0
 624 267 613 296 580 296 c 0
EndSplineSet
EndChar
StartChar: ampersand
Encoding: 38 38 7
Width: 592
Flags: W
HStem: -19 118<230 253> 611 107<269 271>
VStem: 44 115<188 206> 116 105<551 557> 317 100<540 558>
DStem: 229 314 320 381 337 149 403 255
Fore
468 157 m 1xd8
 575 0 l 1
 436 0 l 1
 396 61 l 1
 347 4 300 -19 232 -19 c 0
 121 -19 44 67 44 190 c 0xe8
 44 274 79 336 157 394 c 2
 170 403 l 1
 132 457 116 503 116 554 c 0
 116 648 181 718 269 718 c 0
 355 718 417 649 417 554 c 0
 417 483 387 431 320 381 c 1
 403 255 l 1
 421 290 430 322 434 373 c 1
 536 373 l 1
 528 279 512 227 468 157 c 1xd8
264 464 m 1
 303 497 317 519 317 553 c 0
 317 588 298 611 269 611 c 0
 241 611 221 588 221 555 c 0xd8
 221 530 232 507 264 464 c 1
337 149 m 1
 229 314 l 1
 171 262 159 243 159 199 c 0xe8
 159 142 195 99 243 99 c 0
 276 99 303 114 337 149 c 1
EndSplineSet
EndChar
StartChar: quoteright
Encoding: 39 8217 8
Width: 228
Flags: W
HStem: 698 20G<57 171>
VStem: 57 114<590 718>
Fore
57 591 m 1
 57 718 l 1
 171 718 l 1
 171 616 l 2
 171 555 156 510 124 479 c 0
 108 463 93 455 59 445 c 1
 59 496 l 1
 103 514 118 537 120 591 c 1
 57 591 l 1
EndSplineSet
KernsSLIF: 121 2 1 0 119 5 1 0 116 4 1 0 115 -16 1 0 114 -7 1 0 46 -31 1 0 111 -24 1 0 100 -18 1 0 44 -31 1 0 262 -55 1 0 256 -55 1 0 257 -55 1 0 225 -51 1 0 65 -55 1 0
EndChar
StartChar: parenleft
Encoding: 40 40 9
Width: 273
Flags: W
HStem: 714 20G<173 257>
Fore
257 -207 m 1
 173 -207 l 1
 70 -33 29 99 29 263 c 0
 29 335 39 408 59 479 c 0
 83 567 109 625 173 734 c 1
 257 734 l 1
 175 557 147 437 147 262 c 0
 147 90 175 -31 257 -207 c 1
EndSplineSet
EndChar
StartChar: parenright
Encoding: 41 41 10
Width: 273
Flags: W
HStem: 714 20G<16 100>
Fore
16 734 m 1
 100 734 l 1
 205 555 244 426 244 263 c 0
 244 191 234 119 214 47 c 0
 190 -42 164 -100 100 -207 c 1
 16 -207 l 1
 97 -34 126 89 126 264 c 0
 126 435 98 554 16 734 c 1
EndSplineSet
EndChar
StartChar: asterisk
Encoding: 42 42 11
Width: 319
Flags: W
HStem: 698 20G<125 194>
VStem: 125 69<599 718>
DStem: 107 528 160 478 52 431 103 387 160 478 211 528 216 387 267 431
Fore
277 633 m 1
 297 560 l 1
 211 528 l 1
 267 431 l 1
 216 387 l 1
 160 478 l 1
 103 387 l 1
 52 431 l 1
 107 528 l 1
 22 560 l 1
 41 633 l 1
 125 599 l 1
 125 718 l 1
 194 718 l 1
 194 599 l 1
 277 633 l 1
EndSplineSet
EndChar
StartChar: plus
Encoding: 43 43 12
Width: 479
Flags: W
HStem: 0 21G<194 286> 197 112<33 194 286 446>
VStem: 194 92<0 197 309 506>
Fore
194 309 m 1
 194 506 l 1
 286 506 l 1
 286 309 l 1
 446 309 l 1
 446 197 l 1
 286 197 l 1
 286 0 l 1
 194 0 l 1
 194 197 l 1
 33 197 l 1
 33 309 l 1
 194 309 l 1
EndSplineSet
EndChar
StartChar: comma
Encoding: 44 44 13
Width: 228
Flags: W
HStem: -20 20G<52 121>
VStem: 52 123<-1 147>
Fore
175 147 m 1
 175 20 l 2
 175 -85 133 -150 52 -168 c 1
 52 -115 l 1
 99 -96 116 -67 121 0 c 1
 52 0 l 1
 52 147 l 1
 175 147 l 1
EndSplineSet
KernsSLIF: 39 -20 1 0 186 -18 1 0 49 -59 1 0
EndChar
StartChar: hyphen
Encoding: 45 45 14
Width: 273
Flags: W
HStem: 215 130<22 251>
Fore
251 345 m 1
 251 215 l 1
 22 215 l 1
 22 345 l 1
 251 345 l 1
EndSplineSet
KernsSLIF: 89 -45 1 0 87 -3 1 0 86 -14 1 0 84 -39 1 0 262 7 1 0 256 7 1 0 257 7 1 0 225 12 1 0 65 7 1 0
EndChar
StartChar: period
Encoding: 46 46 15
Width: 228
Flags: W
HStem: 0 21G<52 175>
VStem: 52 123<0 147>
Fore
175 147 m 1
 175 0 l 1
 52 0 l 1
 52 147 l 1
 175 147 l 1
EndSplineSet
KernsSLIF: 39 -20 1 0 186 -18 1 0 49 -59 1 0
EndChar
StartChar: slash
Encoding: 47 47 16
Width: 228
Flags: W
HStem: -19 21G<-27 69> 717 20G<159 255>
DStem: 159 737 255 737 -27 -19 69 -19
Fore
255 737 m 1
 69 -19 l 1
 -27 -19 l 1
 159 737 l 1
 255 737 l 1
EndSplineSet
EndChar
StartChar: zero
Encoding: 48 48 17
Width: 456
Flags: W
HStem: -19 112<228 234> 598 112<217 235>
VStem: 26 118<300 382> 312 118<346 382>
Fore
231 710 m 0
 284 710 329 690 360 652 c 0
 379 627 393 601 401 574 c 0
 420 505 430 429 430 346 c 0
 430 243 413 134 388 84 c 0
 354 15 301 -19 228 -19 c 0
 92 -19 26 99 26 343 c 0
 26 461 46 571 76 623 c 0
 111 683 160 710 231 710 c 0
229 598 m 0
 164 598 144 538 144 336 c 0
 144 156 166 93 228 93 c 0
 291 93 312 156 312 346 c 0
 312 534 291 598 229 598 c 0
EndSplineSet
KernsSLIF: 55 -1 1 0 49 -10 1 0 52 11 1 0
EndChar
StartChar: one
Encoding: 49 49 18
Width: 456
Flags: W
HStem: 0 21G<196 310> 489 98<57 196> 690 20G<216 310>
VStem: 196 114<0 710>
Fore
57 489 m 1
 57 587 l 1
 73 587 l 2
 161 587 210 629 216 710 c 1
 310 710 l 1
 310 0 l 1
 196 0 l 1
 196 489 l 1
 57 489 l 1
EndSplineSet
KernsSLIF: 48 -28 1 0 50 -37 1 0 51 -36 1 0 54 -29 1 0 55 -47 1 0 46 -32 1 0 49 -65 1 0 57 -32 1 0 52 -46 1 0 53 -33 1 0 56 -32 1 0 44 -32 1 0
EndChar
StartChar: two
Encoding: 50 50 19
Width: 456
Flags: W
HStem: 0 123<166 419> 592 118<210 230>
VStem: 303 115<479 497>
Fore
139 459 m 1
 28 459 l 1
 30 541 39 581 64 624 c 0
 96 680 151 710 219 710 c 0
 337 710 418 619 418 487 c 0
 418 415 396 355 349 303 c 0
 335 287 335 287 255 218 c 0
 190 161 179 150 166 123 c 1
 419 123 l 1
 419 0 l 1
 21 0 l 1
 27 143 60 200 212 331 c 1
 279 392 303 433 303 488 c 0
 303 551 270 592 221 592 c 0
 164 592 141 554 139 459 c 1
EndSplineSet
KernsSLIF: 49 -11 1 0 52 -11 1 0
EndChar
StartChar: three
Encoding: 51 51 20
Width: 456
Flags: W
HStem: -19 112<213 231> 311 100<175 199> 598 112<213 225>
VStem: 290 115<492 518> 305 118<188 222>
Fore
175 311 m 1xe8
 175 411 l 1
 193 411 l 2
 259 411 290 441 290 504 c 0
 290 562 262 598 217 598 c 0
 165 598 140 560 139 482 c 1
 32 482 l 1
 35 551 43 586 65 625 c 0
 96 679 153 710 221 710 c 0
 332 710 405 633 405 516 c 0xf0
 405 450 383 407 334 376 c 1
 393 350 423 294 423 210 c 0
 423 74 341 -19 222 -19 c 0
 160 -19 106 4 72 45 c 0
 38 86 25 132 22 218 c 1
 135 218 l 1
 135 209 l 1
 136 135 166 93 218 93 c 0
 270 93 305 139 305 208 c 0
 305 282 270 310 175 311 c 1xe8
EndSplineSet
KernsSLIF: 55 -3 1 0 49 -18 1 0 52 8 1 0
EndChar
StartChar: four
Encoding: 52 52 21
Width: 456
Flags: W
HStem: 0 21G<252 366> 157 108<107 252 366 431> 690 20G<236 366>
VStem: 252 114<0 157 265 573.902>
DStem: 236 710 255 574 22 277 107 265
Fore
431 265 m 1
 431 157 l 1
 366 157 l 1
 366 0 l 1
 252 0 l 1
 252 157 l 1
 22 157 l 1
 22 277 l 1
 236 710 l 1
 366 710 l 1
 366 265 l 1
 431 265 l 1
107 265 m 1
 252 265 l 1
 253 447 253 483 255 574 c 1
 107 265 l 1
EndSplineSet
KernsSLIF: 55 -19 1 0 49 -37 1 0 52 12 1 0
EndChar
StartChar: five
Encoding: 53 53 22
Width: 456
Flags: W
HStem: -19 112<213 219> 353 112<217 244> 580 118<80 400>
VStem: 305 118<220 239>
DStem: 80 698 163 580 40 308 142 426
Fore
163 580 m 1
 142 426 l 1
 177 454 204 465 244 465 c 0
 349 465 423 371 423 237 c 0
 423 83 341 -19 216 -19 c 0
 143 -19 83 16 50 79 c 0
 32 112 26 137 22 190 c 1
 137 190 l 1
 144 124 170 93 217 93 c 0
 270 93 305 146 305 225 c 0
 305 304 271 353 217 353 c 0
 183 353 160 337 142 302 c 1
 40 308 l 1
 80 698 l 1
 400 698 l 1
 400 580 l 1
 163 580 l 1
EndSplineSet
KernsSLIF: 55 -2 1 0 49 -20 1 0 52 8 1 0
EndChar
StartChar: six
Encoding: 54 54 23
Width: 456
Flags: W
HStem: -19 112<225 237> 347 112<227 247> 598 112<225 247>
VStem: 311 115<220 238>
Fore
414 530 m 1
 300 530 l 1
 295 576 273 598 234 598 c 0
 173 598 146 542 137 397 c 1
 166 442 197 459 247 459 c 0
 354 459 426 368 426 234 c 0
 426 84 347 -19 231 -19 c 0
 93 -19 25 100 25 341 c 0
 25 465 42 554 77 614 c 0
 112 677 168 710 235 710 c 0
 297 710 346 687 376 645 c 0
 398 614 405 593 414 530 c 1
227 347 m 0
 174 347 140 300 140 225 c 0
 140 148 177 93 230 93 c 0
 280 93 311 144 311 226 c 0
 311 299 278 347 227 347 c 0
EndSplineSet
KernsSLIF: 55 1 1 0 49 -13 1 0 52 10 1 0
EndChar
StartChar: seven
Encoding: 55 55 24
Width: 456
Flags: W
HStem: 0 21G<102 220> 575 123<21 310>
Fore
433 698 m 1
 433 591 l 1
 302 414 234 225 220 0 c 1
 102 0 l 1
 114 206 186 404 310 575 c 1
 20 575 l 1
 22 698 l 1
 433 698 l 1
EndSplineSet
KernsSLIF: 50 1 1 0 51 1 1 0 54 -6 1 0 55 14 1 0 46 -71 1 0 49 -4 1 0 52 -53 1 0 53 -9 1 0 56 -2 1 0 44 -71 1 0 58 -40 1 0
EndChar
StartChar: eight
Encoding: 56 56 25
Width: 456
Flags: W
HStem: -19 112<217 234> 316 106<217 235> 598 112<217 235>
VStem: 26 118<188 222> 44 110<496.104 525> 300 110<508 525> 312 118<188 222>
Fore
343 382 m 1xec
 407 339 430 295 430 214 c 0
 430 75 348 -19 226 -19 c 0
 104 -19 26 67 26 203 c 0xf2
 26 287 52 337 115 377 c 1
 64 411 44 451 44 516 c 0
 44 632 118 710 227 710 c 0
 335 710 410 634 410 523 c 0
 410 458 390 415 343 382 c 1xec
231 598 m 0
 184 598 154 564 154 512 c 0
 154 460 186 422 229 422 c 0
 272 422 300 457 300 510 c 0xec
 300 562 272 598 231 598 c 0
228 316 m 0
 176 316 144 274 144 206 c 0
 144 137 177 93 228 93 c 0
 278 93 312 139 312 206 c 0xf2
 312 271 278 316 228 316 c 0
EndSplineSet
KernsSLIF: 49 -15 1 0 52 12 1 0
EndChar
StartChar: nine
Encoding: 57 57 26
Width: 456
Flags: W
HStem: -19 112<202 227> 233 112<202 223> 595 115<213 234>
VStem: 25 115<460 478> 310 118<354 468>
Fore
37 164 m 1
 150 164 l 1
 159 114 179 93 216 93 c 0
 247 93 271 111 288 147 c 0
 305 180 311 218 314 296 c 1
 287 251 254 233 202 233 c 0
 96 233 25 325 25 462 c 0
 25 614 101 710 223 710 c 0
 359 710 428 591 428 354 c 0
 428 213 403 111 352 47 c 0
 318 4 270 -19 215 -19 c 0
 151 -19 97 12 65 67 c 0
 49 96 42 118 37 164 c 1
225 595 m 0
 171 595 140 551 140 474 c 0
 140 390 169 345 223 345 c 0
 277 345 310 392 310 468 c 0
 310 546 277 595 225 595 c 0
EndSplineSet
KernsSLIF: 55 -4 1 0 49 -11 1 0 52 10 1 0
EndChar
StartChar: colon
Encoding: 58 58 27
Width: 273
Flags: W
HStem: 0 21G<75 198>
VStem: 75 123<0 147 365 512>
Fore
198 147 m 1
 198 0 l 1
 75 0 l 1
 75 147 l 1
 198 147 l 1
198 512 m 1
 198 365 l 1
 75 365 l 1
 75 512 l 1
 198 512 l 1
EndSplineSet
EndChar
StartChar: semicolon
Encoding: 59 59 28
Width: 273
Flags: W
HStem: -20 20G<75 144>
VStem: 75 123<-1 147 365 512>
Fore
198 147 m 1
 198 20 l 2
 198 -58 178 -109 134 -141 c 0
 110 -158 95 -165 75 -168 c 1
 75 -115 l 1
 122 -96 139 -67 144 0 c 1
 75 0 l 1
 75 147 l 1
 198 147 l 1
198 512 m 1
 198 365 l 1
 75 365 l 1
 75 512 l 1
 198 512 l 1
EndSplineSet
EndChar
StartChar: less
Encoding: 60 60 29
Width: 479
Flags: W
DStem: 31 201 164 253 448 -15 448 107 448 521 448 399 31 305 164 253
Fore
448 -15 m 1
 31 201 l 1
 31 305 l 1
 448 521 l 1
 448 399 l 1
 164 253 l 1
 448 107 l 1
 448 -15 l 1
EndSplineSet
EndChar
StartChar: equal
Encoding: 61 61 30
Width: 479
Flags: W
HStem: 87 112<33 446> 307 112<33 446>
Fore
446 419 m 1
 446 307 l 1
 33 307 l 1
 33 419 l 1
 446 419 l 1
446 199 m 1
 446 87 l 1
 33 87 l 1
 33 199 l 1
 446 199 l 1
EndSplineSet
EndChar
StartChar: greater
Encoding: 62 62 31
Width: 479
Flags: W
DStem: 31 399 31 521 315 253 448 305 315 253 448 201 31 107 31 -15
Fore
31 -15 m 1
 31 107 l 1
 315 253 l 1
 31 399 l 1
 31 521 l 1
 448 305 l 1
 448 201 l 1
 31 -15 l 1
EndSplineSet
EndChar
StartChar: question
Encoding: 63 63 32
Width: 501
Flags: W
HStem: 0 21G<195 315> 609 118<240 258>
VStem: 195 120<0 142> 198 108<208 233.994> 333 123<493 529>
Fore
306 208 m 1xd8
 198 208 l 1
 198 315 212 349 282 411 c 0
 320 445 333 471 333 512 c 0
 333 572 302 609 252 609 c 0
 222 609 197 595 183 570 c 0
 176 558 165 521 165 509 c 2
 165 493 l 1
 49 493 l 1
 51 561 59 596 83 636 c 0
 117 694 177 727 248 727 c 0
 373 727 456 644 456 519 c 0
 456 442 433 398 357 330 c 0
 316 294 307 274 306 208 c 1xd8
315 142 m 1xe8
 315 0 l 1
 195 0 l 1
 195 142 l 1
 315 142 l 1xe8
EndSplineSet
EndChar
StartChar: at
Encoding: 64 64 33
Width: 800
Flags: W
HStem: -19 80<400 434> 137 100<358 379> 461 97<400 418> 657 80<414 434>
VStem: 97 82<332 382> 227 88<314 334> 477 54<248 375> 635 67<404 430>
Fore
501 493 m 1
 512 546 l 1
 584 546 l 1
 536 291 l 1
 533 272 531 257 531 248 c 0
 531 236 536 229 544 229 c 0
 593 229 635 310 635 406 c 0
 635 556 546 657 414 657 c 0
 276 657 179 534 179 357 c 0
 179 183 279 61 423 61 c 0
 489 61 541 85 595 142 c 1
 668 142 l 1
 628 77 604 51 560 23 c 0
 516 -5 469 -19 418 -19 c 0
 237 -19 97 146 97 358 c 0
 97 569 237 737 414 737 c 0
 576 737 702 601 702 425 c 0
 702 346 678 273 635 220 c 0
 595 171 536 137 491 137 c 0
 465 137 449 157 446 193 c 1
 415 154 388 137 358 137 c 0
 286 137 227 218 227 316 c 0
 227 448 306 558 402 558 c 0
 447 558 475 539 501 493 c 1
412 461 m 0
 360 461 315 397 315 324 c 0
 315 272 341 237 379 237 c 0
 431 237 477 302 477 375 c 0
 477 425 449 461 412 461 c 0
EndSplineSet
EndChar
StartChar: A
Encoding: 65 65 34
Width: 592
Flags: W
HStem: 0 21G<16 146 442 576> 148 123<220 404> 698 20G<226 368>
DStem: 226 718 296 559 16 0 220 271 226 718 187 148 16 0 146 0
Fore
187 148 m 1
 146 0 l 1
 16 0 l 1
 226 718 l 1
 368 718 l 1
 576 0 l 1
 442 0 l 1
 404 148 l 1
 187 148 l 1
296 559 m 1
 220 271 l 1
 370 271 l 1
 296 559 l 1
EndSplineSet
KernsSLIF: 121 -27 0 0 119 -19 0 0 118 -29 0 0 117 -12 0 0 116 -12 0 0 39 -50 0 0 186 -47 0 0 113 -12 0 0 46 17 0 0 111 -14 0 0 45 7 0 0 172 -33 0 0 171 -35 0 0 103 -16 0 0 101 -7 0 0 100 -11 0 0 44 17 0 0 332 -11 0 0 99 -11 0 0 98 -1 0 0 97 -1 0 0 89 -69 0 0 87 -41 0 0 86 -50 0 0 300 -24 0 0 298 -24 0 0 301 -24 0 0 299 -24 0 0 85 -24 0 0 84 -62 0 0 81 -27 0 0 286 -27 0 0 79 -27 0 0 71 -27 0 0 264 -26 0 0 67 -26 0 0
EndChar
StartChar: B
Encoding: 66 66 35
Width: 592
Flags: W
HStem: 0 123<180 348> 315 122<180 339> 595 123<62 339>
VStem: 62 118<0 315 0 595> 412 118<511 533> 426 123<207 227>
Fore
62 0 m 1xf4
 62 718 l 1
 348 718 l 2
 461 718 530 647 530 531 c 0xf8
 530 460 509 418 458 387 c 1
 495 367 511 351 527 320 c 0
 541 292 549 255 549 216 c 0
 549 157 532 105 498 64 c 0
 457 15 413 0 311 0 c 2
 62 0 l 1xf4
180 315 m 1
 180 123 l 1
 331 123 l 2
 393 123 426 159 426 225 c 0xf4
 426 282 393 315 337 315 c 2
 180 315 l 1
180 595 m 1
 180 437 l 1
 324 437 l 2
 380 437 412 466 412 519 c 0xf8
 412 571 384 595 321 595 c 2
 180 595 l 1
EndSplineSet
KernsSLIF: 89 -29 0 0 87 -17 0 0 86 -22 0 0 233 -1 0 0 288 -4 0 0 286 -4 0 0 289 -4 0 0 287 -4 0 0 234 1 0 0 79 -4 0 0 261 -17 0 0 262 -17 0 0 256 -17 0 0 259 -17 0 0 257 -17 0 0 225 -11 0 0 65 -17 0 0
EndChar
StartChar: C
Encoding: 67 67 36
Width: 592
Flags: W
HStem: -19 130<291 325> 607 130<304 325>
VStem: 36 125<332 382>
Fore
561 483 m 1
 438 483 l 1
 429 522 422 538 409 559 c 1
 388 589 353 607 312 607 c 0
 217 607 161 514 161 356 c 0
 161 203 216 111 308 111 c 0
 351 111 386 130 410 167 c 0
 423 188 429 206 438 246 c 1
 561 246 l 1
 545 161 529 120 495 74 c 0
 450 13 384 -19 306 -19 c 0
 139 -19 36 124 36 357 c 0
 36 591 141 737 309 737 c 0
 402 737 479 691 524 610 c 0
 546 570 555 540 561 483 c 1
EndSplineSet
KernsSLIF: 286 -2 0 0 287 -2 0 0 79 -2 0 0 75 -5 0 0 72 1 0 0 262 -19 0 0 256 -19 0 0 257 -19 0 0 225 -14 0 0 65 -19 0 0
EndChar
StartChar: D
Encoding: 68 68 37
Width: 592
Flags: W
HStem: 0 123<182 317> 595 123<62 319>
VStem: 62 120<0 595> 437 125<335 401>
Fore
62 0 m 1
 62 718 l 1
 322 718 l 2
 474 718 562 592 562 374 c 0
 562 250 532 144 478 75 c 0
 439 27 382 0 317 0 c 2
 62 0 l 1
182 595 m 1
 182 123 l 1
 302 123 l 2
 387 123 437 214 437 370 c 0
 437 455 421 520 391 557 c 0
 370 582 340 595 300 595 c 2
 182 595 l 1
EndSplineSet
KernsSLIF: 89 -31 0 0 88 -22 0 0 87 -13 0 0 86 -20 0 0 84 -3 0 0 74 8 0 0 261 -24 0 0 262 -24 0 0 258 -24 0 0 256 -24 0 0 259 -24 0 0 257 -24 0 0 65 -24 0 0
EndChar
StartChar: E
Encoding: 69 69 38
Width: 547
Flags: W
HStem: 0 127<182 509> 313 127<182 470> 591 127<62 495>
VStem: 62 120<0 313 0 591>
Fore
495 718 m 1
 495 591 l 1
 182 591 l 1
 182 440 l 1
 470 440 l 1
 470 313 l 1
 182 313 l 1
 182 127 l 1
 509 127 l 1
 509 0 l 1
 62 0 l 1
 62 718 l 1
 495 718 l 1
EndSplineSet
EndChar
StartChar: F
Encoding: 70 70 39
Width: 501
Flags: W
HStem: 0 21G<62 185> 302 127<185 444> 591 127<62 481>
VStem: 62 123<0 302 0 591>
Fore
185 302 m 1
 185 0 l 1
 62 0 l 1
 62 718 l 1
 481 718 l 1
 481 591 l 1
 185 591 l 1
 185 429 l 1
 444 429 l 1
 444 302 l 1
 185 302 l 1
EndSplineSet
KernsSLIF: 117 -23 0 0 114 -22 0 0 46 -71 0 0 249 -11 0 0 250 -11 0 0 351 -11 0 0 352 -11 0 0 111 -11 0 0 106 -6 0 0 105 -6 0 0 45 8 0 0 335 -6 0 0 101 -6 0 0 44 -71 0 0 328 -15 0 0 241 -16 0 0 322 -15 0 0 323 -15 0 0 97 -15 0 0 286 -10 0 0 79 -10 0 0 74 -14 0 0 261 -43 0 0 262 -43 0 0 258 -43 0 0 256 -43 0 0 259 -43 0 0 257 -43 0 0 65 -43 0 0
EndChar
StartChar: G
Encoding: 71 71 40
Width: 638
Flags: W
HStem: -19 127<306 329> 265 122<338 476> 614 123<322 340>
VStem: 36 125<354 387>
Fore
338 265 m 1
 338 387 l 1
 585 387 l 1
 585 0 l 1
 503 0 l 1
 490 90 l 1
 466 56 454 42 436 27 c 0
 401 -4 357 -19 306 -19 c 0
 145 -19 36 131 36 354 c 0
 36 588 148 737 324 737 c 0
 422 737 501 693 547 612 c 0
 568 575 576 547 583 495 c 1
 459 495 l 1
 447 565 392 614 327 614 c 0
 225 614 161 514 161 354 c 0
 161 198 222 108 327 108 c 0
 365 108 398 122 425 151 c 0
 450 178 462 205 476 265 c 1
 338 265 l 1
EndSplineSet
KernsSLIF: 89 -35 0 0 87 -15 0 0 86 -24 0 0 84 -6 0 0 261 1 0 0 262 1 0 0 258 1 0 0 256 1 0 0 259 1 0 0 257 1 0 0 225 7 0 0 65 1 0 0
EndChar
StartChar: H
Encoding: 72 72 41
Width: 592
Flags: W
HStem: 0 21G<58 181 411 534> 323 123<181 411> 698 20G<58 181 411 534>
VStem: 58 123<0 323 0 718> 411 123<0 718>
Fore
411 323 m 1
 181 323 l 1
 181 0 l 1
 58 0 l 1
 58 718 l 1
 181 718 l 1
 181 446 l 1
 411 446 l 1
 411 718 l 1
 534 718 l 1
 534 0 l 1
 411 0 l 1
 411 323 l 1
EndSplineSet
EndChar
StartChar: I
Encoding: 73 73 42
Width: 228
Flags: W
HStem: 0 21G<52 175> 698 20G<52 175>
VStem: 52 123<0 718>
Fore
175 718 m 1
 175 0 l 1
 52 0 l 1
 52 718 l 1
 175 718 l 1
EndSplineSet
EndChar
StartChar: J
Encoding: 74 74 43
Width: 456
Flags: W
HStem: -18 122<193 211> 698 20G<274 397>
VStem: 274 123<208 718>
Fore
397 718 m 1
 397 208 l 2
 397 56 335 -18 207 -18 c 0
 129 -18 73 12 45 70 c 0
 24 111 18 160 18 271 c 1
 133 271 l 1
 134 135 147 104 205 104 c 0
 256 104 274 131 274 208 c 2
 274 718 l 1
 397 718 l 1
EndSplineSet
KernsSLIF: 262 -21 0 0 256 -21 0 0 225 -15 0 0 65 -21 0 0
EndChar
StartChar: K
Encoding: 75 75 44
Width: 592
Flags: W
HStem: 0 21G<71 194 434 592> 698 20G<71 194 419 578>
VStem: 71 123<0 243 0 718>
DStem: 251 315 338 424 434 0 592 0
Fore
194 243 m 1
 194 0 l 1
 71 0 l 1
 71 718 l 1
 194 718 l 1
 194 426 l 1
 419 718 l 1
 578 718 l 1
 338 424 l 1
 592 0 l 1
 434 0 l 1
 251 315 l 1
 194 243 l 1
EndSplineSet
KernsSLIF: 121 -48 0 0 362 -19 0 0 117 -19 0 0 351 -25 0 0 352 -25 0 0 111 -25 0 0 45 -26 0 0 101 -17 0 0 241 -1 0 0 84 23 0 0 83 -18 0 0 286 -36 0 0 287 -36 0 0 234 -30 0 0 79 -36 0 0 71 -36 0 0 67 -35 0 0
EndChar
StartChar: L
Encoding: 76 76 45
Width: 501
Flags: W
HStem: 0 130<184 478> 698 20G<62 185>
VStem: 62 123<0 718>
Fore
185 718 m 1
 185 130 l 1
 478 130 l 1
 478 0 l 1
 62 0 l 1
 62 718 l 1
 185 718 l 1
EndSplineSet
KernsSLIF: 121 -41 0 0 362 -7 0 0 117 -7 0 0 39 -118 0 0 186 -115 0 0 45 -8 0 0 89 -83 0 0 87 -50 0 0 86 -64 0 0 298 -12 0 0 85 -12 0 0 84 -70 0 0 83 3 0 0 290 -15 0 0 288 -15 0 0 286 -15 0 0 289 -15 0 0 287 -15 0 0 79 -15 0 0 71 -15 0 0 264 -16 0 0 67 -13 0 0 262 16 0 0 256 16 0 0 257 16 0 0 225 22 0 0 65 16 0 0
EndChar
StartChar: M
Encoding: 77 77 46
Width: 683
Flags: W
HStem: 0 21G<57 171 280 401 513 627> 698 20G<57 236 450 627>
VStem: 57 114<0 609> 513 114<0 718>
DStem: 171 609 236 718 280 0 344 148 450 718 513 609 344 148 401 0
Fore
627 718 m 1
 627 0 l 1
 513 0 l 1
 513 609 l 1
 401 0 l 1
 280 0 l 1
 171 609 l 1
 171 0 l 1
 57 0 l 1
 57 718 l 1
 236 718 l 1
 344 148 l 1
 450 718 l 1
 627 718 l 1
EndSplineSet
EndChar
StartChar: N
Encoding: 78 78 47
Width: 592
Flags: W
HStem: 0 21G<57 171 414 536> 698 20G<57 186 422 536>
VStem: 57 114<0 515> 422 114<214 718>
DStem: 171 515 186 718 414 0 422 214
Fore
422 214 m 1
 422 718 l 1
 536 718 l 1
 536 0 l 1
 414 0 l 1
 171 515 l 1
 171 0 l 1
 57 0 l 1
 57 718 l 1
 186 718 l 1
 422 214 l 1
EndSplineSet
KernsSLIF: 362 5 0 0 117 5 0 0 46 12 0 0 249 7 0 0 351 6 0 0 352 6 0 0 111 6 0 0 335 12 0 0 101 12 0 0 44 12 0 0 328 7 0 0 241 6 0 0 322 7 0 0 323 7 0 0 97 7 0 0 286 6 0 0 287 6 0 0 79 6 0 0 71 6 0 0 264 7 0 0 67 7 0 0 225 6 0 0
EndChar
StartChar: O
Encoding: 79 79 48
Width: 638
Flags: W
HStem: -19 127<319 325> 610 127<307 325>
VStem: 36 123<332 382> 479 123<332 382>
Fore
323 737 m 0
 398 737 472 701 521 642 c 0
 574 578 602 480 602 359 c 0
 602 238 574 140 521 76 c 0
 472 16 398 -19 319 -19 c 0
 216 -19 126 39 79 135 c 0
 51 194 36 270 36 358 c 0
 36 480 64 578 117 642 c 0
 167 703 241 737 323 737 c 0
321 610 m 0
 220 610 159 516 159 361 c 0
 159 203 219 108 319 108 c 0
 419 108 479 203 479 362 c 0
 479 446 460 516 425 558 c 0
 399 591 360 610 321 610 c 0
EndSplineSet
KernsSLIF: 89 -38 0 0 88 -26 0 0 87 -17 0 0 86 -26 0 0 84 -9 0 0 262 -28 0 0 256 -28 0 0 257 -28 0 0 225 -22 0 0 65 -28 0 0
EndChar
StartChar: P
Encoding: 80 80 49
Width: 547
Flags: W
HStem: 0 21G<62 185> 260 123<185 326> 595 123<62 303>
VStem: 62 123<0 260 0 595> 391 123<479 513>
Fore
185 260 m 1
 185 0 l 1
 62 0 l 1
 62 718 l 1
 331 718 l 2
 442 718 514 630 514 495 c 0
 514 353 440 260 326 260 c 2
 185 260 l 1
185 383 m 1
 299 383 l 2
 361 383 391 418 391 492 c 0
 391 566 360 595 283 595 c 2
 185 595 l 1
 185 383 l 1
EndSplineSet
KernsSLIF: 46 -92 0 0 249 -16 0 0 250 -16 0 0 351 -16 0 0 352 -16 0 0 111 -16 0 0 45 -3 0 0 335 -10 0 0 101 -10 0 0 44 -92 0 0 328 -12 0 0 241 -13 0 0 322 -12 0 0 323 -12 0 0 97 -12 0 0 74 -36 0 0 262 -51 0 0 256 -51 0 0 257 -51 0 0 225 -47 0 0 65 -51 0 0
EndChar
StartChar: Q
Encoding: 81 81 50
Width: 638
Flags: W
HStem: -19 127<318 327> 610 127<319 327>
VStem: 36 123<331 381> 479 123<331 381>
Fore
604 29 m 1
 539 -52 l 1
 470 29 l 1
 418 -5 373 -19 318 -19 c 0
 240 -19 166 16 117 76 c 0
 64 140 36 238 36 359 c 0
 36 481 64 577 117 642 c 0
 166 702 240 737 319 737 c 0
 398 737 472 702 521 642 c 0
 574 577 602 481 602 358 c 0
 602 251 584 179 540 103 c 1
 604 29 l 1
326 195 m 1
 389 276 l 1
 452 205 l 1
 471 253 479 297 479 359 c 0
 479 514 418 610 319 610 c 0
 221 610 159 514 159 363 c 0
 159 204 219 108 318 108 c 0
 343 108 362 114 385 127 c 1
 326 195 l 1
EndSplineSet
EndChar
StartChar: R
Encoding: 82 82 51
Width: 592
Flags: W
HStem: 0 21G<62 182 419 555> 280 122<182 329> 595 123<62 351>
VStem: 62 120<0 280 0 595> 405 124<106 177> 422 123<495 516>
Fore
62 0 m 1xf8
 62 718 l 1
 359 718 l 2
 472 718 545 638 545 514 c 0xf4
 545 459 529 411 499 376 c 0
 487 362 477 355 454 344 c 1
 520 309 530 276 529 108 c 1
 530 45 534 29 555 19 c 1
 555 0 l 1
 419 0 l 1
 409 41 406 76 405 144 c 0
 405 208 402 231 392 248 c 0
 379 271 354 280 309 280 c 2
 182 280 l 1
 182 0 l 1
 62 0 l 1xf8
182 402 m 1
 327 402 l 2
 392 402 422 432 422 498 c 0
 422 560 391 595 336 595 c 2
 182 595 l 1
 182 402 l 1
EndSplineSet
KernsSLIF: 121 3 0 0 362 -2 0 0 363 -2 0 0 117 -1 0 0 250 -4 0 0 351 -4 0 0 352 -4 0 0 111 -4 0 0 45 14 0 0 335 2 0 0 101 2 0 0 241 -1 0 0 89 -24 0 0 87 -12 0 0 86 -16 0 0 298 -1 0 0 85 -1 0 0 84 3 0 0 286 -3 0 0 287 -3 0 0 234 1 0 0 79 -3 0 0 71 -3 0 0 264 -2 0 0 67 -2 0 0
EndChar
StartChar: S
Encoding: 83 83 52
Width: 547
Flags: W
HStem: -19 123<259 293> 614 123<255 281>
VStem: 41 115<511 529> 398 118<188 214>
Fore
32 221 m 1
 150 221 l 1
 155 142 196 104 278 104 c 0
 354 104 398 138 398 196 c 0
 398 243 374 263 291 287 c 2
 228 305 l 2
 153 326 116 343 91 369 c 1
 58 401 41 450 41 512 c 0
 41 652 125 737 265 737 c 0
 406 737 488 655 497 505 c 1
 379 505 l 1
 370 581 334 614 261 614 c 0
 196 614 156 581 156 527 c 0
 156 486 173 466 218 452 c 2
 362 409 l 2
 472 376 516 320 516 214 c 0
 516 70 425 -19 277 -19 c 0
 174 -19 97 22 59 98 c 0
 41 134 34 163 32 221 c 1
EndSplineSet
KernsSLIF: 116 2 0 0 89 -27 0 0 87 -15 0 0 86 -20 0 0 262 -10 0 0 256 -10 0 0 257 -10 0 0 225 -5 0 0 65 -10 0 0
EndChar
StartChar: T
Encoding: 84 84 53
Width: 501
Flags: W
HStem: 0 21G<189 312> 591 127<11 189 11 490>
VStem: 189 123<0 591>
Fore
312 591 m 1
 312 0 l 1
 189 0 l 1
 189 591 l 1
 11 591 l 1
 11 718 l 1
 490 718 l 1
 490 591 l 1
 312 591 l 1
EndSplineSet
KernsSLIF: 121 -67 0 0 119 -67 0 0 118 -68 0 0 117 -63 0 0 59 -73 0 0 115 -63 0 0 114 -59 0 0 46 -55 0 0 249 -61 0 0 111 -65 0 0 106 -2 0 0 105 -2 0 0 45 -39 0 0 172 -82 0 0 171 -84 0 0 103 -65 0 0 101 -58 0 0 44 -55 0 0 58 -73 0 0 99 -62 0 0 241 -63 0 0 97 -62 0 0 89 23 0 0 87 23 0 0 86 22 0 0 83 6 0 0 290 -9 0 0 233 -9 0 0 288 -9 0 0 286 -9 0 0 289 -9 0 0 287 -9 0 0 234 -3 0 0 79 -9 0 0 74 -67 0 0 71 -10 0 0 67 -8 0 0 261 -63 0 0 262 -63 0 0 258 -63 0 0 256 -63 0 0 259 -63 0 0 257 -63 0 0 225 -59 0 0 65 -63 0 0
EndChar
StartChar: U
Encoding: 85 85 54
Width: 592
Flags: W
HStem: -19 127<295 300> 698 20G<59 184 409 534>
VStem: 59 125<236 718> 409 125<236 718>
Fore
534 718 m 1
 534 251 l 2
 534 75 451 -19 295 -19 c 0
 145 -19 59 76 59 242 c 2
 59 718 l 1
 184 718 l 1
 184 252 l 2
 184 160 224 108 295 108 c 0
 369 108 409 156 409 245 c 2
 409 718 l 1
 534 718 l 1
EndSplineSet
KernsSLIF: 114 4 0 0 46 -3 0 0 112 4 0 0 110 3 0 0 109 4 0 0 44 -6 0 0 261 -24 0 0 262 -24 0 0 256 -24 0 0 259 -24 0 0 257 -24 0 0 225 -20 0 0 65 -24 0 0
EndChar
StartChar: V
Encoding: 86 86 55
Width: 547
Flags: W
HStem: 0 21G<214 331> 698 20G<16 148 403 531>
Fore
275 170 m 1
 403 718 l 1
 531 718 l 1
 331 0 l 1
 214 0 l 1
 16 718 l 1
 148 718 l 1
 275 170 l 1
EndSplineSet
KernsSLIF: 121 -7 0 0 117 -31 0 0 59 -38 0 0 114 -27 0 0 46 -52 0 0 249 -37 0 0 111 -40 0 0 105 -4 0 0 45 -14 0 0 172 -57 0 0 171 -59 0 0 103 -40 0 0 101 -34 0 0 44 -52 0 0 58 -38 0 0 241 -39 0 0 97 -38 0 0 84 22 0 0 83 -13 0 0 290 -26 0 0 233 -22 0 0 288 -26 0 0 286 -26 0 0 289 -26 0 0 287 -26 0 0 79 -26 0 0 71 -26 0 0 67 -25 0 0 261 -51 0 0 262 -51 0 0 258 -51 0 0 256 -51 0 0 259 -51 0 0 257 -51 0 0 225 -46 0 0 65 -51 0 0
EndChar
StartChar: W
Encoding: 87 87 56
Width: 774
Flags: W
HStem: 0 21G<180 294 478 596> 698 20G<13 144 321 452 637 762>
Fore
180 0 m 1
 13 718 l 1
 144 718 l 1
 214 353 226 286 239 187 c 1
 256 313 276 439 321 718 c 1
 452 718 l 1
 517 343 525 294 540 187 c 1
 554 279 570 367 637 718 c 1
 762 718 l 1
 596 0 l 1
 478 0 l 1
 418 349 409 403 386 565 c 1
 355 364 332 217 319 142 c 2
 294 0 l 1
 180 0 l 1
EndSplineSet
KernsSLIF: 121 -1 0 0 117 -24 0 0 59 -31 0 0 114 -21 0 0 46 -36 0 0 249 -25 0 0 111 -28 0 0 105 -2 0 0 45 -2 0 0 172 -45 0 0 171 -47 0 0 103 -27 0 0 101 -21 0 0 44 -36 0 0 58 -31 0 0 241 -27 0 0 97 -26 0 0 84 24 0 0 83 -8 0 0 290 -16 0 0 233 -12 0 0 288 -16 0 0 286 -16 0 0 289 -16 0 0 287 -16 0 0 79 -16 0 0 71 -16 0 0 67 -15 0 0 261 -40 0 0 262 -40 0 0 258 -40 0 0 256 -40 0 0 259 -40 0 0 257 -40 0 0 225 -36 0 0 65 -40 0 0
EndChar
StartChar: X
Encoding: 88 88 57
Width: 547
Flags: W
HStem: 0 21G<11 155 385 535> 698 20G<22 168 381 523>
DStem: 201 367 273 245 11 0 155 0
Fore
343 373 m 1
 535 0 l 1
 385 0 l 1
 273 245 l 1
 155 0 l 1
 11 0 l 1
 201 367 l 1
 22 718 l 1
 168 718 l 1
 273 486 l 1
 381 718 l 1
 523 718 l 1
 343 373 l 1
EndSplineSet
KernsSLIF: 121 -35 0 0 117 -24 0 0 111 -27 0 0 45 -21 0 0 101 -20 0 0 97 -5 0 0 81 -27 0 0 286 -27 0 0 79 -27 0 0 67 -26 0 0
EndChar
StartChar: Y
Encoding: 89 89 58
Width: 547
Flags: W
HStem: 0 21G<215 338> 698 20G<12 157 396 535>
VStem: 215 123<0 269>
Fore
338 269 m 1
 338 0 l 1
 215 0 l 1
 215 271 l 1
 12 718 l 1
 157 718 l 1
 279 406 l 1
 396 718 l 1
 535 718 l 1
 338 269 l 1
EndSplineSet
KernsSLIF: 118 -22 0 0 117 -45 0 0 59 -52 0 0 46 -65 0 0 112 -39 0 0 249 -57 0 0 111 -61 0 0 105 -2 0 0 45 -42 0 0 172 -81 0 0 171 -83 0 0 103 -61 0 0 101 -54 0 0 44 -65 0 0 58 -52 0 0 241 -59 0 0 97 -58 0 0 84 24 0 0 83 -19 0 0 290 -37 0 0 233 -37 0 0 288 -37 0 0 286 -37 0 0 289 -37 0 0 287 -37 0 0 79 -37 0 0 71 -38 0 0 67 -36 0 0 261 -67 0 0 262 -67 0 0 258 -67 0 0 256 -67 0 0 259 -67 0 0 257 -67 0 0 225 -62 0 0 65 -67 0 0
EndChar
StartChar: Z
Encoding: 90 90 59
Width: 501
Flags: W
HStem: 0 127<170 481> 591 127<28 325>
DStem: 325 591 479 600 20 127 170 127
Fore
481 127 m 1
 481 0 l 1
 20 0 l 1
 20 127 l 1
 325 591 l 1
 28 591 l 1
 28 718 l 1
 479 718 l 1
 479 600 l 1
 170 127 l 1
 481 127 l 1
EndSplineSet
KernsSLIF: 121 -8 0 0 118 -9 0 0
EndChar
StartChar: bracketleft
Encoding: 91 91 60
Width: 273
Flags: W
HStem: -196 97<152 253> 625 97<52 253>
VStem: 52 100<-196 625>
Fore
152 625 m 1
 152 -99 l 1
 253 -99 l 1
 253 -196 l 1
 52 -196 l 1
 52 722 l 1
 253 722 l 1
 253 625 l 1
 152 625 l 1
EndSplineSet
EndChar
StartChar: backslash
Encoding: 92 92 61
Width: 228
Flags: W
HStem: -19 21G<159 255> 717 20G<-27 69>
DStem: -27 737 69 737 159 -19 255 -19
Fore
159 -19 m 1
 -27 737 l 1
 69 737 l 1
 255 -19 l 1
 159 -19 l 1
EndSplineSet
EndChar
StartChar: bracketright
Encoding: 93 93 62
Width: 273
Flags: W
HStem: -196 97<20 221> 625 97<20 121>
VStem: 121 100<-99 722>
Fore
121 -99 m 1
 121 625 l 1
 20 625 l 1
 20 722 l 1
 221 722 l 1
 221 -196 l 1
 20 -196 l 1
 20 -99 l 1
 121 -99 l 1
EndSplineSet
EndChar
StartChar: asciicircum
Encoding: 94 94 63
Width: 479
Flags: W
HStem: 678 20G<199 280>
DStem: 199 698 239 586 51 323 140 323 239 586 280 698 338 323 428 323
Fore
140 323 m 1
 51 323 l 1
 199 698 l 1
 280 698 l 1
 428 323 l 1
 338 323 l 1
 239 586 l 1
 140 323 l 1
EndSplineSet
EndChar
StartChar: underscore
Encoding: 95 95 64
Width: 456
Flags: W
HStem: -125 50<0 456>
Fore
456 -125 m 1
 0 -125 l 1
 0 -75 l 1
 456 -75 l 1
 456 -125 l 1
EndSplineSet
EndChar
StartChar: quoteleft
Encoding: 96 8216 65
Width: 228
Flags: W
VStem: 57 114<454 581>
Fore
171 581 m 1
 171 454 l 1
 57 454 l 1
 57 556 l 2
 57 617 72 662 104 693 c 0
 120 709 135 717 169 727 c 1
 169 676 l 1
 125 658 110 634 109 581 c 1
 171 581 l 1
EndSplineSet
KernsSLIF: 87 12 1 0 86 7 1 0 84 1 1 0 262 -51 1 0 256 -51 1 0 257 -51 1 0 225 -47 1 0 65 -51 1 0
EndChar
StartChar: a
Encoding: 97 97 66
Width: 456
Flags: W
HStem: -14 100<160 194> 434 112<215 233>
VStem: 24 115<140 163> 295 112<177 392>
Fore
148 360 m 1
 38 360 l 1
 44 419 53 447 72 478 c 1
 103 524 154 546 229 546 c 0
 342 546 407 489 407 392 c 2
 407 104 l 2
 407 52 413 31 432 21 c 1
 432 0 l 1
 309 0 l 1
 302 26 301 34 298 63 c 1
 253 6 216 -14 160 -14 c 0
 76 -14 24 46 24 142 c 0
 24 235 70 296 152 311 c 2
 255 330 l 2
 283 335 295 349 295 374 c 0
 295 414 271 434 224 434 c 0
 175 434 155 414 148 360 c 1
295 191 m 2
 295 259 l 1
 280 245 263 239 217 230 c 0
 160 218 139 197 139 151 c 0
 139 111 160 86 194 86 c 0
 250 86 295 133 295 191 c 2
EndSplineSet
KernsSLIF: 121 -13 0 0 119 -6 0 0 118 -15 0 0 39 -7 0 0
EndChar
StartChar: b
Encoding: 98 98 67
Width: 501
Flags: W
HStem: -14 115<260 290> 424 122<259 291> 698 20G<50 164>
VStem: 50 112<0 70 0 291 0 718> 356 118<241 291>
Fore
164 718 m 1
 164 460 l 1
 198 521 235 546 291 546 c 0
 401 546 474 437 474 272 c 0
 474 98 402 -14 290 -14 c 0
 231 -14 190 13 162 70 c 1
 162 0 l 1
 50 0 l 1
 50 718 l 1
 164 718 l 1
259 424 m 0
 195 424 160 367 160 261 c 0
 160 159 196 101 260 101 c 0
 318 101 356 165 356 264 c 0
 356 364 319 424 259 424 c 0
EndSplineSet
KernsSLIF: 121 -14 0 0 119 -5 0 0 118 -15 0 0
EndChar
StartChar: c
Encoding: 99 99 68
Width: 456
Flags: W
HStem: -14 115<219 242> 428 118<227 253>
VStem: 28 118<241 291>
Fore
313 194 m 1
 429 194 l 1
 412 59 342 -14 229 -14 c 0
 100 -14 28 84 28 259 c 0
 28 439 105 546 235 546 c 0
 307 546 368 512 401 452 c 0
 418 421 425 395 430 342 c 1
 314 342 l 1
 303 402 281 428 240 428 c 0
 178 428 146 372 146 265 c 0
 146 156 175 101 233 101 c 0
 277 101 308 138 313 194 c 1
EndSplineSet
KernsSLIF: 107 -2 0 0
EndChar
StartChar: d
Encoding: 100 100 69
Width: 501
Flags: W
HStem: -14 115<212 242> 424 122<211 246> 698 20G<338 452>
VStem: 28 118<241 291> 340 112<0 718>
Fore
452 718 m 1
 452 0 l 1
 340 0 l 1
 340 70 l 1
 312 13 271 -14 212 -14 c 0
 100 -14 28 98 28 272 c 0
 28 437 101 546 211 546 c 0
 267 546 303 522 338 460 c 1
 338 718 l 1
 452 718 l 1
246 424 m 0
 183 424 146 365 146 264 c 0
 146 164 183 101 242 101 c 0
 306 101 342 159 342 260 c 0
 342 364 307 424 246 424 c 0
EndSplineSet
EndChar
StartChar: e
Encoding: 101 101 70
Width: 456
Flags: W
HStem: -14 113<223 244> 227 92<137 433> 431 115<210 236>
Fore
310 157 m 1
 428 157 l 1
 409 91 392 60 355 29 c 0
 322 0 281 -14 232 -14 c 0
 96 -14 19 88 19 268 c 0
 19 442 97 546 226 546 c 0
 359 546 433 441 433 252 c 2
 433 227 l 1
 134 227 l 1
 141 138 172 99 234 99 c 0
 273 99 299 119 310 157 c 1
137 319 m 1
 315 319 l 1
 307 394 277 431 225 431 c 0
 174 431 147 396 137 319 c 1
EndSplineSet
KernsSLIF: 121 -14 0 0 120 -16 0 0 119 -6 0 0 118 -15 0 0 116 -2 0 0 39 -8 0 0
EndChar
StartChar: f
Encoding: 102 102 71
Width: 273
Flags: W
HStem: 0 21G<71 185> 432 100<8 71 185 261> 612 115<205 233>
VStem: 71 114<0 432 532 577>
Fore
185 432 m 1
 185 0 l 1
 71 0 l 1
 71 432 l 1
 8 432 l 1
 8 532 l 1
 71 532 l 1
 71 575 l 2
 71 680 113 727 205 727 c 0
 224 727 246 726 259 725 c 1
 259 612 l 1
 226 612 l 2
 190 612 185 604 185 553 c 2
 185 532 l 1
 261 532 l 1
 261 432 l 1
 185 432 l 1
EndSplineSet
KernsSLIF: 116 17 0 0 115 -5 0 0 39 11 0 0 249 -9 0 0 250 -12 0 0 351 -12 0 0 352 -12 0 0 111 -12 0 0 108 -3 0 0 106 -7 0 0 105 -3 0 0 102 17 0 0 335 -5 0 0 101 -5 0 0 328 -5 0 0 241 -6 0 0 322 -5 0 0 323 -5 0 0 97 -5 0 0
EndChar
StartChar: g
Encoding: 103 103 72
Width: 501
Flags: W
HStem: -217 107<224.951 258> -3 118<220 243> 424 122<215 243>
VStem: 33 118<246 280> 338 115<-10 80 246 532>
Fore
343 532 m 1
 453 532 l 1
 453 28 l 2
 453 -59 439 -113 408 -151 c 0
 373 -194 313 -217 240 -217 c 0
 170 -217 115 -196 80 -156 c 0
 57 -130 49 -108 42 -57 c 1
 167 -57 l 1
 170 -72 172 -78 177 -85 c 0
 187 -101 211 -110 243 -110 c 0
 310 -110 338 -74 338 11 c 2
 338 80 l 1
 308 18 278 -3 220 -3 c 0
 105 -3 33 102 33 271 c 0
 33 437 105 546 215 546 c 0
 275 546 313 518 343 450 c 1
 343 532 l 1
243 424 m 0
 186 424 151 364 151 267 c 0
 151 172 185 115 243 115 c 0
 304 115 339 171 339 267 c 0
 339 360 300 424 243 424 c 0
EndSplineSet
KernsSLIF: 114 6 0 0 351 4 0 0 352 4 0 0 108 3 0 0 335 10 0 0 101 10 0 0 328 5 0 0 241 5 0 0 322 5 0 0 97 5 0 0
EndChar
StartChar: h
Encoding: 104 104 73
Width: 501
Flags: W
HStem: 0 21G<53 167 334 448> 428 118<260 298> 698 20G<53 167>
VStem: 53 114<0 325 0 718> 334 114<0 368>
Fore
167 718 m 1
 167 459 l 1
 190 516 236 546 298 546 c 0
 389 546 448 476 448 368 c 2
 448 0 l 1
 334 0 l 1
 334 323 l 2
 334 397 312 428 260 428 c 0
 203 428 167 381 167 305 c 2
 167 0 l 1
 53 0 l 1
 53 718 l 1
 167 718 l 1
EndSplineSet
KernsSLIF: 121 -14 0 0 39 -7 0 0
EndChar
StartChar: i
Encoding: 105 105 74
Width: 228
Flags: W
HStem: 0 21G<57 171> 512 20G<57 171> 705 20G<57 171>
VStem: 57 114<0 532 595 725>
Fore
57 532 m 1
 171 532 l 1
 171 0 l 1
 57 0 l 1
 57 532 l 1
171 725 m 1
 171 595 l 1
 57 595 l 1
 57 725 l 1
 171 725 l 1
EndSplineSet
KernsSLIF: 106 -1 0 0 84 -2 0 0
EndChar
StartChar: j
Encoding: 106 106 75
Width: 228
Flags: W
HStem: 512 20G<57 171> 705 20G<57 171>
VStem: 57 114<-70.2303 532 595 725>
Fore
171 532 m 1
 171 -56 l 2
 171 -175 137 -214 32 -214 c 2
 2 -214 l 1
 2 -102 l 1
 23 -102 l 2
 47 -102 57 -88 57 -53 c 2
 57 532 l 1
 171 532 l 1
171 725 m 1
 171 595 l 1
 57 595 l 1
 57 725 l 1
 171 725 l 1
EndSplineSet
EndChar
StartChar: k
Encoding: 107 107 76
Width: 456
Flags: W
HStem: 0 21G<57 171 323 461> 512 20G<315 456> 698 20G<57 171>
VStem: 57 114<0 168 0 718>
DStem: 315 532 456 532 171 330 302 326
Fore
171 168 m 1
 171 0 l 1
 57 0 l 1
 57 718 l 1
 171 718 l 1
 171 330 l 1
 315 532 l 1
 456 532 l 1
 302 326 l 1
 461 0 l 1
 323 0 l 1
 219 228 l 1
 171 168 l 1
EndSplineSet
KernsSLIF: 117 -4 0 0 115 -8 0 0 46 15 0 0 351 -13 0 0 352 -13 0 0 111 -13 0 0 45 -10 0 0 103 -14 0 0 335 -6 0 0 101 -6 0 0 44 15 0 0
EndChar
StartChar: l
Encoding: 108 108 77
Width: 228
Flags: W
HStem: 0 21G<57 171> 698 20G<57 171>
VStem: 57 114<0 718>
Fore
171 718 m 1
 171 0 l 1
 57 0 l 1
 57 718 l 1
 171 718 l 1
EndSplineSet
KernsSLIF: 121 -5 0 0 118 -7 0 0
EndChar
StartChar: m
Encoding: 109 109 78
Width: 729
Flags: W
HStem: 0 21G<52 166 307 421 563 677> 428 118<239 290 498 530>
VStem: 52 110<0 532> 307 114<0 337> 563 114<0 368>
Fore
162 532 m 1
 162 451 l 1
 189 517 228 546 290 546 c 0
 345 546 373 526 408 461 c 1
 442 523 476 546 530 546 c 0
 618 546 677 474 677 368 c 2
 677 0 l 1
 563 0 l 1
 563 323 l 2
 563 392 541 428 498 428 c 0
 448 428 421 389 421 319 c 2
 421 0 l 1
 307 0 l 1
 307 320 l 2
 307 400 289 428 239 428 c 0
 190 428 166 393 166 324 c 2
 166 0 l 1
 52 0 l 1
 52 532 l 1
 162 532 l 1
EndSplineSet
KernsSLIF: 121 -14 0 0 119 -7 0 0 118 -16 0 0 112 3 0 0
EndChar
StartChar: n
Encoding: 110 110 79
Width: 501
Flags: W
HStem: 0 21G<53 167 334 448> 428 118<260 297>
VStem: 53 110<0 532> 334 114<0 368>
Fore
163 532 m 1
 163 451 l 1
 194 517 235 546 297 546 c 0
 389 546 448 477 448 368 c 2
 448 0 l 1
 334 0 l 1
 334 323 l 2
 334 397 312 428 260 428 c 0
 203 428 167 381 167 305 c 2
 167 0 l 1
 53 0 l 1
 53 532 l 1
 163 532 l 1
EndSplineSet
KernsSLIF: 121 -14 0 0 119 -7 0 0 118 -16 0 0 39 -7 0 0 112 3 0 0 84 -63 0 0
EndChar
StartChar: o
Encoding: 111 111 80
Width: 501
Flags: W
HStem: -14 118<251 257> 428 118<236.556 257>
VStem: 28 118<241 291> 356 118<241 291>
Fore
254 546 m 0
 387 546 474 434 474 265 c 0
 474 96 386 -14 251 -14 c 0
 116 -14 28 96 28 265 c 0
 28 437 115 546 254 546 c 0
252 428 m 0
 183 428 146 372 146 266 c 0
 146 161 183 104 251 104 c 0
 319 104 356 161 356 266 c 0
 356 370 319 428 252 428 c 0
EndSplineSet
KernsSLIF: 121 -17 0 0 120 -20 0 0 119 -8 0 0 118 -18 0 0 116 -5 0 0 39 -13 0 0 84 -64 0 0
EndChar
StartChar: p
Encoding: 112 112 81
Width: 501
Flags: W
HStem: -14 115<260 289> 424 122<258 290>
VStem: 51 110<-207 290 -207 532> 356 118<240 290>
Fore
161 532 m 1
 161 452 l 1
 194 519 231 546 290 546 c 0
 401 546 474 437 474 272 c 0
 474 97 402 -14 289 -14 c 0
 230 -14 195 10 165 71 c 1
 165 -207 l 1
 51 -207 l 1
 51 532 l 1
 161 532 l 1
258 424 m 0
 194 424 161 368 161 260 c 0
 161 158 196 101 260 101 c 0
 319 101 356 165 356 265 c 0
 356 364 319 424 258 424 c 0
EndSplineSet
KernsSLIF: 121 -14 0 0 116 -1 0 0
EndChar
StartChar: q
Encoding: 113 113 82
Width: 501
Flags: W
HStem: -14 118<214 243> 424 122<218 243>
VStem: 28 118<240 274> 339 114<-207 532>
Fore
343 532 m 1
 453 532 l 1
 453 -207 l 1
 339 -207 l 1
 339 69 l 1
 310 10 274 -14 214 -14 c 0
 102 -14 28 96 28 261 c 0
 28 431 105 546 218 546 c 0
 276 546 313 518 343 450 c 1
 343 532 l 1
243 424 m 0
 181 424 146 363 146 258 c 0
 146 157 180 104 243 104 c 0
 306 104 341 162 341 263 c 0
 341 362 303 424 243 424 c 0
EndSplineSet
KernsSLIF: 117 4 0 0 99 6 0 0
EndChar
StartChar: r
Encoding: 114 114 83
Width: 319
Flags: W
HStem: 0 21G<52 166> 404 142<275 293>
VStem: 52 110<0 532>
Fore
52 0 m 1
 52 532 l 1
 162 532 l 1
 162 437 l 1
 196 518 227 546 283 546 c 0
 288 546 293 546 306 544 c 1
 306 402 l 1
 298 403 288 404 277 404 c 0
 202 404 166 363 166 277 c 2
 166 0 l 1
 52 0 l 1
EndSplineSet
KernsSLIF: 122 5 0 0 121 16 0 0 120 10 0 0 119 16 0 0 118 15 0 0 117 -6 0 0 116 17 0 0 59 -12 0 0 115 -1 0 0 114 -5 0 0 39 13 0 0 113 -3 0 0 46 -42 0 0 112 -4 0 0 249 -6 0 0 353 -6 0 0 250 -6 0 0 351 -6 0 0 354 -6 0 0 352 -6 0 0 111 -6 0 0 110 -5 0 0 109 -5 0 0 108 -7 0 0 107 -7 0 0 106 -7 0 0 105 -7 0 0 45 -24 0 0 104 -5 0 0 103 -2 0 0 102 17 0 0 100 -3 0 0 44 -42 0 0 58 -12 0 0 332 -1 0 0 99 -4 0 0 328 -1 0 0 324 -1 0 0 241 -2 0 0 322 -1 0 0 325 -1 0 0 323 -1 0 0 97 -1 0 0
EndChar
StartChar: s
Encoding: 115 115 84
Width: 456
Flags: W
HStem: -14 107<215 249> 439 107<222 238>
VStem: 41 112<369 391> 311 115<145 166>
Fore
413 370 m 1
 300 370 l 1
 292 422 272 439 222 439 c 0
 177 439 153 422 153 389 c 0
 153 361 181 343 247 331 c 0
 323 316 383 284 406 247 c 0
 419 225 426 197 426 166 c 0
 426 54 352 -14 232 -14 c 0
 173 -14 120 3 84 33 c 0
 46 64 32 97 25 170 c 1
 143 170 l 1
 145 117 174 93 236 93 c 0
 282 93 311 114 311 148 c 0
 311 176 281 194 216 207 c 0
 95 230 41 280 41 369 c 0
 41 406 50 441 67 470 c 0
 97 521 149 546 222 546 c 0
 276 546 322 532 353 507 c 0
 389 478 404 444 413 370 c 1
EndSplineSet
KernsSLIF: 116 -5 0 0 39 -11 0 0
EndChar
StartChar: t
Encoding: 116 116 85
Width: 273
Flags: W
HStem: -6 106<198 233> 432 100<8 67 181 253>
VStem: 67 114<109 432 532 676>
Fore
181 676 m 1
 181 532 l 1
 253 532 l 1
 253 432 l 1
 181 432 l 1
 181 143 l 2
 181 106 188 100 228 100 c 0
 235 100 240 100 253 102 c 1
 253 -4 l 1
 214 -6 211 -6 198 -6 c 2
 183 -6 l 2
 99 -6 67 25 67 109 c 2
 67 432 l 1
 8 432 l 1
 8 532 l 1
 67 532 l 1
 67 676 l 1
 181 676 l 1
EndSplineSet
KernsSLIF: 59 -4 0 0 39 7 0 0 351 -8 0 0 352 -8 0 0 111 -8 0 0 104 5 0 0 335 -2 0 0 101 -2 0 0 58 -5 0 0 328 4 0 0 241 4 0 0 322 4 0 0 323 4 0 0 97 4 0 0 83 1 0 0
EndChar
StartChar: u
Encoding: 117 117 86
Width: 501
Flags: W
HStem: -14 118<201 242> 512 20G<54 168 333 447>
VStem: 54 114<181 531> 333 114<203 532>
Fore
447 532 m 1
 447 0 l 1
 337 0 l 1
 337 78 l 1
 307 15 265 -14 201 -14 c 0
 107 -14 54 57 54 182 c 2
 54 532 l 1
 168 532 l 1
 168 202 l 2
 168 138 193 104 242 104 c 0
 299 104 333 150 333 225 c 2
 333 532 l 1
 447 532 l 1
EndSplineSet
KernsSLIF: 39 1 0 0
EndChar
StartChar: v
Encoding: 118 118 87
Width: 456
Flags: W
HStem: 0 21G<167 288> 512 20G<11 139 323 445>
Fore
445 532 m 1
 288 0 l 1
 167 0 l 1
 11 532 l 1
 139 532 l 1
 230 136 l 1
 323 532 l 1
 445 532 l 1
EndSplineSet
KernsSLIF: 59 -13 0 0 115 -17 0 0 46 -35 0 0 249 -16 0 0 353 -19 0 0 351 -19 0 0 352 -19 0 0 111 -19 0 0 108 -7 0 0 45 5 0 0 103 -18 0 0 336 -12 0 0 337 -12 0 0 335 -12 0 0 101 -12 0 0 44 -35 0 0 58 -13 0 0 99 -16 0 0 327 -17 0 0 328 -17 0 0 324 -17 0 0 241 -18 0 0 322 -17 0 0 325 -17 0 0 323 -17 0 0 97 -17 0 0
EndChar
StartChar: w
Encoding: 119 119 88
Width: 638
Flags: W
HStem: 0 21G<131 249 387 505> 512 20G<8 130 262 377 513 631>
DStem: 262 532 318 393 199 145 249 0 318 393 377 532 387 0 444 145
Fore
631 532 m 1
 505 0 l 1
 387 0 l 1
 318 393 l 1
 249 0 l 1
 131 0 l 1
 8 532 l 1
 130 532 l 1
 199 145 l 1
 262 532 l 1
 377 532 l 1
 444 145 l 1
 513 532 l 1
 631 532 l 1
EndSplineSet
KernsSLIF: 59 -10 0 0 115 -8 0 0 46 -20 0 0 249 -6 0 0 353 -9 0 0 351 -9 0 0 352 -9 0 0 111 -9 0 0 108 -3 0 0 45 14 0 0 103 -8 0 0 336 -2 0 0 337 -2 0 0 335 -2 0 0 101 -2 0 0 44 -20 0 0 58 -10 0 0 99 -7 0 0 327 -7 0 0 328 -7 0 0 324 -7 0 0 241 -8 0 0 322 -7 0 0 325 -7 0 0 323 -7 0 0 97 -7 0 0
EndChar
StartChar: x
Encoding: 120 120 89
Width: 456
Flags: W
HStem: 0 21G<12 151 302 444> 512 20G<18 157 304 439>
Fore
295 271 m 1
 444 0 l 1
 302 0 l 1
 226 160 l 1
 151 0 l 1
 12 0 l 1
 161 271 l 1
 18 532 l 1
 157 532 l 1
 231 377 l 1
 304 532 l 1
 439 532 l 1
 295 271 l 1
EndSplineSet
KernsSLIF: 113 -17 0 0 111 -20 0 0 335 -13 0 0 101 -13 0 0 99 -17 0 0 97 -10 0 0
EndChar
StartChar: y
Encoding: 121 121 90
Width: 456
Flags: W
HStem: -214 112<95 126> 512 20G<8 136 320 442>
Fore
442 532 m 1
 292 9 l 2
 258 -110 242 -153 224 -177 c 0
 204 -204 177 -214 126 -214 c 0
 114 -214 98 -213 71 -212 c 1
 71 -100 l 1
 79 -101 87 -102 95 -102 c 0
 144 -102 158 -87 169 -22 c 1
 8 532 l 1
 136 532 l 1
 230 136 l 1
 320 532 l 1
 442 532 l 1
EndSplineSet
KernsSLIF: 59 -14 0 0 115 -19 0 0 46 -35 0 0 249 -17 0 0 353 -20 0 0 351 -20 0 0 352 -20 0 0 111 -20 0 0 108 -8 0 0 45 4 0 0 103 -20 0 0 336 -14 0 0 337 -14 0 0 335 -14 0 0 101 -14 0 0 44 -36 0 0 58 -14 0 0 99 -18 0 0 327 -18 0 0 328 -18 0 0 324 -18 0 0 241 -19 0 0 322 -18 0 0 325 -18 0 0 323 -18 0 0 97 -18 0 0
EndChar
StartChar: z
Encoding: 122 122 91
Width: 410
Flags: W
HStem: 0 115<165 394> 420 112<32 241>
DStem: 241 420 386 417 16 109 165 115
Fore
386 417 m 1
 165 115 l 1
 394 115 l 1
 394 0 l 1
 16 0 l 1
 16 109 l 1
 241 420 l 1
 32 420 l 1
 32 532 l 1
 386 532 l 1
 386 417 l 1
EndSplineSet
EndChar
StartChar: braceleft
Encoding: 123 123 92
Width: 319
Flags: W
HStem: -196 88<250.558 299> 634 88<231 299>
VStem: 116 100<-61 156 370 587>
Fore
299 -108 m 1
 299 -196 l 1
 231 -196 l 2
 165 -196 116 -138 116 -59 c 2
 116 141 l 2
 116 186 89 213 39 217 c 1
 39 309 l 1
 88 313 116 340 116 385 c 2
 116 585 l 2
 116 664 165 722 231 722 c 2
 299 722 l 1
 299 634 l 1
 262 634 l 2
 230 634 216 614 216 568 c 2
 216 372 l 2
 216 340 198 304 172 284 c 0
 157 273 145 268 118 263 c 1
 145 258 157 253 172 242 c 0
 198 222 216 186 216 154 c 2
 216 -42 l 2
 216 -88 230 -108 262 -108 c 2
 299 -108 l 1
EndSplineSet
EndChar
StartChar: bar
Encoding: 124 124 93
Width: 230
Flags: W
HStem: -19 21G<69 161> 717 20G<69 161>
VStem: 69 92<-19 737>
Fore
69 -19 m 1
 69 737 l 1
 161 737 l 1
 161 -19 l 1
 69 -19 l 1
EndSplineSet
EndChar
StartChar: braceright
Encoding: 125 125 94
Width: 319
Flags: W
HStem: 702 20G<20 88>
VStem: 103 100<-61 156 370 587>
Fore
280 309 m 1
 280 217 l 1
 230 213 203 186 203 141 c 2
 203 -59 l 2
 203 -137 154 -196 88 -196 c 2
 20 -196 l 1
 20 -108 l 1
 57 -108 l 2
 89 -108 103 -88 103 -42 c 2
 103 154 l 2
 103 186 121 222 147 242 c 0
 162 253 174 258 201 263 c 1
 174 268 162 273 147 284 c 0
 121 304 103 340 103 372 c 2
 103 568 l 2
 103 614 89 634 57 634 c 2
 20 634 l 1
 20 722 l 1
 88 722 l 2
 154 722 203 663 203 585 c 2
 203 385 l 2
 203 340 231 313 280 309 c 1
EndSplineSet
EndChar
StartChar: asciitilde
Encoding: 126 126 95
Width: 479
Flags: W
Fore
373 321 m 1
 429 267 l 1
 395 198 367 173 322 173 c 0
 300 173 279 180 245 198 c 0
 209 217 187 224 162 224 c 0
 136 224 122 215 106 187 c 1
 50 242 l 1
 84 311 112 336 157 336 c 0
 179 336 201 329 234 311 c 0
 270 292 292 285 317 285 c 0
 343 285 357 294 373 321 c 1
EndSplineSet
EndChar
StartChar: exclamdown
Encoding: 161 161 96
Width: 273
Flags: W
HStem: 512 20G<77 197>
VStem: 74 126<-186 -3>
Fore
77 390 m 1
 77 532 l 1
 197 532 l 1
 197 390 l 1
 77 390 l 1
74 -3 m 1
 107 333 l 1
 167 333 l 1
 200 -3 l 1
 200 -186 l 1
 74 -186 l 1
 74 -3 l 1
EndSplineSet
EndChar
StartChar: cent
Encoding: 162 162 97
Width: 456
Flags: W
HStem: -14 115<227 240> 428 118<237 247>
VStem: 28 118<233 283>
DStem: 148 2 188 -10 120 -118 163 -118 247 428 286 410 177 129 214 105 294 628 336 628 274 543 314 530
Fore
430 342 m 1
 314 342 l 1
 308 374 300 395 286 410 c 1
 214 105 l 1
 220 102 226 101 234 101 c 0
 277 101 309 139 313 194 c 1
 429 194 l 1
 412 59 342 -14 229 -14 c 0
 215 -14 200 -13 188 -10 c 1
 163 -118 l 1
 120 -118 l 1
 148 2 l 1
 103 26 83 45 61 89 c 0
 39 133 28 188 28 257 c 0
 28 441 104 546 237 546 c 0
 247 546 261 545 274 543 c 1
 294 628 l 1
 336 628 l 1
 314 530 l 1
 384 499 423 438 430 342 c 1
177 129 m 1
 247 428 l 1
 237 428 l 2
 179 428 146 370 146 265 c 0
 146 198 154 161 177 129 c 1
EndSplineSet
EndChar
StartChar: sterling
Encoding: 163 163 98
Width: 456
Flags: W
HStem: -16 118<320 330> 321 60<23 99 192 309> 606 112<225 248>
VStem: 37 115<498.499 529> 117 98<232 267>
Fore
309 381 m 1xf0
 309 321 l 1
 211 321 l 1
 214 298 215 281 215 267 c 0
 215 225 201 185 175 151 c 0
 165 138 151 122 127 98 c 1
 174 120 197 127 227 127 c 0
 249 127 267 123 294 112 c 0
 310 105 322 102 328 102 c 0
 351 102 380 115 410 138 c 1
 444 29 l 1
 401 -2 362 -16 322 -16 c 0
 293 -16 269 -10 220 10 c 0
 198 19 178 24 161 24 c 0
 139 24 128 20 71 -11 c 1
 26 86 l 1
 78 122 117 185 117 232 c 0xe8
 117 256 110 290 99 321 c 1
 23 321 l 1
 23 381 l 1
 71 381 l 1
 43 453 37 478 37 516 c 0
 37 634 119 718 233 718 c 0
 310 718 370 683 403 619 c 0
 421 582 428 551 431 487 c 1
 324 487 l 1
 317 538 311 559 299 576 c 0
 285 596 263 606 236 606 c 0
 186 606 152 568 152 513 c 0
 152 491 157 476 192 381 c 1
 309 381 l 1xf0
EndSplineSet
EndChar
StartChar: fraction
Encoding: 164 8260 99
Width: 137
Flags: W
HStem: -19 21G<-139 -74> 690 20G<212 276>
DStem: 212 710 276 710 -139 -19 -74 -19
Fore
276 710 m 1
 -74 -19 l 1
 -139 -19 l 1
 212 710 l 1
 276 710 l 1
EndSplineSet
EndChar
StartChar: yen
Encoding: 165 165 100
Width: 456
Flags: W
HStem: 0 21G<179 282> 211 60<13 179 283 450> 345 60<13 146 340 450> 678 20G<-7 116 346 463>
VStem: 179 103<0 211>
Fore
450 405 m 1
 450 345 l 1
 314 345 l 1
 283 271 l 1
 450 271 l 1
 450 211 l 1
 282 211 l 1
 282 0 l 1
 179 0 l 1
 179 211 l 1
 13 211 l 1
 13 271 l 1
 179 271 l 1
 146 345 l 1
 13 345 l 1
 13 405 l 1
 120 405 l 1
 -7 698 l 1
 116 698 l 1
 233 404 l 1
 346 698 l 1
 463 698 l 1
 340 405 l 1
 450 405 l 1
EndSplineSet
EndChar
StartChar: florin
Encoding: 166 402 101
Width: 456
Flags: W
HStem: -210 115<54 74> 380 97<65 165 291 389> 625 112<337 357>
DStem: 165 380 279 380 118 46 231 21
Fore
389 477 m 1
 389 380 l 1
 279 380 l 1
 231 21 l 2
 210 -137 160 -210 74 -210 c 0
 51 -210 36 -206 -8 -189 c 1
 12 -78 l 1
 32 -92 40 -95 54 -95 c 0
 91 -95 102 -72 118 46 c 1
 165 380 l 1
 65 380 l 1
 65 477 l 1
 177 477 l 1
 193 564 l 1
 214 683 259 737 337 737 c 0
 363 737 388 731 423 718 c 1
 403 610 l 1
 386 620 370 625 357 625 c 0
 329 625 308 602 303 565 c 2
 291 477 l 1
 389 477 l 1
EndSplineSet
EndChar
StartChar: section
Encoding: 167 167 102
Width: 456
Flags: W
HStem: -184 107<219 237> 544 21G<289 393> 620 107<219 237>
VStem: 28 97<294 322> 62 104<549 569> 291 110<-9 5> 326 102<243 278>
Fore
393 544 m 1xe8
 289 544 l 1
 284 596 264 620 226 620 c 0
 191 620 166 596 166 563 c 0
 166 541 176 525 197 512 c 2
 330 431 l 2
 396 390 428 341 428 278 c 0xea
 428 219 399 166 350 134 c 1
 386 95 401 56 401 3 c 0
 401 -107 327 -184 222 -184 c 0
 122 -184 61 -117 52 3 c 1
 160 3 l 1
 166 -52 188 -77 230 -77 c 0
 267 -77 291 -49 291 -6 c 0
 291 22 279 39 243 61 c 2
 117 139 l 2
 53 179 28 222 28 294 c 0xf4
 28 355 48 391 104 432 c 1
 75 468 62 503 62 549 c 0
 62 652 132 727 229 727 c 0
 292 727 342 699 369 648 c 0
 384 619 389 595 393 544 c 1xe8
163 263 m 2
 291 179 l 1xf4
 316 197 326 216 326 243 c 0
 326 269 312 289 280 309 c 2
 160 383 l 1
 139 372 125 348 125 322 c 0xf2
 125 298 137 280 163 263 c 2
EndSplineSet
EndChar
StartChar: currency
Encoding: 168 164 103
Width: 456
Flags: W
HStem: 141 103<228 239> 468 103<221 239>
VStem: 53 92<347 365> 313 92<357 365>
DStem: -2 570 52 636 78 472 132 538 78 240 132 174 -2 142 52 76 324 174 378 240 404 76 458 142 404 636 458 570 324 538 378 472
Fore
-2 142 m 1
 78 240 l 1
 60 279 53 313 53 356 c 0
 53 398 61 434 78 472 c 1
 -2 570 l 1
 52 636 l 1
 132 538 l 1
 165 561 195 571 228 571 c 0
 263 571 293 561 324 538 c 1
 404 636 l 1
 458 570 l 1
 378 472 l 1
 397 433 405 398 405 357 c 0
 405 315 397 279 378 240 c 1
 458 142 l 1
 404 76 l 1
 324 174 l 1
 293 151 263 141 228 141 c 0
 194 141 165 151 132 174 c 1
 52 76 l 1
 -2 142 l 1
229 468 m 0
 179 468 145 423 145 357 c 0
 145 291 180 244 228 244 c 0
 277 244 313 292 313 357 c 0
 313 420 277 468 229 468 c 0
EndSplineSet
EndChar
StartChar: quotesingle
Encoding: 169 39 104
Width: 195
Flags: W
HStem: 698 20G<57 138>
VStem: 57 81<447 718>
Fore
57 447 m 1
 57 718 l 1
 138 718 l 1
 138 447 l 1
 57 447 l 1
EndSplineSet
EndChar
StartChar: quotedblleft
Encoding: 170 8220 105
Width: 410
Flags: W
VStem: 52 114<454 581> 244 114<454 581>
Fore
166 581 m 1
 166 454 l 1
 52 454 l 1
 52 556 l 2
 52 617 68 662 99 693 c 0
 116 709 131 717 165 727 c 1
 165 676 l 1
 121 658 106 634 104 581 c 1
 166 581 l 1
358 581 m 1
 358 454 l 1
 244 454 l 1
 244 556 l 2
 244 617 259 662 291 693 c 0
 307 709 322 717 356 727 c 1
 356 676 l 1
 312 658 297 634 295 581 c 1
 358 581 l 1
EndSplineSet
KernsSLIF: 89 2 1 0 87 15 1 0 86 10 1 0 84 3 1 0 262 -49 1 0 256 -49 1 0 257 -49 1 0 225 -45 1 0 65 -49 1 0
EndChar
StartChar: guillemotleft
Encoding: 171 171 106
Width: 456
Flags: W
DStem: 72 220 127 280 209 76 209 192 209 484 209 368 72 340 127 280 247 220 302 280 384 76 384 192 384 484 384 368 247 340 302 280
Fore
209 368 m 1
 127 280 l 1
 209 192 l 1
 209 76 l 1
 72 220 l 1
 72 340 l 1
 209 484 l 1
 209 368 l 1
384 368 m 1
 302 280 l 1
 384 192 l 1
 384 76 l 1
 247 220 l 1
 247 340 l 1
 384 484 l 1
 384 368 l 1
EndSplineSet
EndChar
StartChar: guilsinglleft
Encoding: 172 8249 107
Width: 273
Flags: W
DStem: 68 220 123 280 205 76 205 192 205 484 205 368 68 340 123 280
Fore
205 484 m 1
 205 368 l 1
 123 280 l 1
 205 192 l 1
 205 76 l 1
 68 220 l 1
 68 340 l 1
 205 484 l 1
EndSplineSet
EndChar
StartChar: guilsinglright
Encoding: 173 8250 108
Width: 273
Flags: W
DStem: 68 368 68 484 150 280 205 340 150 280 205 220 68 192 68 76
Fore
150 280 m 1
 68 368 l 1
 68 484 l 1
 205 340 l 1
 205 220 l 1
 68 76 l 1
 68 192 l 1
 150 280 l 1
EndSplineSet
KernsSLIF: 89 -84 1 0 87 -45 1 0 86 -56 1 0 84 -82 1 0 262 -33 1 0 256 -33 1 0 257 -33 1 0 225 -28 1 0 65 -33 1 0
EndChar
StartChar: fi
Encoding: 174 64257 109
Width: 501
Flags: W
HStem: 0 21G<71 185 330 444> 432 100<8 71 185 260> 612 115<205 233>
VStem: 71 114<0 432 532 577> 330 114<0 532 595 725>
Fore
185 432 m 1
 185 0 l 1
 71 0 l 1
 71 432 l 1
 8 432 l 1
 8 532 l 1
 71 532 l 1
 71 575 l 2
 71 680 113 727 205 727 c 0
 223 727 245 726 258 725 c 1
 258 612 l 1
 226 612 l 2
 190 612 185 605 185 553 c 2
 185 532 l 1
 260 532 l 1
 260 432 l 1
 185 432 l 1
330 532 m 1
 444 532 l 1
 444 0 l 1
 330 0 l 1
 330 532 l 1
444 725 m 1
 444 595 l 1
 330 595 l 1
 330 725 l 1
 444 725 l 1
EndSplineSet
Ligature: 0 0 'liga' f i
EndChar
StartChar: fl
Encoding: 175 64258 110
Width: 501
Flags: W
HStem: 0 21G<71 185 330 444> 432 100<8 71 185 260> 612 115<205 233>
VStem: 71 114<0 432 532 577> 330 114<0 718>
Fore
185 432 m 1
 185 0 l 1
 71 0 l 1
 71 432 l 1
 8 432 l 1
 8 532 l 1
 71 532 l 1
 71 575 l 2
 71 680 113 727 205 727 c 0
 223 727 245 726 258 725 c 1
 258 612 l 1
 226 612 l 2
 190 612 185 605 185 553 c 2
 185 532 l 1
 260 532 l 1
 260 432 l 1
 185 432 l 1
444 718 m 1
 444 0 l 1
 330 0 l 1
 330 718 l 1
 444 718 l 1
EndSplineSet
Ligature: 0 0 'liga' f l
EndChar
StartChar: endash
Encoding: 177 8211 111
Width: 456
Flags: W
HStem: 226 107<0 456>
Fore
456 333 m 1
 456 226 l 1
 0 226 l 1
 0 333 l 1
 456 333 l 1
EndSplineSet
EndChar
StartChar: dagger
Encoding: 178 8224 112
Width: 456
Flags: W
HStem: 387 112<30 173 283 426> 698 20G<173 283>
VStem: 173 110<-171 387 499 718>
Fore
426 499 m 1
 426 387 l 1
 283 387 l 1
 283 -171 l 1
 173 -171 l 1
 173 387 l 1
 30 387 l 1
 30 499 l 1
 173 499 l 1
 173 718 l 1
 283 718 l 1
 283 499 l 1
 426 499 l 1
EndSplineSet
EndChar
StartChar: daggerdbl
Encoding: 179 8225 113
Width: 456
Flags: W
HStem: 45 112<30 172 282 426> 397 112<30 172 282 426> 698 20G<172 282>
VStem: 172 110<-171 45 157 397 509 718>
Fore
426 509 m 1
 426 397 l 1
 282 397 l 1
 282 157 l 1
 426 157 l 1
 426 45 l 1
 282 45 l 1
 282 -171 l 1
 172 -171 l 1
 172 45 l 1
 30 45 l 1
 30 157 l 1
 172 157 l 1
 172 397 l 1
 30 397 l 1
 30 509 l 1
 172 509 l 1
 172 718 l 1
 282 718 l 1
 282 509 l 1
 426 509 l 1
EndSplineSet
EndChar
StartChar: periodcentered
Encoding: 180 183 114
Width: 228
Flags: W
Fore
115 334 m 0
 150 334 180 297 180 253 c 0
 180 208 151 172 114 172 c 0
 77 172 48 208 48 253 c 0
 48 298 78 334 115 334 c 0
EndSplineSet
EndChar
StartChar: paragraph
Encoding: 182 182 115
Width: 456
Flags: W
HStem: 615 85<193 350>
VStem: 175 92<-191 615> 350 92<-191 700>
Fore
175 -191 m 1
 175 347 l 1
 111 350 79 360 47 388 c 0
 11 418 -7 463 -7 523 c 0
 -7 643 58 700 193 700 c 2
 442 700 l 1
 442 -191 l 1
 350 -191 l 1
 350 615 l 1
 267 615 l 1
 267 -191 l 1
 175 -191 l 1
EndSplineSet
EndChar
StartChar: bullet
Encoding: 183 8226 116
Width: 287
Flags: W
Fore
145 524 m 0
 219 524 279 450 279 360 c 0
 279 268 219 194 143 194 c 0
 68 194 8 267 8 359 c 0
 8 452 68 524 145 524 c 0
EndSplineSet
EndChar
StartChar: quotesinglbase
Encoding: 184 8218 117
Width: 228
Flags: W
HStem: -20 20G<57 120>
VStem: 57 114<-1 127>
Fore
57 0 m 1
 57 127 l 1
 171 127 l 1
 171 25 l 2
 171 -36 156 -81 124 -112 c 0
 108 -128 93 -136 59 -146 c 1
 59 -95 l 1
 103 -77 118 -54 120 0 c 1
 57 0 l 1
EndSplineSet
EndChar
StartChar: quotedblbase
Encoding: 185 8222 118
Width: 410
Flags: W
HStem: -20 20G<52 115 244 306>
VStem: 52 114<-1 127> 244 114<-1 127>
Fore
52 0 m 1
 52 127 l 1
 166 127 l 1
 166 25 l 2
 166 -36 151 -81 119 -112 c 0
 103 -128 88 -136 54 -146 c 1
 54 -95 l 1
 98 -77 113 -53 115 0 c 1
 52 0 l 1
244 0 m 1
 244 127 l 1
 358 127 l 1
 358 25 l 2
 358 -36 342 -81 311 -112 c 0
 294 -128 279 -136 245 -146 c 1
 245 -95 l 1
 289 -77 304 -54 306 0 c 1
 244 0 l 1
EndSplineSet
KernsSLIF: 89 -69 1 0 87 -38 1 0 86 -53 1 0 84 -56 1 0 225 22 1 0 65 16 1 0
EndChar
StartChar: quotedblright
Encoding: 186 8221 119
Width: 410
Flags: W
HStem: 698 20G<52 166 244 358>
VStem: 52 114<590 718> 244 114<590 718>
Fore
52 591 m 1
 52 718 l 1
 166 718 l 1
 166 616 l 2
 166 555 151 510 119 479 c 0
 103 463 88 455 54 445 c 1
 54 496 l 1
 98 514 113 538 115 591 c 1
 52 591 l 1
244 591 m 1
 244 718 l 1
 358 718 l 1
 358 616 l 2
 358 555 342 510 311 479 c 0
 294 463 279 455 245 445 c 1
 245 496 l 1
 289 514 304 537 306 591 c 1
 244 591 l 1
EndSplineSet
KernsSLIF: 87 12 1 0 86 7 1 0 84 4 1 0 262 -52 1 0 256 -52 1 0 257 -52 1 0 225 -48 1 0 65 -52 1 0
EndChar
StartChar: guillemotright
Encoding: 187 187 120
Width: 456
Flags: W
DStem: 72 368 72 484 154 280 209 340 154 280 209 220 72 192 72 76 247 368 247 484 329 280 384 340 329 280 384 220 247 192 247 76
Fore
329 280 m 1
 247 368 l 1
 247 484 l 1
 384 340 l 1
 384 220 l 1
 247 76 l 1
 247 192 l 1
 329 280 l 1
154 280 m 1
 72 368 l 1
 72 484 l 1
 209 340 l 1
 209 220 l 1
 72 76 l 1
 72 192 l 1
 154 280 l 1
EndSplineSet
KernsSLIF: 89 -86 1 0 87 -48 1 0 86 -59 1 0 84 -84 1 0 262 -36 1 0 256 -36 1 0 257 -36 1 0 225 -30 1 0 65 -36 1 0
EndChar
StartChar: ellipsis
Encoding: 188 8230 121
Width: 820
Flags: W
HStem: 0 147<75 198 348 471 622 745>
VStem: 75 123<0 147> 348 123<0 147> 622 123<0 147>
Fore
198 147 m 1
 198 0 l 1
 75 0 l 1
 75 147 l 1
 198 147 l 1
471 147 m 1
 471 0 l 1
 348 0 l 1
 348 147 l 1
 471 147 l 1
745 147 m 1
 745 0 l 1
 622 0 l 1
 622 147 l 1
 745 147 l 1
EndSplineSet
Ligature: 0 1 'liga' period period period
EndChar
StartChar: perthousand
Encoding: 189 8240 122
Width: 820
Flags: W
HStem: -12 70<420 424 685 703> 296 70<413 424 685 703> 332 70<114.246 129> 640 70<122 128>
VStem: -2 82<492 542> 169 82<521 542> 294 82<156 206> 464 82<177 206> 569 82<156 206> 740 82<177 206>
DStem: 402 710 463 710 76 -19 137 -19
Fore
76 -19 m 1x9fc0
 402 710 l 1
 463 710 l 1
 137 -19 l 1
 76 -19 l 1x9fc0
126 710 m 0
 210 710 251 647 251 521 c 0
 251 394 210 332 125 332 c 0xbfc0
 40 332 -2 394 -2 520 c 0
 -2 649 39 710 126 710 c 0
125 640 m 0
 90 640 80 612 80 515 c 0
 80 431 91 402 124 402 c 0
 158 402 169 431 169 521 c 0
 169 611 158 640 125 640 c 0
697 366 m 0xdfc0
 781 366 822 303 822 177 c 0
 822 50 781 -12 696 -12 c 0
 611 -12 569 50 569 176 c 0
 569 305 610 366 697 366 c 0xdfc0
696 296 m 0
 661 296 651 268 651 172 c 0
 651 87 662 58 695 58 c 0
 729 58 740 87 740 177 c 0
 740 266 729 296 696 296 c 0
422 366 m 0
 505 366 546 303 546 177 c 0
 546 50 505 -12 420 -12 c 0
 335 -12 294 50 294 176 c 0
 294 305 335 366 422 366 c 0
420 296 m 0
 386 296 376 268 376 173 c 0
 376 87 387 58 420 58 c 0
 453 58 464 88 464 177 c 0
 464 266 453 296 420 296 c 0
EndSplineSet
EndChar
StartChar: questiondown
Encoding: 191 191 123
Width: 501
Flags: W
HStem: -195 118<236 255> 512 20G<186 306>
VStem: 45 123<11 39> 186 120<390 532>
Fore
195 324 m 1
 303 324 l 1
 303 216 289 183 219 121 c 0
 181 87 168 61 168 20 c 0
 168 -40 199 -77 249 -77 c 0
 279 -77 303 -63 318 -38 c 0
 325 -26 336 12 336 23 c 2
 336 39 l 1
 452 39 l 1
 449 -30 441 -64 418 -104 c 0
 384 -162 324 -195 253 -195 c 0
 128 -195 45 -112 45 13 c 0
 45 90 68 134 144 202 c 0
 185 238 194 258 195 324 c 1
186 390 m 1
 186 532 l 1
 306 532 l 1
 306 390 l 1
 186 390 l 1
EndSplineSet
EndChar
StartChar: grave
Encoding: 193 96 124
Width: 273
Flags: W
HStem: 604 146<-19 184>
Fore
101 604 m 1
 -19 750 l 1
 107 750 l 1
 184 604 l 1
 101 604 l 1
EndSplineSet
EndChar
StartChar: acute
Encoding: 194 180 125
Width: 273
Flags: W
Fore
292 750 m 1
 172 604 l 1
 89 604 l 1
 166 750 l 1
 292 750 l 1
EndSplineSet
Ligature: 0 1 'liga' space acutecomb
EndChar
StartChar: circumflex
Encoding: 195 710 126
Width: 273
Flags: W
HStem: 604 146<85 85 85 281>
DStem: 85 750 136 686 -8 604 85 604 136 686 188 750 188 604 281 604
Fore
188 750 m 1
 281 604 l 1
 188 604 l 1
 136 686 l 1
 85 604 l 1
 -8 604 l 1
 85 750 l 1
 188 750 l 1
EndSplineSet
EndChar
StartChar: tilde
Encoding: 196 732 127
Width: 273
Flags: W
HStem: 717 20G<234 287>
Fore
234 737 m 1
 287 737 l 1
 274 657 244 617 199 617 c 0
 181 617 150 626 114 641 c 1
 96 650 84 653 76 653 c 0
 57 653 44 638 38 610 c 1
 -14 610 l 1
 0 694 32 733 85 733 c 0
 101 733 110 730 144 714 c 0
 173 701 184 697 195 697 c 0
 216 697 227 709 234 737 c 1
EndSplineSet
Ligature: 0 1 'liga' space tildecomb
EndChar
StartChar: macron
Encoding: 197 175 128
Width: 273
Flags: W
HStem: 605 73<-5 278>
Fore
278 678 m 1
 278 605 l 1
 -5 605 l 1
 -5 678 l 1
 278 678 l 1
EndSplineSet
Ligature: 0 1 'liga' space uni0304
EndChar
StartChar: breve
Encoding: 198 728 129
Width: 273
Flags: W
Fore
222 750 m 1
 275 750 l 1
 265 653 216 604 132 604 c 0
 52 604 7 652 -2 750 c 1
 52 750 l 1
 61 699 83 681 137 681 c 0
 190 681 211 698 222 750 c 1
EndSplineSet
Ligature: 0 1 'liga' space uni0306
EndChar
StartChar: dotaccent
Encoding: 199 729 130
Width: 273
Flags: W
HStem: 709 20G<85 189>
VStem: 85 104<614 729>
Fore
189 729 m 1
 189 614 l 1
 85 614 l 1
 85 729 l 1
 189 729 l 1
EndSplineSet
Ligature: 0 1 'liga' space uni0307
EndChar
StartChar: dieresis
Encoding: 200 168 131
Width: 273
Flags: W
HStem: 614 115<5 108 165 268>
VStem: 5 103<614 729> 165 103<614 729>
Fore
108 729 m 1
 108 614 l 1
 5 614 l 1
 5 729 l 1
 108 729 l 1
268 729 m 1
 268 614 l 1
 165 614 l 1
 165 729 l 1
 268 729 l 1
EndSplineSet
Ligature: 0 1 'liga' space uni0308
EndChar
StartChar: ring
Encoding: 202 730 132
Width: 273
Flags: W
HStem: 568 52<136 145> 724 52<134 145>
VStem: 48 46<672 681> 179 46<672 681>
Fore
138 776 m 0
 184 776 225 727 225 672 c 0
 225 617 184 568 136 568 c 0
 89 568 48 616 48 672 c 0
 48 728 89 776 138 776 c 0
137 724 m 0
 113 724 94 701 94 672 c 0
 94 643 113 620 136 620 c 0
 160 620 179 643 179 672 c 0
 179 700 160 724 137 724 c 0
EndSplineSet
Ligature: 0 1 'liga' space uni030A
EndChar
StartChar: cedilla
Encoding: 203 184 133
Width: 273
Flags: W
HStem: -228 57<83 97> -96 45<92 129> -20 20G<88 136>
VStem: 124 77<-134 -127>
DStem: 88 0 136 0 43 -84 105 -55
Fore
43 -84 m 1
 88 0 l 1
 136 0 l 1
 105 -55 l 1
 114 -52 121 -51 129 -51 c 0
 171 -51 201 -83 201 -129 c 0
 201 -188 159 -228 97 -228 c 0
 69 -228 50 -223 5 -203 c 1
 23 -155 l 1
 54 -166 72 -171 85 -171 c 0
 106 -171 124 -153 124 -132 c 0
 124 -112 110 -96 92 -96 c 0
 85 -96 74 -99 60 -104 c 1
 43 -84 l 1
EndSplineSet
Ligature: 0 1 'liga' space uni0327
EndChar
StartChar: hungarumlaut
Encoding: 205 733 134
Width: 273
Flags: W
Fore
211 750 m 1
 90 604 l 1
 7 604 l 1
 84 750 l 1
 211 750 l 1
399 750 m 1
 278 604 l 1
 195 604 l 1
 272 750 l 1
 399 750 l 1
EndSplineSet
Ligature: 0 1 'liga' space uni030B
EndChar
StartChar: ogonek
Encoding: 206 731 135
Width: 273
Flags: W
HStem: -228 57<161 175> -20 20G<147 216>
Fore
234 -155 m 1
 249 -204 l 1
 208 -222 188 -228 161 -228 c 0
 100 -228 58 -189 58 -132 c 0
 58 -74 86 -32 147 0 c 1
 216 0 l 1
 216 -4 l 1
 163 -42 135 -85 135 -125 c 0
 135 -150 152 -171 173 -171 c 0
 187 -171 209 -165 234 -155 c 1
EndSplineSet
Ligature: 0 1 'liga' space uni0328
EndChar
StartChar: caron
Encoding: 207 711 136
Width: 273
Flags: W
HStem: 604 146<-8 188>
DStem: -8 750 85 750 85 604 136 668 188 750 281 750 136 668 188 604
Fore
281 750 m 1
 188 604 l 1
 85 604 l 1
 -8 750 l 1
 85 750 l 1
 136 668 l 1
 188 750 l 1
 281 750 l 1
EndSplineSet
EndChar
StartChar: emdash
Encoding: 208 8212 137
Width: 820
Flags: W
HStem: 226 107<0 820>
Fore
820 333 m 1
 820 226 l 1
 0 226 l 1
 0 333 l 1
 820 333 l 1
EndSplineSet
EndChar
StartChar: AE
Encoding: 225 198 138
Width: 820
Flags: W
HStem: 0 127<472 782> 153 118<208 352> 313 127<472 746> 591 127<219 352 219 776>
VStem: 352 120<0 313 271 591>
DStem: 219 718 299 591 4 0 208 271 219 718 176 153 4 0 133 0
Fore
472 313 m 1
 472 127 l 1
 782 127 l 1
 782 0 l 1
 352 0 l 1
 352 153 l 1
 176 153 l 1
 133 0 l 1
 4 0 l 1
 219 718 l 1
 776 718 l 1
 776 591 l 1
 472 591 l 1
 472 440 l 1
 746 440 l 1
 746 313 l 1
 472 313 l 1
208 271 m 1
 352 271 l 1
 352 591 l 1
 299 591 l 1
 208 271 l 1
EndSplineSet
EndChar
StartChar: ordfeminine
Encoding: 227 170 139
Width: 303
Flags: W
HStem: 276 80<26 274> 401 62<108 130> 665 72<143 163>
VStem: 18 77<492 502> 196 72<515 644>
Fore
100 625 m 1
 28 625 l 1
 38 705 73 737 152 737 c 0
 226 737 268 703 268 644 c 2
 268 471 l 2
 268 440 273 427 285 422 c 1
 285 409 l 1
 205 409 l 1
 201 422 200 431 198 447 c 1
 169 413 145 401 108 401 c 0
 53 401 18 437 18 494 c 0
 18 550 50 589 102 598 c 2
 170 609 l 2
 189 612 196 618 196 632 c 0
 196 654 181 665 150 665 c 0
 118 665 105 655 100 625 c 1
196 525 m 2
 196 565 l 1
 185 557 173 553 145 548 c 0
 110 542 95 528 95 500 c 0
 95 477 108 463 130 463 c 0
 167 463 196 491 196 525 c 2
26 356 m 1
 274 356 l 1
 274 276 l 1
 26 276 l 1
 26 356 l 1
EndSplineSet
EndChar
StartChar: Lslash
Encoding: 232 321 140
Width: 501
Flags: W
HStem: 0 130<186 478> 698 20G<63 186>
VStem: 63 123<0 386 389 718>
Fore
290 459 m 1
 186 386 l 1
 186 130 l 1
 478 130 l 1
 478 0 l 1
 63 0 l 1
 63 311 l 1
 -16 256 l 1
 -16 334 l 1
 63 389 l 1
 63 718 l 1
 186 718 l 1
 186 464 l 1
 290 537 l 1
 290 459 l 1
EndSplineSet
EndChar
StartChar: Oslash
Encoding: 233 216 141
Width: 638
Flags: W
HStem: -19 127<300.991 332> 610 127<314 332>
VStem: 36 123<324 390> 479 123<340 390>
DStem: 97 104 129 63 27 11 61 -27 430 551 456 501 181 218 207 168 576 745 610 707 509 656 541 615
Fore
610 707 m 1
 541 615 l 1
 585 539 602 467 602 361 c 0
 602 238 575 141 521 76 c 0
 472 16 398 -19 319 -19 c 0
 245 -19 188 5 129 63 c 1
 61 -27 l 1
 27 11 l 1
 97 104 l 1
 54 178 36 251 36 357 c 0
 36 480 63 577 117 642 c 0
 166 702 240 737 318 737 c 0
 391 737 447 713 509 656 c 1
 576 745 l 1
 610 707 l 1
181 218 m 1
 430 551 l 1
 396 593 363 610 319 610 c 0
 220 610 159 514 159 358 c 0
 159 302 165 262 181 218 c 1
456 501 m 1
 207 168 l 1
 240 126 274 108 319 108 c 0
 418 108 479 204 479 359 c 0
 479 418 473 458 456 501 c 1
EndSplineSet
KernsSLIF: 65 -24 0 0
EndChar
StartChar: OE
Encoding: 234 338 142
Width: 820
Flags: W
HStem: -19 123<274 295> 0 127<514 788> 313 127<514 769> 591 127<402 788> 614 123<275 294>
VStem: 30 120<332 382> 394 120<188 313 196 591>
Fore
514 591 m 1x36
 514 440 l 1
 769 440 l 1
 769 313 l 1
 514 313 l 1
 514 127 l 1
 788 127 l 1
 788 0 l 1
 402 0 l 1x76
 402 50 l 1
 363 -2 333 -19 276 -19 c 0
 125 -19 30 126 30 355 c 0
 30 591 123 737 275 737 c 0xae
 330 737 366 720 402 676 c 1
 402 718 l 1
 788 718 l 1
 788 591 l 1
 514 591 l 1x36
394 196 m 2
 394 521 l 2
 394 576 352 614 292 614 c 0
 203 614 150 517 150 357 c 0
 150 204 205 104 289 104 c 0xae
 346 104 394 146 394 196 c 2
EndSplineSet
EndChar
StartChar: ordmasculine
Encoding: 235 186 143
Width: 299
Flags: W
HStem: 276 80<27 272> 401 72<139.644 155> 665 72<148 154>
VStem: 5 80<569 581> 215 80<569 581>
Fore
152 737 m 0
 236 737 295 667 295 569 c 0
 295 470 236 401 150 401 c 0
 64 401 5 469 5 569 c 0
 5 670 64 737 152 737 c 0
151 665 m 0
 111 665 85 626 85 569 c 0
 85 512 112 473 150 473 c 0
 188 473 215 512 215 569 c 0
 215 625 188 665 151 665 c 0
27 356 m 1
 272 356 l 1
 272 276 l 1
 27 276 l 1
 27 356 l 1
EndSplineSet
EndChar
StartChar: ae
Encoding: 241 230 144
Width: 729
Flags: W
HStem: -14 100<179 202> -14 113<494 507> 227 92<408 704> 431 115<487 507>
VStem: 24 115<145 163>
Fore
581 157 m 1x78
 699 157 l 1
 680 91 663 60 626 29 c 0
 592 0 552 -14 501 -14 c 0x78
 425 -14 385 8 344 72 c 1
 311 16 255 -14 179 -14 c 0xb8
 79 -14 24 44 24 147 c 0
 24 230 65 286 135 301 c 2
 242 323 l 2
 293 334 301 340 301 374 c 0
 301 416 278 434 225 434 c 0
 176 434 154 411 152 359 c 1
 40 359 l 1
 45 414 53 442 72 472 c 0
 103 520 158 546 231 546 c 0
 290 546 330 529 371 487 c 1
 417 531 451 546 503 546 c 0
 557 546 609 522 642 481 c 0
 683 430 704 354 704 252 c 2
 704 227 l 1
 405 227 l 1
 412 138 443 99 505 99 c 0
 544 99 570 119 581 157 c 1x78
299 188 m 2
 299 254 l 1
 286 240 268 234 214 224 c 0
 156 213 139 197 139 151 c 0
 139 110 162 86 200 86 c 0xb8
 252 86 299 135 299 188 c 2
408 319 m 1
 586 319 l 1
 578 394 548 431 496 431 c 0
 445 431 418 396 408 319 c 1
EndSplineSet
KernsSLIF: 121 -15 0 0 119 -6 0 0 118 -16 0 0
EndChar
StartChar: dotlessi
Encoding: 245 305 145
Width: 228
Flags: W
HStem: 0 21G<57 171> 512 20G<57 171>
VStem: 57 114<0 532>
Fore
57 532 m 1
 171 532 l 1
 171 0 l 1
 57 0 l 1
 57 532 l 1
EndSplineSet
EndChar
StartChar: lslash
Encoding: 248 322 146
Width: 228
Flags: W
HStem: 0 21G<56 170> 698 20G<56 170>
VStem: 56 114<0 395 402 718>
Fore
243 523 m 1
 243 445 l 1
 170 395 l 1
 170 0 l 1
 56 0 l 1
 56 324 l 1
 -15 274 l 1
 -15 352 l 1
 56 402 l 1
 56 718 l 1
 170 718 l 1
 170 473 l 1
 243 523 l 1
EndSplineSet
EndChar
StartChar: oslash
Encoding: 249 248 147
Width: 501
Flags: W
HStem: -14 118<241 259> 428 118<251 259>
VStem: 28 118<242 292> 356 118<242 292>
DStem: 78 77 106 44 18 0 49 -29 325 393 344 351 158 179 179 138 454 560 483 528 398 487 425 454
Fore
483 528 m 1
 425 454 l 1
 460 396 474 343 474 266 c 0
 474 96 386 -14 251 -14 c 0
 194 -14 151 3 106 44 c 1
 49 -29 l 1
 18 0 l 1
 78 77 l 1
 42 135 28 188 28 266 c 0
 28 436 115 546 251 546 c 0
 308 546 351 529 398 487 c 1
 454 560 l 1
 483 528 l 1
344 351 m 1
 179 138 l 1
 198 114 219 104 250 104 c 0
 319 104 356 161 356 267 c 0
 356 300 353 325 344 351 c 1
158 179 m 1
 325 393 l 1
 303 418 282 428 251 428 c 0
 183 428 146 371 146 267 c 0
 146 232 149 208 158 179 c 1
EndSplineSet
EndChar
StartChar: oe
Encoding: 250 339 148
Width: 774
Flags: W
HStem: -14 113<538 557> 227 92<452 748> 428 118<246 254>
VStem: 28 118<241 291>
Fore
625 157 m 1
 743 157 l 1
 724 91 707 60 670 29 c 0
 637 0 596 -14 547 -14 c 0
 479 -14 436 7 394 60 c 1
 356 8 314 -14 251 -14 c 0
 116 -14 28 97 28 267 c 0
 28 434 116 546 248 546 c 0
 310 546 359 520 401 466 c 1
 450 527 484 546 545 546 c 0
 674 546 748 439 748 252 c 2
 748 227 l 1
 449 227 l 1
 456 138 487 99 549 99 c 0
 588 99 614 119 625 157 c 1
252 428 m 0
 183 428 146 372 146 265 c 0
 146 161 183 104 251 104 c 0
 319 104 356 161 356 266 c 0
 356 370 319 428 252 428 c 0
452 319 m 1
 630 319 l 1
 621 394 592 431 540 431 c 0
 489 431 462 396 452 319 c 1
EndSplineSet
EndChar
StartChar: germandbls
Encoding: 251 223 149
Width: 501
Flags: W
HStem: -14 115<253 277> 619 112<233 256>
VStem: 57 114<0 547> 327 115<528 547> 360 115<209 243>
Fore
229 -8 m 1xe8
 229 102 l 1
 233 102 l 2
 237 101 246 101 253 101 c 0
 323 101 360 143 360 224 c 0xe8
 360 308 328 339 235 347 c 1
 235 444 l 1
 305 447 327 467 327 530 c 0
 327 587 298 619 247 619 c 0
 200 619 171 585 171 530 c 2
 171 0 l 1
 57 0 l 1
 57 539 l 2
 57 657 132 731 250 731 c 0
 370 731 442 660 442 541 c 0xf0
 442 480 423 439 382 411 c 1
 450 369 475 321 475 231 c 0
 475 81 398 -14 277 -14 c 0
 263 -14 255 -13 229 -8 c 1xe8
EndSplineSet
EndChar
StartChar: Adieresis
Encoding: 256 196 150
Width: 592
Flags: W
HStem: 0 21G<16 146 442 576> 148 123<220 404> 698 20G<226 368> 800 115<165 268 325 428>
VStem: 165 103<800 915> 325 103<800 915>
DStem: 226 718 296 559 16 0 220 271 226 718 187 148 16 0 146 0
Fore
187 148 m 1
 146 0 l 1
 16 0 l 1
 226 718 l 1
 368 718 l 1
 576 0 l 1
 442 0 l 1
 404 148 l 1
 187 148 l 1
296 559 m 1
 220 271 l 1
 370 271 l 1
 296 559 l 1
268 915 m 1
 268 800 l 1
 165 800 l 1
 165 915 l 1
 268 915 l 1
428 915 m 1
 428 800 l 1
 325 800 l 1
 325 915 l 1
 428 915 l 1
EndSplineSet
KernsSLIF: 121 -27 0 0 119 -19 0 0 118 -29 0 0 117 -12 0 0 116 -12 0 0 39 -50 0 0 186 -47 0 0 113 -12 0 0 46 17 0 0 111 -14 0 0 45 7 0 0 172 -33 0 0 171 -35 0 0 103 -16 0 0 100 -11 0 0 44 17 0 0 99 -11 0 0 98 -1 0 0 97 -1 0 0 89 -69 0 0 87 -41 0 0 86 -50 0 0 85 -24 0 0 84 -62 0 0 81 -27 0 0 79 -27 0 0 71 -27 0 0 67 -26 0 0
Ligature: 0 0 'liga' A uni0308
EndChar
StartChar: Aacute
Encoding: 257 193 151
Width: 592
Flags: W
HStem: 0 21G<16 146 442 576> 148 123<220 404> 698 20G<226 368>
DStem: 226 718 296 559 16 0 220 271 226 718 187 148 16 0 146 0
Fore
187 148 m 1
 146 0 l 1
 16 0 l 1
 226 718 l 1
 368 718 l 1
 576 0 l 1
 442 0 l 1
 404 148 l 1
 187 148 l 1
296 559 m 1
 220 271 l 1
 370 271 l 1
 296 559 l 1
451 936 m 1
 331 790 l 1
 248 790 l 1
 325 936 l 1
 451 936 l 1
EndSplineSet
KernsSLIF: 121 -27 0 0 119 -19 0 0 118 -29 0 0 117 -12 0 0 116 -12 0 0 39 -50 0 0 113 -12 0 0 46 17 0 0 111 -14 0 0 45 7 0 0 172 -33 0 0 171 -35 0 0 103 -16 0 0 101 -7 0 0 100 -11 0 0 44 17 0 0 99 -11 0 0 98 -1 0 0 97 -1 0 0 89 -69 0 0 87 -41 0 0 86 -50 0 0 85 -24 0 0 84 -62 0 0 81 -27 0 0 79 -27 0 0 71 -27 0 0 67 -26 0 0
Ligature: 0 0 'liga' A acutecomb
EndChar
StartChar: Agrave
Encoding: 258 192 152
Width: 592
Flags: W
HStem: 0 21G<16 146 442 576> 148 123<220 404> 698 20G<226 368> 790 146<141 344>
DStem: 226 718 296 559 16 0 220 271 226 718 187 148 16 0 146 0
Fore
187 148 m 1
 146 0 l 1
 16 0 l 1
 226 718 l 1
 368 718 l 1
 576 0 l 1
 442 0 l 1
 404 148 l 1
 187 148 l 1
296 559 m 1
 220 271 l 1
 370 271 l 1
 296 559 l 1
261 790 m 1
 141 936 l 1
 267 936 l 1
 344 790 l 1
 261 790 l 1
EndSplineSet
KernsSLIF: 46 17 0 0 44 17 0 0 89 -69 0 0 87 -41 0 0 86 -50 0 0 85 -24 0 0 84 -62 0 0 81 -27 0 0 79 -27 0 0 71 -27 0 0 67 -26 0 0
Ligature: 0 0 'liga' A gravecomb
EndChar
StartChar: Acircumflex
Encoding: 259 194 153
Width: 592
Flags: W
HStem: 0 21G<16 146 442 576> 148 123<220 404> 698 20G<226 368> 790 146<244 244 244 440>
DStem: 226 718 296 559 16 0 220 271 226 718 187 148 16 0 146 0 244 936 295 872 151 790 244 790 295 872 347 936 347 790 440 790
Fore
187 148 m 1
 146 0 l 1
 16 0 l 1
 226 718 l 1
 368 718 l 1
 576 0 l 1
 442 0 l 1
 404 148 l 1
 187 148 l 1
296 559 m 1
 220 271 l 1
 370 271 l 1
 296 559 l 1
347 936 m 1
 440 790 l 1
 347 790 l 1
 295 872 l 1
 244 790 l 1
 151 790 l 1
 244 936 l 1
 347 936 l 1
EndSplineSet
KernsSLIF: 46 17 0 0 44 17 0 0 89 -69 0 0 87 -41 0 0 86 -50 0 0 85 -24 0 0 84 -62 0 0 81 -27 0 0 79 -27 0 0 71 -27 0 0 67 -26 0 0
Ligature: 0 0 'liga' A uni0302
EndChar
StartChar: Abreve
Encoding: 260 258 154
Width: 592
Flags: W
HStem: 0 21G<16 146 442 576> 148 123<220 404> 698 20G<226 368> 790 77<287 305>
DStem: 226 718 296 559 16 0 220 271 226 718 187 148 16 0 146 0
Fore
187 148 m 1
 146 0 l 1
 16 0 l 1
 226 718 l 1
 368 718 l 1
 576 0 l 1
 442 0 l 1
 404 148 l 1
 187 148 l 1
296 559 m 1
 220 271 l 1
 370 271 l 1
 296 559 l 1
382 936 m 1
 435 936 l 1
 425 839 376 790 292 790 c 0
 212 790 167 838 158 936 c 1
 212 936 l 1
 221 885 243 867 297 867 c 0
 350 867 371 884 382 936 c 1
EndSplineSet
Ligature: 0 0 'liga' A uni0306
EndChar
StartChar: Atilde
Encoding: 261 195 155
Width: 592
Flags: W
HStem: 0 21G<16 146 442 576> 148 123<220 404> 698 20G<226 368> 803 80<351 361> 839 80<234 245>
DStem: 226 718 296 559 16 0 220 271 226 718 187 148 16 0 146 0
Fore
187 148 m 1xe0
 146 0 l 1
 16 0 l 1
 226 718 l 1
 368 718 l 1
 576 0 l 1
 442 0 l 1
 404 148 l 1
 187 148 l 1xe0
296 559 m 1
 220 271 l 1
 370 271 l 1
 296 559 l 1
394 923 m 1
 447 923 l 1
 434 843 404 803 359 803 c 0xf0
 341 803 310 812 274 827 c 1
 256 836 244 839 236 839 c 0
 217 839 204 824 198 796 c 1
 146 796 l 1
 160 880 192 919 245 919 c 0xe8
 261 919 270 916 304 900 c 0
 333 887 344 883 355 883 c 0xf0
 376 883 387 895 394 923 c 1
EndSplineSet
KernsSLIF: 46 17 0 0 44 17 0 0 89 -69 0 0 87 -41 0 0 86 -50 0 0 85 -24 0 0 84 -62 0 0 81 -27 0 0 79 -27 0 0 71 -27 0 0 67 -26 0 0
Ligature: 0 0 'liga' A tildecomb
EndChar
StartChar: Aring
Encoding: 262 197 156
Width: 592
Flags: W
HStem: 0 21G<16 146 442 576> 148 123<220 404> 698 20G<226 368> 767 52<296 305> 923 52<294 305>
VStem: 208 46<871 881> 339 46<871 881>
DStem: 226 718 296 559 16 0 220 271 226 718 187 148 16 0 146 0
Fore
187 148 m 1
 146 0 l 1
 16 0 l 1
 226 718 l 1
 368 718 l 1
 576 0 l 1
 442 0 l 1
 404 148 l 1
 187 148 l 1
296 559 m 1
 220 271 l 1
 370 271 l 1
 296 559 l 1
298 975 m 0
 344 975 385 926 385 871 c 0
 385 816 344 767 296 767 c 0
 249 767 208 815 208 871 c 0
 208 927 249 975 298 975 c 0
297 923 m 0
 273 923 254 900 254 871 c 0
 254 842 273 819 296 819 c 0
 320 819 339 842 339 871 c 0
 339 899 320 923 297 923 c 0
EndSplineSet
KernsSLIF: 121 -27 0 0 119 -19 0 0 118 -29 0 0 117 -12 0 0 116 -12 0 0 39 -50 0 0 186 -47 0 0 113 -12 0 0 46 17 0 0 111 -14 0 0 45 7 0 0 172 -33 0 0 171 -35 0 0 103 -16 0 0 101 -7 0 0 100 -11 0 0 44 17 0 0 99 -11 0 0 98 -1 0 0 97 -1 0 0 89 -69 0 0 87 -41 0 0 86 -50 0 0 85 -24 0 0 84 -62 0 0 81 -27 0 0 79 -27 0 0 71 -27 0 0 67 -26 0 0
Ligature: 0 0 'liga' A uni030A
EndChar
StartChar: Aogonek
Encoding: 263 260 157
Width: 592
Flags: W
HStem: -228 57<521 534> -20 20G<442 507> 148 123<220 404> 698 20G<226 368>
VStem: 418 77<-134 -115>
DStem: 226 718 296 559 16 0 220 271 226 718 187 148 16 0 146 0
Fore
368 718 m 1
 576 0 l 1
 576 -4 l 1
 523 -42 495 -85 495 -125 c 0
 495 -150 512 -171 532 -171 c 0
 547 -171 569 -165 594 -155 c 1
 609 -204 l 1
 568 -222 548 -228 521 -228 c 0
 460 -228 418 -189 418 -132 c 0
 418 -92 436 -52 467 -26 c 1
 476 -17 483 -13 507 0 c 1
 442 0 l 1
 404 148 l 1
 187 148 l 1
 146 0 l 1
 16 0 l 1
 226 718 l 1
 368 718 l 1
296 559 m 1
 220 271 l 1
 370 271 l 1
 296 559 l 1
EndSplineSet
Ligature: 0 0 'liga' A uni0328
EndChar
StartChar: Ccedilla
Encoding: 264 199 158
Width: 592
Flags: W
HStem: -228 57<254 273> -96 45<268 305> -19 130<302 325> 607 130<298 325>
VStem: 36 125<331 381> 300 77<-140.158 -126>
Fore
302 -19 m 1
 281 -55 l 1
 291 -52 297 -51 305 -51 c 0
 347 -51 377 -83 377 -129 c 0
 377 -188 335 -228 273 -228 c 0
 245 -228 227 -223 181 -203 c 1
 199 -155 l 1
 229 -166 248 -171 261 -171 c 0
 283 -171 300 -153 300 -131 c 0
 300 -111 286 -96 268 -96 c 0
 261 -96 250 -99 236 -104 c 1
 219 -84 l 1
 256 -14 l 1
 116 13 36 148 36 357 c 0
 36 591 141 737 309 737 c 0
 402 737 479 691 524 610 c 0
 546 570 555 540 561 483 c 1
 438 483 l 1
 429 522 422 538 409 559 c 1
 388 589 353 607 312 607 c 0
 217 607 161 514 161 356 c 0
 161 203 216 111 308 111 c 0
 351 111 386 130 410 167 c 0
 423 188 429 206 438 246 c 1
 561 246 l 1
 533 73 442 -20 302 -19 c 1
EndSplineSet
KernsSLIF: 65 -21 0 0
Ligature: 0 0 'liga' C uni0327
EndChar
StartChar: Cacute
Encoding: 265 262 159
Width: 592
Flags: W
HStem: -19 130<291 325> 607 130<304 329>
VStem: 36 125<332 382>
Fore
561 483 m 1
 438 483 l 1
 429 522 422 538 409 559 c 1
 388 589 353 607 312 607 c 0
 217 607 161 514 161 356 c 0
 161 203 216 111 308 111 c 0
 351 111 386 130 410 167 c 0
 423 188 429 206 438 246 c 1
 561 246 l 1
 545 161 529 120 495 74 c 0
 450 13 384 -19 306 -19 c 0
 139 -19 36 124 36 357 c 0
 36 591 141 737 309 737 c 0
 402 737 479 691 524 610 c 0
 546 570 555 540 561 483 c 1
452 936 m 1
 332 790 l 1
 249 790 l 1
 326 936 l 1
 452 936 l 1
EndSplineSet
Ligature: 0 0 'liga' C acutecomb
EndChar
StartChar: Ccaron
Encoding: 266 268 160
Width: 592
Flags: W
HStem: -19 130<291 325> 607 130<295 325> 790 146<152 348>
VStem: 36 125<332 382>
DStem: 152 936 245 936 245 790 296 854 348 936 441 936 296 854 348 790
Fore
561 483 m 1
 438 483 l 1
 429 522 422 538 409 559 c 1
 388 589 353 607 312 607 c 0
 217 607 161 514 161 356 c 0
 161 203 216 111 308 111 c 0
 351 111 386 130 410 167 c 0
 423 188 429 206 438 246 c 1
 561 246 l 1
 545 161 529 120 495 74 c 0
 450 13 384 -19 306 -19 c 0
 139 -19 36 124 36 357 c 0
 36 591 141 737 309 737 c 0
 402 737 479 691 524 610 c 0
 546 570 555 540 561 483 c 1
441 936 m 1
 348 790 l 1
 245 790 l 1
 152 936 l 1
 245 936 l 1
 296 854 l 1
 348 936 l 1
 441 936 l 1
EndSplineSet
Ligature: 0 0 'liga' C uni030C
EndChar
StartChar: Dcaron
Encoding: 267 270 161
Width: 592
Flags: W
HStem: 0 123<182 317> 595 123<62 319> 790 146<152 348>
VStem: 62 120<0 595> 437 125<335 401>
DStem: 152 936 245 936 245 790 296 854 348 936 441 936 296 854 348 790
Fore
62 0 m 1
 62 718 l 1
 322 718 l 2
 474 718 562 592 562 374 c 0
 562 250 532 144 478 75 c 0
 439 27 382 0 317 0 c 2
 62 0 l 1
182 595 m 1
 182 123 l 1
 302 123 l 2
 387 123 437 214 437 370 c 0
 437 455 421 520 391 557 c 0
 370 582 340 595 300 595 c 2
 182 595 l 1
441 936 m 1
 348 790 l 1
 245 790 l 1
 152 936 l 1
 245 936 l 1
 296 854 l 1
 348 936 l 1
 441 936 l 1
EndSplineSet
Ligature: 0 0 'liga' D uni030C
EndChar
StartChar: Edieresis
Encoding: 268 203 162
Width: 547
Flags: W
HStem: 0 127<182 509> 313 127<182 470> 591 127<62 495> 800 115<142 245 302 405>
VStem: 62 120<0 313 0 591> 142 103<800 915> 302 103<800 915>
Fore
495 718 m 1xfa
 495 591 l 1
 182 591 l 1
 182 440 l 1
 470 440 l 1
 470 313 l 1
 182 313 l 1
 182 127 l 1
 509 127 l 1
 509 0 l 1
 62 0 l 1
 62 718 l 1
 495 718 l 1xfa
245 915 m 1xf6
 245 800 l 1
 142 800 l 1
 142 915 l 1
 245 915 l 1xf6
405 915 m 1
 405 800 l 1
 302 800 l 1
 302 915 l 1
 405 915 l 1
EndSplineSet
Ligature: 0 0 'liga' E uni0308
EndChar
StartChar: Eacute
Encoding: 269 201 163
Width: 547
Flags: W
HStem: 0 127<182 509> 313 127<182 470> 591 127<62 495>
VStem: 62 120<0 313 0 591>
Fore
495 718 m 1
 495 591 l 1
 182 591 l 1
 182 440 l 1
 470 440 l 1
 470 313 l 1
 182 313 l 1
 182 127 l 1
 509 127 l 1
 509 0 l 1
 62 0 l 1
 62 718 l 1
 495 718 l 1
428 936 m 1
 308 790 l 1
 225 790 l 1
 302 936 l 1
 428 936 l 1
EndSplineSet
Ligature: 0 0 'liga' E acutecomb
EndChar
StartChar: Egrave
Encoding: 270 200 164
Width: 547
Flags: W
HStem: 0 127<182 509> 313 127<182 470> 591 127<62 495> 790 146<118 321>
VStem: 62 120<0 313 0 591>
Fore
495 718 m 1
 495 591 l 1
 182 591 l 1
 182 440 l 1
 470 440 l 1
 470 313 l 1
 182 313 l 1
 182 127 l 1
 509 127 l 1
 509 0 l 1
 62 0 l 1
 62 718 l 1
 495 718 l 1
238 790 m 1
 118 936 l 1
 244 936 l 1
 321 790 l 1
 238 790 l 1
EndSplineSet
Ligature: 0 0 'liga' E gravecomb
EndChar
StartChar: Ecircumflex
Encoding: 271 202 165
Width: 547
Flags: W
HStem: 0 127<182 509> 313 127<182 470> 591 127<62 495> 790 146<221 221 221 417>
VStem: 62 120<0 313 0 591>
DStem: 221 936 272 872 128 790 221 790 272 872 324 936 324 790 417 790
Fore
495 718 m 1
 495 591 l 1
 182 591 l 1
 182 440 l 1
 470 440 l 1
 470 313 l 1
 182 313 l 1
 182 127 l 1
 509 127 l 1
 509 0 l 1
 62 0 l 1
 62 718 l 1
 495 718 l 1
324 936 m 1
 417 790 l 1
 324 790 l 1
 272 872 l 1
 221 790 l 1
 128 790 l 1
 221 936 l 1
 324 936 l 1
EndSplineSet
Ligature: 0 0 'liga' E uni0302
EndChar
StartChar: Ecaron
Encoding: 272 282 166
Width: 547
Flags: W
HStem: 0 127<182 509> 313 127<182 470> 591 127<62 495> 790 146<129 325>
VStem: 62 120<0 313 0 591>
DStem: 129 936 222 936 222 790 273 854 325 936 418 936 273 854 325 790
Fore
495 718 m 1
 495 591 l 1
 182 591 l 1
 182 440 l 1
 470 440 l 1
 470 313 l 1
 182 313 l 1
 182 127 l 1
 509 127 l 1
 509 0 l 1
 62 0 l 1
 62 718 l 1
 495 718 l 1
418 936 m 1
 325 790 l 1
 222 790 l 1
 129 936 l 1
 222 936 l 1
 273 854 l 1
 325 936 l 1
 418 936 l 1
EndSplineSet
Ligature: 0 0 'liga' E uni030C
EndChar
StartChar: Edotaccent
Encoding: 273 278 167
Width: 547
Flags: W
HStem: 0 127<182 509> 313 127<182 470> 591 127<62 495>
VStem: 62 120<0 313 0 591> 222 104<800 915>
Fore
495 718 m 1
 495 591 l 1
 182 591 l 1
 182 440 l 1
 470 440 l 1
 470 313 l 1
 182 313 l 1
 182 127 l 1
 509 127 l 1
 509 0 l 1
 62 0 l 1
 62 718 l 1
 495 718 l 1
326 915 m 1
 326 800 l 1
 222 800 l 1
 222 915 l 1
 326 915 l 1
EndSplineSet
Ligature: 0 0 'liga' E uni0307
EndChar
StartChar: Eogonek
Encoding: 274 280 168
Width: 547
Flags: W
HStem: -228 57<454 472> 0 127<182 440> 313 127<182 470> 591 127<62 495>
VStem: 62 120<0 313 0 591> 351 77<-134 -115>
Fore
495 718 m 1
 495 591 l 1
 182 591 l 1
 182 440 l 1
 470 440 l 1
 470 313 l 1
 182 313 l 1
 182 127 l 1
 509 127 l 1
 509 -4 l 1
 456 -42 428 -85 428 -125 c 0
 428 -150 445 -171 465 -171 c 0
 480 -171 502 -165 527 -155 c 1
 542 -204 l 1
 501 -222 481 -228 454 -228 c 0
 393 -228 351 -189 351 -132 c 0
 351 -92 369 -52 400 -26 c 1
 409 -17 416 -13 440 0 c 1
 62 0 l 1
 62 718 l 1
 495 718 l 1
EndSplineSet
Ligature: 0 0 'liga' E uni0328
EndChar
StartChar: Gbreve
Encoding: 275 286 169
Width: 638
Flags: W
HStem: -19 127<306 329> 265 122<338 476> 614 123<313 340> 790 77<304 330>
VStem: 36 125<354 387>
Fore
338 265 m 1
 338 387 l 1
 585 387 l 1
 585 0 l 1
 503 0 l 1
 490 90 l 1
 466 56 454 42 436 27 c 0
 401 -4 357 -19 306 -19 c 0
 145 -19 36 131 36 354 c 0
 36 588 148 737 324 737 c 0
 422 737 501 693 547 612 c 0
 568 575 576 547 583 495 c 1
 459 495 l 1
 447 565 392 614 327 614 c 0
 225 614 161 514 161 354 c 0
 161 198 222 108 327 108 c 0
 365 108 398 122 425 151 c 0
 450 178 462 205 476 265 c 1
 338 265 l 1
405 936 m 1
 458 936 l 1
 448 839 399 790 315 790 c 0
 235 790 190 838 181 936 c 1
 235 936 l 1
 244 885 266 867 320 867 c 0
 373 867 394 884 405 936 c 1
EndSplineSet
Ligature: 0 0 'liga' G uni0306
EndChar
StartChar: Idieresis
Encoding: 276 207 170
Width: 228
Flags: W
HStem: 0 21G<53 176> 698 20G<53 176> 800 115<-17 86 143 246>
VStem: -17 103<800 915> 53 123<0 718> 143 103<800 915>
Fore
176 718 m 1xe8
 176 0 l 1
 53 0 l 1
 53 718 l 1
 176 718 l 1xe8
86 915 m 1xf0
 86 800 l 1
 -17 800 l 1
 -17 915 l 1
 86 915 l 1xf0
246 915 m 1xe4
 246 800 l 1
 143 800 l 1
 143 915 l 1
 246 915 l 1xe4
EndSplineSet
Ligature: 0 0 'liga' I uni0308
EndChar
StartChar: Iacute
Encoding: 277 205 171
Width: 228
Flags: W
HStem: 0 21G<52 175> 698 20G<52 175>
VStem: 52 123<0 718>
Fore
175 718 m 1
 175 0 l 1
 52 0 l 1
 52 718 l 1
 175 718 l 1
270 936 m 1
 150 790 l 1
 67 790 l 1
 144 936 l 1
 270 936 l 1
EndSplineSet
Ligature: 0 0 'liga' I acutecomb
EndChar
StartChar: Igrave
Encoding: 278 204 172
Width: 228
Flags: W
HStem: 0 21G<52 175> 698 20G<52 175> 790 146<-41 162>
VStem: 52 123<0 718>
Fore
175 718 m 1
 175 0 l 1
 52 0 l 1
 52 718 l 1
 175 718 l 1
79 790 m 1
 -41 936 l 1
 85 936 l 1
 162 790 l 1
 79 790 l 1
EndSplineSet
Ligature: 0 0 'liga' I gravecomb
EndChar
StartChar: Icircumflex
Encoding: 279 206 173
Width: 228
Flags: W
HStem: 0 21G<53 176> 698 20G<53 176> 790 146<63 63 63 259>
VStem: 53 123<0 718>
DStem: 63 936 114 872 -30 790 63 790 114 872 166 936 166 790 259 790
Fore
176 718 m 1
 176 0 l 1
 53 0 l 1
 53 718 l 1
 176 718 l 1
166 936 m 1
 259 790 l 1
 166 790 l 1
 114 872 l 1
 63 790 l 1
 -30 790 l 1
 63 936 l 1
 166 936 l 1
EndSplineSet
Ligature: 0 0 'liga' I uni0302
EndChar
StartChar: Idotaccent
Encoding: 280 304 174
Width: 228
Flags: W
HStem: 0 21G<52 175> 698 20G<52 175>
VStem: 52 123<0 718> 63 104<800 915>
Fore
175 718 m 1xe0
 175 0 l 1
 52 0 l 1
 52 718 l 1
 175 718 l 1xe0
167 915 m 1xd0
 167 800 l 1
 63 800 l 1
 63 915 l 1
 167 915 l 1xd0
EndSplineSet
Ligature: 0 0 'liga' I uni0307
EndChar
StartChar: Lacute
Encoding: 281 313 175
Width: 501
Flags: W
HStem: 0 130<184 478> 698 20G<62 185>
VStem: 62 123<0 718>
Fore
185 718 m 1
 185 130 l 1
 478 130 l 1
 478 0 l 1
 62 0 l 1
 62 718 l 1
 185 718 l 1
306 936 m 1
 186 790 l 1
 103 790 l 1
 180 936 l 1
 306 936 l 1
EndSplineSet
Ligature: 0 0 'liga' L acutecomb
EndChar
StartChar: Lcaron
Encoding: 282 317 176
Width: 501
Flags: W
HStem: 0 130<184 478> 698 20G<62 185 323 431>
VStem: 62 123<0 718> 323 108<605 718> 386 45<599 615>
Fore
185 718 m 1xe0
 185 130 l 1
 478 130 l 1
 478 0 l 1
 62 0 l 1
 62 718 l 1
 185 718 l 1xe0
323 718 m 1xf0
 431 718 l 1
 431 615 l 2
 431 566 419 530 394 505 c 0
 375 486 347 472 323 471 c 1
 323 517 l 1xf0
 363 525 388 558 386 600 c 1
 386 606 l 1xe8
 323 606 l 1
 323 718 l 1xf0
EndSplineSet
Ligature: 0 0 'liga' L uni030C
EndChar
StartChar: Nacute
Encoding: 283 323 177
Width: 592
Flags: W
HStem: 0 21G<57 171 414 536> 698 20G<57 186 422 536>
VStem: 57 114<0 515> 422 114<214 718>
DStem: 171 515 186 718 414 0 422 214
Fore
422 214 m 1
 422 718 l 1
 536 718 l 1
 536 0 l 1
 414 0 l 1
 171 515 l 1
 171 0 l 1
 57 0 l 1
 57 718 l 1
 186 718 l 1
 422 214 l 1
452 936 m 1
 332 790 l 1
 249 790 l 1
 326 936 l 1
 452 936 l 1
EndSplineSet
Ligature: 0 0 'liga' N acutecomb
EndChar
StartChar: Ncaron
Encoding: 284 327 178
Width: 592
Flags: W
HStem: 0 21G<57 171 414 536> 698 20G<57 186 422 536> 790 146<152 348>
VStem: 57 114<0 515> 422 114<214 718>
DStem: 152 936 245 936 245 790 296 854 171 515 186 718 414 0 422 214 348 936 441 936 296 854 348 790
Fore
422 214 m 1
 422 718 l 1
 536 718 l 1
 536 0 l 1
 414 0 l 1
 171 515 l 1
 171 0 l 1
 57 0 l 1
 57 718 l 1
 186 718 l 1
 422 214 l 1
441 936 m 1
 348 790 l 1
 245 790 l 1
 152 936 l 1
 245 936 l 1
 296 854 l 1
 348 936 l 1
 441 936 l 1
EndSplineSet
Ligature: 0 0 'liga' N uni030C
EndChar
StartChar: Ntilde
Encoding: 285 209 179
Width: 592
Flags: W
HStem: 0 21G<57 171 414 536> 698 20G<57 186 422 536> 803 80<353 361> 839 80<232 245>
VStem: 57 114<0 515> 422 114<214 718>
DStem: 171 515 186 718 414 0 422 214
Fore
422 214 m 1xcc
 422 718 l 1
 536 718 l 1
 536 0 l 1
 414 0 l 1
 171 515 l 1
 171 0 l 1
 57 0 l 1
 57 718 l 1
 186 718 l 1
 422 214 l 1xcc
394 923 m 1
 447 923 l 1
 434 843 404 803 359 803 c 0xec
 341 803 310 812 274 827 c 1
 256 836 244 839 236 839 c 0
 217 839 204 824 198 796 c 1
 146 796 l 1
 160 880 192 919 245 919 c 0xdc
 261 919 270 916 304 900 c 0
 333 887 344 883 355 883 c 0xec
 376 883 387 895 394 923 c 1
EndSplineSet
Ligature: 0 0 'liga' N tildecomb
EndChar
StartChar: Odieresis
Encoding: 286 214 180
Width: 638
Flags: W
HStem: -19 127<319 325> 610 127<307 325> 800 115<188 291 348 451>
VStem: 36 123<332 382> 188 103<800 915> 348 103<800 915> 479 123<332 382>
Fore
323 737 m 0
 398 737 472 701 521 642 c 0
 574 578 602 480 602 359 c 0
 602 238 574 140 521 76 c 0
 472 16 398 -19 319 -19 c 0
 216 -19 126 39 79 135 c 0
 51 194 36 270 36 358 c 0
 36 480 64 578 117 642 c 0
 167 703 241 737 323 737 c 0
321 610 m 0
 220 610 159 516 159 361 c 0
 159 203 219 108 319 108 c 0
 419 108 479 203 479 362 c 0
 479 446 460 516 425 558 c 0
 399 591 360 610 321 610 c 0
291 915 m 1
 291 800 l 1
 188 800 l 1
 188 915 l 1
 291 915 l 1
451 915 m 1
 451 800 l 1
 348 800 l 1
 348 915 l 1
 451 915 l 1
EndSplineSet
KernsSLIF: 89 -38 0 0 88 -26 0 0 87 -17 0 0 86 -26 0 0 84 -9 0 0 65 -28 0 0
Ligature: 0 0 'liga' O uni0308
EndChar
StartChar: Oacute
Encoding: 287 211 181
Width: 638
Flags: W
HStem: -19 127<319 325> 610 127<307 325>
VStem: 36 123<332 382> 479 123<332 382>
Fore
323 737 m 0
 398 737 472 701 521 642 c 0
 574 578 602 480 602 359 c 0
 602 238 574 140 521 76 c 0
 472 16 398 -19 319 -19 c 0
 216 -19 126 39 79 135 c 0
 51 194 36 270 36 358 c 0
 36 480 64 578 117 642 c 0
 167 703 241 737 323 737 c 0
321 610 m 0
 220 610 159 516 159 361 c 0
 159 203 219 108 319 108 c 0
 419 108 479 203 479 362 c 0
 479 446 460 516 425 558 c 0
 399 591 360 610 321 610 c 0
474 936 m 1
 354 790 l 1
 271 790 l 1
 348 936 l 1
 474 936 l 1
EndSplineSet
KernsSLIF: 89 -38 0 0 87 -17 0 0 86 -26 0 0 84 -9 0 0 65 -28 0 0
Ligature: 0 0 'liga' O acutecomb
EndChar
StartChar: Ograve
Encoding: 288 210 182
Width: 638
Flags: W
HStem: -19 127<319 325> 610 127<307 325> 790 146<164 367>
VStem: 36 123<332 382> 479 123<332 382>
Fore
323 737 m 0
 398 737 472 701 521 642 c 0
 574 578 602 480 602 359 c 0
 602 238 574 140 521 76 c 0
 472 16 398 -19 319 -19 c 0
 216 -19 126 39 79 135 c 0
 51 194 36 270 36 358 c 0
 36 480 64 578 117 642 c 0
 167 703 241 737 323 737 c 0
321 610 m 0
 220 610 159 516 159 361 c 0
 159 203 219 108 319 108 c 0
 419 108 479 203 479 362 c 0
 479 446 460 516 425 558 c 0
 399 591 360 610 321 610 c 0
284 790 m 1
 164 936 l 1
 290 936 l 1
 367 790 l 1
 284 790 l 1
EndSplineSet
KernsSLIF: 89 -38 0 0 86 -26 0 0 84 -9 0 0
Ligature: 0 0 'liga' O gravecomb
EndChar
StartChar: Ocircumflex
Encoding: 289 212 183
Width: 638
Flags: W
HStem: -19 127<319 325> 610 127<307 325> 790 146<268 268 268 464>
VStem: 36 123<332 382> 479 123<332 382>
DStem: 268 936 319 872 175 790 268 790 319 872 371 936 371 790 464 790
Fore
323 737 m 0
 398 737 472 701 521 642 c 0
 574 578 602 480 602 359 c 0
 602 238 574 140 521 76 c 0
 472 16 398 -19 319 -19 c 0
 216 -19 126 39 79 135 c 0
 51 194 36 270 36 358 c 0
 36 480 64 578 117 642 c 0
 167 703 241 737 323 737 c 0
321 610 m 0
 220 610 159 516 159 361 c 0
 159 203 219 108 319 108 c 0
 419 108 479 203 479 362 c 0
 479 446 460 516 425 558 c 0
 399 591 360 610 321 610 c 0
371 936 m 1
 464 790 l 1
 371 790 l 1
 319 872 l 1
 268 790 l 1
 175 790 l 1
 268 936 l 1
 371 936 l 1
EndSplineSet
KernsSLIF: 89 -38 0 0 86 -26 0 0 84 -9 0 0
Ligature: 0 0 'liga' O uni0302
EndChar
StartChar: Otilde
Encoding: 290 213 184
Width: 638
Flags: W
HStem: -19 127<319 329> 610 127<307 329> 803 80<371 384> 839 80<257 268>
VStem: 36 123<332 382> 479 123<332 382>
Fore
323 737 m 0xcc
 398 737 472 701 521 642 c 0
 574 578 602 480 602 359 c 0
 602 238 574 140 521 76 c 0
 472 16 398 -19 319 -19 c 0
 216 -19 126 39 79 135 c 0
 51 194 36 270 36 358 c 0
 36 480 64 578 117 642 c 0
 167 703 241 737 323 737 c 0xcc
321 610 m 0
 220 610 159 516 159 361 c 0
 159 203 219 108 319 108 c 0
 419 108 479 203 479 362 c 0
 479 446 460 516 425 558 c 0
 399 591 360 610 321 610 c 0
417 923 m 1
 470 923 l 1
 457 843 427 803 382 803 c 0xec
 364 803 333 812 297 827 c 1
 279 836 267 839 259 839 c 0
 240 839 227 824 221 796 c 1
 169 796 l 1
 183 880 215 919 268 919 c 0xdc
 284 919 293 916 327 900 c 0
 356 887 367 883 378 883 c 0xec
 399 883 410 895 417 923 c 1
EndSplineSet
KernsSLIF: 89 -38 0 0 86 -26 0 0 84 -9 0 0
Ligature: 0 0 'liga' O tildecomb
EndChar
StartChar: Ohungarumlaut
Encoding: 291 336 185
Width: 638
Flags: W
HStem: -19 127<319 325> 610 127<307 325>
VStem: 36 123<332 382> 479 123<332 382>
Fore
323 737 m 0
 398 737 472 701 521 642 c 0
 574 578 602 480 602 359 c 0
 602 238 574 140 521 76 c 0
 472 16 398 -19 319 -19 c 0
 216 -19 126 39 79 135 c 0
 51 194 36 270 36 358 c 0
 36 480 64 578 117 642 c 0
 167 703 241 737 323 737 c 0
321 610 m 0
 220 610 159 516 159 361 c 0
 159 203 219 108 319 108 c 0
 419 108 479 203 479 362 c 0
 479 446 460 516 425 558 c 0
 399 591 360 610 321 610 c 0
394 936 m 1
 273 790 l 1
 190 790 l 1
 267 936 l 1
 394 936 l 1
582 936 m 1
 461 790 l 1
 378 790 l 1
 455 936 l 1
 582 936 l 1
EndSplineSet
Ligature: 0 0 'liga' O uni030B
EndChar
StartChar: Racute
Encoding: 292 340 186
Width: 592
Flags: W
HStem: 0 21G<62 182 419 555> 280 122<182 332> 595 123<62 351>
VStem: 62 120<0 280 0 595> 405 124<106 177> 422 123<495 516>
Fore
62 0 m 1xf8
 62 718 l 1
 359 718 l 2
 472 718 545 638 545 514 c 0xf4
 545 459 529 411 499 376 c 0
 487 362 477 355 454 344 c 1
 520 309 530 276 529 108 c 1
 530 45 534 29 555 19 c 1
 555 0 l 1
 419 0 l 1
 409 41 406 76 405 144 c 0
 405 208 402 231 392 248 c 0
 379 271 354 280 309 280 c 2
 182 280 l 1
 182 0 l 1
 62 0 l 1xf8
182 402 m 1
 327 402 l 2
 392 402 422 432 422 498 c 0
 422 560 391 595 336 595 c 2
 182 595 l 1
 182 402 l 1
452 936 m 1
 332 790 l 1
 249 790 l 1
 326 936 l 1
 452 936 l 1
EndSplineSet
Ligature: 0 0 'liga' R acutecomb
EndChar
StartChar: Rcaron
Encoding: 293 344 187
Width: 592
Flags: W
HStem: 0 21G<62 182 419 555> 280 122<182 329> 595 123<62 350> 790 146<152 348>
VStem: 62 120<0 280 0 595> 405 124<106 177> 422 123<495 516>
DStem: 152 936 245 936 245 790 296 854 348 936 441 936 296 854 348 790
Fore
62 0 m 1xfc
 62 718 l 1
 359 718 l 2
 472 718 545 638 545 514 c 0xfa
 545 459 529 411 499 376 c 0
 487 362 477 355 454 344 c 1
 520 309 530 276 529 108 c 1
 530 45 534 29 555 19 c 1
 555 0 l 1
 419 0 l 1
 409 41 406 76 405 144 c 0
 405 208 402 231 392 248 c 0
 379 271 354 280 309 280 c 2
 182 280 l 1
 182 0 l 1
 62 0 l 1xfc
182 402 m 1
 327 402 l 2
 392 402 422 432 422 498 c 0
 422 560 391 595 336 595 c 2
 182 595 l 1
 182 402 l 1
441 936 m 1
 348 790 l 1
 245 790 l 1
 152 936 l 1
 245 936 l 1
 296 854 l 1
 348 936 l 1
 441 936 l 1
EndSplineSet
Ligature: 0 0 'liga' R uni030C
EndChar
StartChar: Sacute
Encoding: 294 346 188
Width: 547
Flags: W
HStem: -19 123<259 293> 614 123<255 281>
VStem: 41 115<511 529> 398 118<188 214>
Fore
32 221 m 1
 150 221 l 1
 155 142 196 104 278 104 c 0
 354 104 398 138 398 196 c 0
 398 243 374 263 291 287 c 2
 228 305 l 2
 153 326 116 343 91 369 c 1
 58 401 41 450 41 512 c 0
 41 652 125 737 265 737 c 0
 406 737 488 655 497 505 c 1
 379 505 l 1
 370 581 334 614 261 614 c 0
 196 614 156 581 156 527 c 0
 156 486 173 466 218 452 c 2
 362 409 l 2
 472 376 516 320 516 214 c 0
 516 70 425 -19 277 -19 c 0
 174 -19 97 22 59 98 c 0
 41 134 34 163 32 221 c 1
429 936 m 1
 309 790 l 1
 226 790 l 1
 303 936 l 1
 429 936 l 1
EndSplineSet
Ligature: 0 0 'liga' S acutecomb
EndChar
StartChar: Scaron
Encoding: 295 352 189
Width: 547
Flags: W
HStem: -19 123<259 293> 614 123<255 281> 790 146<129 325>
VStem: 41 115<511 529> 398 118<188 214>
DStem: 129 936 222 936 222 790 273 854 325 936 418 936 273 854 325 790
Fore
32 221 m 1
 150 221 l 1
 155 142 196 104 278 104 c 0
 354 104 398 138 398 196 c 0
 398 243 374 263 291 287 c 2
 228 305 l 2
 153 326 116 343 91 369 c 1
 58 401 41 450 41 512 c 0
 41 652 125 737 265 737 c 0
 406 737 488 655 497 505 c 1
 379 505 l 1
 370 581 334 614 261 614 c 0
 196 614 156 581 156 527 c 0
 156 486 173 466 218 452 c 2
 362 409 l 2
 472 376 516 320 516 214 c 0
 516 70 425 -19 277 -19 c 0
 174 -19 97 22 59 98 c 0
 41 134 34 163 32 221 c 1
418 936 m 1
 325 790 l 1
 222 790 l 1
 129 936 l 1
 222 936 l 1
 273 854 l 1
 325 936 l 1
 418 936 l 1
EndSplineSet
Ligature: 0 0 'liga' S uni030C
EndChar
StartChar: Scedilla
Encoding: 296 350 190
Width: 547
Flags: W
HStem: -228 57<234 254> -96 200<249 278> -19 123<278 300.219> 614 123<242 282>
VStem: 41 115<511 529> 281 77<-134 -127> 398 118<194 214>
Fore
282 -19 m 1xbe
 262 -55 l 1
 272 -52 278 -51 286 -51 c 0
 328 -51 358 -83 358 -129 c 0
 358 -188 316 -228 254 -228 c 0
 226 -228 207 -223 162 -203 c 1
 180 -155 l 1
 210 -166 229 -171 242 -171 c 0
 263 -171 281 -153 281 -132 c 0
 281 -112 267 -96 249 -96 c 0
 242 -96 232 -99 217 -104 c 1
 200 -84 l 1
 236 -16 l 1
 106 0 34 84 32 221 c 1
 150 221 l 1
 155 142 196 104 278 104 c 0xde
 354 104 398 138 398 196 c 0
 398 243 374 263 291 287 c 2
 228 305 l 2
 153 326 116 343 91 369 c 1
 58 401 41 450 41 512 c 0
 41 652 125 737 265 737 c 0
 406 737 488 655 497 505 c 1
 379 505 l 1
 370 581 334 614 261 614 c 0
 196 614 156 581 156 527 c 0
 156 486 173 466 218 452 c 2
 362 409 l 2
 472 376 516 320 516 214 c 0
 516 71 429 -16 282 -19 c 1xbe
EndSplineSet
Ligature: 0 0 'liga' S uni0327
EndChar
StartChar: Tcaron
Encoding: 297 356 191
Width: 501
Flags: W
HStem: 0 21G<189 312> 591 127<11 189 11 490> 790 146<106 302>
VStem: 189 123<0 591>
DStem: 106 936 199 936 199 790 250 854 302 936 395 936 250 854 302 790
Fore
312 591 m 1
 312 0 l 1
 189 0 l 1
 189 591 l 1
 11 591 l 1
 11 718 l 1
 490 718 l 1
 490 591 l 1
 312 591 l 1
395 936 m 1
 302 790 l 1
 199 790 l 1
 106 936 l 1
 199 936 l 1
 250 854 l 1
 302 936 l 1
 395 936 l 1
EndSplineSet
Ligature: 0 0 'liga' T uni030C
EndChar
StartChar: Udieresis
Encoding: 298 220 192
Width: 592
Flags: W
HStem: -19 127<295 300> 698 20G<59 184 409 534> 800 115<165 268 325 428>
VStem: 59 125<236 718> 165 103<800 915> 325 103<800 915> 409 125<236 718>
Fore
534 718 m 1xf2
 534 251 l 2
 534 75 451 -19 295 -19 c 0
 145 -19 59 76 59 242 c 2
 59 718 l 1
 184 718 l 1
 184 252 l 2
 184 160 224 108 295 108 c 0
 369 108 409 156 409 245 c 2
 409 718 l 1
 534 718 l 1xf2
268 915 m 1xe8
 268 800 l 1
 165 800 l 1
 165 915 l 1
 268 915 l 1xe8
428 915 m 1xe4
 428 800 l 1
 325 800 l 1
 325 915 l 1
 428 915 l 1xe4
EndSplineSet
KernsSLIF: 114 4 0 0 46 -3 0 0 112 4 0 0 110 3 0 0 109 4 0 0 44 -6 0 0 98 4 0 0 65 -24 0 0
Ligature: 0 0 'liga' U uni0308
EndChar
StartChar: Uacute
Encoding: 299 218 193
Width: 592
Flags: W
HStem: -19 127<295 300> 698 20G<59 184 409 534>
VStem: 59 125<236 718> 409 125<236 718>
Fore
534 718 m 1
 534 251 l 2
 534 75 451 -19 295 -19 c 0
 145 -19 59 76 59 242 c 2
 59 718 l 1
 184 718 l 1
 184 252 l 2
 184 160 224 108 295 108 c 0
 369 108 409 156 409 245 c 2
 409 718 l 1
 534 718 l 1
452 936 m 1
 332 790 l 1
 249 790 l 1
 326 936 l 1
 452 936 l 1
EndSplineSet
KernsSLIF: 114 4 0 0 46 -3 0 0 112 4 0 0 110 3 0 0 109 4 0 0 44 -6 0 0 65 -24 0 0
Ligature: 0 0 'liga' U acutecomb
EndChar
StartChar: Ugrave
Encoding: 300 217 194
Width: 592
Flags: W
HStem: -19 127<295 300> 698 20G<59 184 409 534> 790 146<141 344>
VStem: 59 125<236 718> 409 125<236 718>
Fore
534 718 m 1
 534 251 l 2
 534 75 451 -19 295 -19 c 0
 145 -19 59 76 59 242 c 2
 59 718 l 1
 184 718 l 1
 184 252 l 2
 184 160 224 108 295 108 c 0
 369 108 409 156 409 245 c 2
 409 718 l 1
 534 718 l 1
261 790 m 1
 141 936 l 1
 267 936 l 1
 344 790 l 1
 261 790 l 1
EndSplineSet
KernsSLIF: 65 -24 0 0
Ligature: 0 0 'liga' U gravecomb
EndChar
StartChar: Ucircumflex
Encoding: 301 219 195
Width: 592
Flags: W
HStem: -19 127<295 299> 698 20G<59 184 409 534> 790 146<245 245 245 441>
VStem: 59 125<236 718> 409 125<236 718>
DStem: 245 936 296 872 152 790 245 790 296 872 348 936 348 790 441 790
Fore
534 718 m 1
 534 251 l 2
 534 75 451 -19 295 -19 c 0
 145 -19 59 76 59 242 c 2
 59 718 l 1
 184 718 l 1
 184 252 l 2
 184 160 224 108 295 108 c 0
 369 108 409 156 409 245 c 2
 409 718 l 1
 534 718 l 1
348 936 m 1
 441 790 l 1
 348 790 l 1
 296 872 l 1
 245 790 l 1
 152 790 l 1
 245 936 l 1
 348 936 l 1
EndSplineSet
KernsSLIF: 65 -24 0 0
Ligature: 0 0 'liga' U uni0302
EndChar
StartChar: Uring
Encoding: 302 366 196
Width: 592
Flags: W
HStem: -19 127<295 299> 698 20G<59 184 409 534> 754 52<295 299> 910 52<293 299>
VStem: 59 125<236 718> 207 46<846.618 861> 338 46<846.618 861> 409 125<236 718>
Fore
534 718 m 1
 534 251 l 2
 534 75 451 -19 295 -19 c 0
 145 -19 59 76 59 242 c 2
 59 718 l 1
 184 718 l 1
 184 252 l 2
 184 160 224 108 295 108 c 0
 369 108 409 156 409 245 c 2
 409 718 l 1
 534 718 l 1
297 962 m 0
 343 962 384 913 384 858 c 0
 384 803 343 754 295 754 c 0
 248 754 207 802 207 858 c 0
 207 914 248 962 297 962 c 0
296 910 m 0
 272 910 253 887 253 858 c 0
 253 829 272 806 295 806 c 0
 319 806 338 829 338 858 c 0
 338 886 319 910 296 910 c 0
EndSplineSet
Ligature: 0 0 'liga' U uni030A
EndChar
StartChar: Uhungarumlaut
Encoding: 303 368 197
Width: 592
Flags: W
HStem: -19 127<295 300> 698 20G<59 184 409 534>
VStem: 59 125<236 718> 409 125<236 718>
Fore
534 718 m 1
 534 251 l 2
 534 75 451 -19 295 -19 c 0
 145 -19 59 76 59 242 c 2
 59 718 l 1
 184 718 l 1
 184 252 l 2
 184 160 224 108 295 108 c 0
 369 108 409 156 409 245 c 2
 409 718 l 1
 534 718 l 1
371 936 m 1
 250 790 l 1
 167 790 l 1
 244 936 l 1
 371 936 l 1
559 936 m 1
 438 790 l 1
 355 790 l 1
 432 936 l 1
 559 936 l 1
EndSplineSet
Ligature: 0 0 'liga' U uni030B
EndChar
StartChar: Yacute
Encoding: 304 221 198
Width: 547
Flags: W
HStem: 0 21G<215 338> 698 20G<12 157 396 535>
VStem: 215 123<0 269>
Fore
338 269 m 1
 338 0 l 1
 215 0 l 1
 215 271 l 1
 12 718 l 1
 157 718 l 1
 279 406 l 1
 396 718 l 1
 535 718 l 1
 338 269 l 1
428 936 m 1
 308 790 l 1
 225 790 l 1
 302 936 l 1
 428 936 l 1
EndSplineSet
Ligature: 0 0 'liga' Y acutecomb
EndChar
StartChar: Zacute
Encoding: 305 377 199
Width: 501
Flags: W
HStem: 0 127<170 481> 591 127<28 325>
DStem: 325 591 479 600 20 127 170 127
Fore
481 127 m 1
 481 0 l 1
 20 0 l 1
 20 127 l 1
 325 591 l 1
 28 591 l 1
 28 718 l 1
 479 718 l 1
 479 600 l 1
 170 127 l 1
 481 127 l 1
406 936 m 1
 286 790 l 1
 203 790 l 1
 280 936 l 1
 406 936 l 1
EndSplineSet
Ligature: 0 0 'liga' Z acutecomb
EndChar
StartChar: Zcaron
Encoding: 306 381 200
Width: 501
Flags: W
HStem: 0 127<170 481> 591 127<28 325> 790 146<105 301>
DStem: 105 936 198 936 198 790 249 854 301 936 394 936 249 854 301 790 325 591 479 600 20 127 170 127
Fore
481 127 m 1
 481 0 l 1
 20 0 l 1
 20 127 l 1
 325 591 l 1
 28 591 l 1
 28 718 l 1
 479 718 l 1
 479 600 l 1
 170 127 l 1
 481 127 l 1
394 936 m 1
 301 790 l 1
 198 790 l 1
 105 936 l 1
 198 936 l 1
 249 854 l 1
 301 936 l 1
 394 936 l 1
EndSplineSet
Ligature: 0 0 'liga' Z uni030C
EndChar
StartChar: Zdotaccent
Encoding: 307 379 201
Width: 501
Flags: W
HStem: 0 127<170 481> 591 127<28 325>
VStem: 199 104<800 915>
DStem: 325 591 479 600 20 127 170 127
Fore
481 127 m 1
 481 0 l 1
 20 0 l 1
 20 127 l 1
 325 591 l 1
 28 591 l 1
 28 718 l 1
 479 718 l 1
 479 600 l 1
 170 127 l 1
 481 127 l 1
303 915 m 1
 303 800 l 1
 199 800 l 1
 199 915 l 1
 303 915 l 1
EndSplineSet
Ligature: 0 0 'liga' Z uni0307
EndChar
StartChar: Amacron
Encoding: 308 256 202
Width: 592
Flags: W
HStem: 0 21G<16 146 442 576> 148 123<220 404> 698 20G<226 368> 791 73<155 438>
DStem: 226 718 296 559 16 0 220 271 226 718 187 148 16 0 146 0
Fore
187 148 m 1
 146 0 l 1
 16 0 l 1
 226 718 l 1
 368 718 l 1
 576 0 l 1
 442 0 l 1
 404 148 l 1
 187 148 l 1
296 559 m 1
 220 271 l 1
 370 271 l 1
 296 559 l 1
438 864 m 1
 438 791 l 1
 155 791 l 1
 155 864 l 1
 438 864 l 1
EndSplineSet
Ligature: 0 0 'liga' A uni0304
EndChar
StartChar: Tcommaaccent
Encoding: 309 354 203
Width: 501
Flags: W
HStem: 0 21G<189 312> 591 127<11 189 11 490>
VStem: 189 123<0 591> 197 108<-173 -60> 260 45<-179 -163>
Fore
312 591 m 1xe0
 312 0 l 1
 189 0 l 1
 189 591 l 1
 11 591 l 1
 11 718 l 1
 490 718 l 1
 490 591 l 1
 312 591 l 1xe0
197 -60 m 1xd0
 305 -60 l 1
 305 -163 l 2
 305 -212 293 -248 268 -273 c 0
 249 -292 221 -306 197 -307 c 1
 197 -261 l 1xd0
 237 -253 262 -220 260 -178 c 1
 260 -172 l 1xc8
 197 -172 l 1
 197 -60 l 1xd0
EndSplineSet
Ligature: 0 0 'liga' T uni0327
EndChar
StartChar: Ydieresis
Encoding: 310 376 204
Width: 547
Flags: W
HStem: 0 21G<215 338> 698 20G<12 157 396 535> 800 115<142 245 302 405>
VStem: 142 103<800 915> 215 123<0 269> 302 103<800 915>
Fore
338 269 m 1xe8
 338 0 l 1
 215 0 l 1
 215 271 l 1
 12 718 l 1
 157 718 l 1
 279 406 l 1
 396 718 l 1
 535 718 l 1
 338 269 l 1xe8
245 915 m 1xf0
 245 800 l 1
 142 800 l 1
 142 915 l 1
 245 915 l 1xf0
405 915 m 1xe4
 405 800 l 1
 302 800 l 1
 302 915 l 1
 405 915 l 1xe4
EndSplineSet
Ligature: 0 0 'liga' Y uni0308
EndChar
StartChar: Emacron
Encoding: 311 274 205
Width: 547
Flags: W
HStem: 0 127<182 509> 313 127<182 470> 591 127<62 495> 791 73<132 415>
VStem: 62 120<0 313 0 591>
Fore
495 718 m 1
 495 591 l 1
 182 591 l 1
 182 440 l 1
 470 440 l 1
 470 313 l 1
 182 313 l 1
 182 127 l 1
 509 127 l 1
 509 0 l 1
 62 0 l 1
 62 718 l 1
 495 718 l 1
415 864 m 1
 415 791 l 1
 132 791 l 1
 132 864 l 1
 415 864 l 1
EndSplineSet
Ligature: 0 0 'liga' E uni0304
EndChar
StartChar: Imacron
Encoding: 312 298 206
Width: 228
Flags: W
HStem: 0 21G<52 175> 698 20G<52 175> 791 73<-28 255>
VStem: 52 123<0 718>
Fore
175 718 m 1
 175 0 l 1
 52 0 l 1
 52 718 l 1
 175 718 l 1
255 864 m 1
 255 791 l 1
 -28 791 l 1
 -28 864 l 1
 255 864 l 1
EndSplineSet
Ligature: 0 0 'liga' I uni0304
EndChar
StartChar: Iogonek
Encoding: 313 302 207
Width: 228
Flags: W
HStem: -228 57<120 133> -20 20G<52 106> 698 20G<52 175>
VStem: 52 123<-1 718>
Fore
175 718 m 1
 175 -4 l 1
 122 -42 94 -85 94 -125 c 0
 94 -150 111 -171 131 -171 c 0
 146 -171 168 -165 193 -155 c 1
 208 -204 l 1
 167 -222 147 -228 120 -228 c 0
 59 -228 17 -189 17 -132 c 0
 17 -92 35 -52 66 -26 c 1
 75 -17 82 -13 106 0 c 1
 52 0 l 1
 52 718 l 1
 175 718 l 1
EndSplineSet
Ligature: 0 0 'liga' I uni0328
EndChar
StartChar: Kcommaaccent
Encoding: 314 310 208
Width: 592
Flags: W
HStem: 0 21G<71 194 434 592> 698 20G<71 194 419 578>
VStem: 71 123<0 243 0 718> 242 108<-173 -60> 305 45<-179 -163>
DStem: 251 315 338 424 434 0 592 0
Fore
194 243 m 1xe0
 194 0 l 1
 71 0 l 1
 71 718 l 1
 194 718 l 1
 194 426 l 1
 419 718 l 1
 578 718 l 1
 338 424 l 1
 592 0 l 1
 434 0 l 1
 251 315 l 1
 194 243 l 1xe0
242 -60 m 1xf0
 350 -60 l 1
 350 -163 l 2
 350 -212 338 -248 313 -273 c 0
 294 -292 266 -306 242 -307 c 1
 242 -261 l 1xf0
 282 -253 307 -220 305 -178 c 1
 305 -172 l 1xe8
 242 -172 l 1
 242 -60 l 1xf0
EndSplineSet
Ligature: 0 0 'liga' K uni0327
EndChar
StartChar: Lcommaaccent
Encoding: 315 315 209
Width: 501
Flags: W
HStem: 0 130<184 478> 698 20G<62 185>
VStem: 62 123<0 718> 197 108<-173 -60> 260 45<-179 -163>
Fore
185 718 m 1xe0
 185 130 l 1
 478 130 l 1
 478 0 l 1
 62 0 l 1
 62 718 l 1
 185 718 l 1xe0
197 -60 m 1xf0
 305 -60 l 1
 305 -163 l 2
 305 -212 293 -248 268 -273 c 0
 249 -292 221 -306 197 -307 c 1
 197 -261 l 1xf0
 237 -253 262 -220 260 -178 c 1
 260 -172 l 1xe8
 197 -172 l 1
 197 -60 l 1xf0
EndSplineSet
Ligature: 0 0 'liga' L uni0327
EndChar
StartChar: Ncommaaccent
Encoding: 316 325 210
Width: 592
Flags: W
HStem: 0 21G<57 171 414 536> 698 20G<57 186 422 536>
VStem: 57 114<0 515> 242 108<-173 -60> 305 45<-179 -163> 422 114<214 718>
DStem: 171 515 186 718 414 0 422 214
Fore
422 214 m 1xe4
 422 718 l 1
 536 718 l 1
 536 0 l 1
 414 0 l 1
 171 515 l 1
 171 0 l 1
 57 0 l 1
 57 718 l 1
 186 718 l 1
 422 214 l 1xe4
242 -60 m 1xf4
 350 -60 l 1
 350 -163 l 2
 350 -212 338 -248 313 -273 c 0
 294 -292 266 -306 242 -307 c 1
 242 -261 l 1xf4
 282 -253 307 -220 305 -178 c 1
 305 -172 l 1xec
 242 -172 l 1
 242 -60 l 1xf4
EndSplineSet
Ligature: 0 0 'liga' N uni0327
EndChar
StartChar: Omacron
Encoding: 317 332 211
Width: 638
Flags: W
HStem: -19 127<319 325> 610 127<307 325> 791 73<178 461>
VStem: 36 123<332 382> 479 123<332 382>
Fore
323 737 m 0
 398 737 472 701 521 642 c 0
 574 578 602 480 602 359 c 0
 602 238 574 140 521 76 c 0
 472 16 398 -19 319 -19 c 0
 216 -19 126 39 79 135 c 0
 51 194 36 270 36 358 c 0
 36 480 64 578 117 642 c 0
 167 703 241 737 323 737 c 0
321 610 m 0
 220 610 159 516 159 361 c 0
 159 203 219 108 319 108 c 0
 419 108 479 203 479 362 c 0
 479 446 460 516 425 558 c 0
 399 591 360 610 321 610 c 0
461 864 m 1
 461 791 l 1
 178 791 l 1
 178 864 l 1
 461 864 l 1
EndSplineSet
Ligature: 0 0 'liga' O uni0304
EndChar
StartChar: Rcommaaccent
Encoding: 318 342 212
Width: 592
Flags: W
HStem: 0 21G<62 182 419 555> 280 122<182 329> 595 123<62 352>
VStem: 62 120<0 280 0 595> 242 108<-173 -60> 305 45<-179 -163> 405 124<106 190> 422 123<492 516>
Fore
62 0 m 1xf2
 62 718 l 1
 359 718 l 2
 472 718 545 638 545 514 c 0xf1
 545 459 529 411 499 376 c 0
 487 362 477 355 454 344 c 1
 520 309 530 276 529 108 c 1
 530 45 534 29 555 19 c 1
 555 0 l 1
 419 0 l 1
 409 41 406 76 405 144 c 0
 405 208 402 231 392 248 c 0
 379 271 354 280 309 280 c 2
 182 280 l 1
 182 0 l 1
 62 0 l 1xf2
182 402 m 1
 327 402 l 2
 392 402 422 432 422 498 c 0
 422 560 391 595 336 595 c 2
 182 595 l 1
 182 402 l 1
242 -60 m 1xf8
 350 -60 l 1
 350 -163 l 2
 350 -212 338 -248 313 -273 c 0
 294 -292 266 -306 242 -307 c 1
 242 -261 l 1xf8
 282 -253 307 -220 305 -178 c 1
 305 -172 l 1xf4
 242 -172 l 1
 242 -60 l 1xf8
EndSplineSet
Ligature: 0 0 'liga' R uni0327
EndChar
StartChar: Gcommaaccent
Encoding: 319 290 213
Width: 638
Flags: W
HStem: -19 127<306 329> 265 122<338 476> 614 123<322 340>
VStem: 36 125<354 387> 265 108<-173 -60> 328 45<-179 -163>
Fore
338 265 m 1xf0
 338 387 l 1
 585 387 l 1
 585 0 l 1
 503 0 l 1
 490 90 l 1
 466 56 454 42 436 27 c 0
 401 -4 357 -19 306 -19 c 0
 145 -19 36 131 36 354 c 0
 36 588 148 737 324 737 c 0
 422 737 501 693 547 612 c 0
 568 575 576 547 583 495 c 1
 459 495 l 1
 447 565 392 614 327 614 c 0
 225 614 161 514 161 354 c 0
 161 198 222 108 327 108 c 0
 365 108 398 122 425 151 c 0
 450 178 462 205 476 265 c 1
 338 265 l 1xf0
265 -60 m 1xf8
 373 -60 l 1
 373 -163 l 2
 373 -212 361 -248 336 -273 c 0
 317 -292 289 -306 265 -307 c 1
 265 -261 l 1xf8
 305 -253 330 -220 328 -178 c 1
 328 -172 l 1xf4
 265 -172 l 1
 265 -60 l 1xf8
EndSplineSet
Ligature: 0 0 'liga' G uni0327
EndChar
StartChar: Umacron
Encoding: 320 362 214
Width: 592
Flags: W
HStem: -19 127<295 300> 698 20G<59 184 409 534> 791 73<155 438>
VStem: 59 125<236 718> 409 125<236 718>
Fore
534 718 m 1
 534 251 l 2
 534 75 451 -19 295 -19 c 0
 145 -19 59 76 59 242 c 2
 59 718 l 1
 184 718 l 1
 184 252 l 2
 184 160 224 108 295 108 c 0
 369 108 409 156 409 245 c 2
 409 718 l 1
 534 718 l 1
438 864 m 1
 438 791 l 1
 155 791 l 1
 155 864 l 1
 438 864 l 1
EndSplineSet
Ligature: 0 0 'liga' U uni0304
EndChar
StartChar: Uogonek
Encoding: 321 370 215
Width: 592
Flags: W
HStem: -228 57<400 414> -19 127<295 299> 698 20G<59 184 409 534>
VStem: 59 125<235 717> 297 77<-134 -115> 409 125<235 717>
Fore
184 718 m 1
 184 252 l 2
 184 160 224 108 295 108 c 0
 369 108 409 156 409 245 c 2
 409 718 l 1
 534 718 l 1
 534 251 l 2
 534 187 521 126 500 88 c 0
 489 69 489 69 433 1 c 0
 394 -48 374 -90 374 -126 c 0
 374 -150 391 -171 412 -171 c 0
 426 -171 448 -165 474 -155 c 1
 489 -204 l 1
 448 -222 427 -228 400 -228 c 0
 339 -228 297 -189 297 -132 c 0
 297 -82 323 -37 368 -11 c 1
 342 -17 321 -19 295 -19 c 0
 145 -19 59 76 59 242 c 2
 59 718 l 1
 184 718 l 1
EndSplineSet
Ligature: 0 0 'liga' U uni0328
EndChar
StartChar: adieresis
Encoding: 322 228 216
Width: 456
Flags: W
HStem: -14 100<160 194> 434 112<215 233> 614 115<97 200 257 360>
VStem: 24 115<140 163> 97 103<614 729> 257 103<614 729> 295 112<177 392>
Fore
148 360 m 1xf2
 38 360 l 1
 44 419 53 447 72 478 c 1
 103 524 154 546 229 546 c 0
 342 546 407 489 407 392 c 2
 407 104 l 2
 407 52 413 31 432 21 c 1
 432 0 l 1
 309 0 l 1
 302 26 301 34 298 63 c 1
 253 6 216 -14 160 -14 c 0
 76 -14 24 46 24 142 c 0
 24 235 70 296 152 311 c 2
 255 330 l 2
 283 335 295 349 295 374 c 0
 295 414 271 434 224 434 c 0
 175 434 155 414 148 360 c 1xf2
295 191 m 2
 295 259 l 1
 280 245 263 239 217 230 c 0
 160 218 139 197 139 151 c 0
 139 111 160 86 194 86 c 0
 250 86 295 133 295 191 c 2
200 729 m 1xe8
 200 614 l 1
 97 614 l 1
 97 729 l 1
 200 729 l 1xe8
360 729 m 1xe4
 360 614 l 1
 257 614 l 1
 257 729 l 1
 360 729 l 1xe4
EndSplineSet
KernsSLIF: 121 -13 0 0 119 -6 0 0 118 -15 0 0
Ligature: 0 0 'liga' a uni0308
EndChar
StartChar: aacute
Encoding: 323 225 217
Width: 456
Flags: W
HStem: -14 100<160 194> 434 112<215 233>
VStem: 24 115<140 163> 295 112<177 392>
Fore
148 360 m 1
 38 360 l 1
 44 419 53 447 72 478 c 1
 103 524 154 546 229 546 c 0
 342 546 407 489 407 392 c 2
 407 104 l 2
 407 52 413 31 432 21 c 1
 432 0 l 1
 309 0 l 1
 302 26 301 34 298 63 c 1
 253 6 216 -14 160 -14 c 0
 76 -14 24 46 24 142 c 0
 24 235 70 296 152 311 c 2
 255 330 l 2
 283 335 295 349 295 374 c 0
 295 414 271 434 224 434 c 0
 175 434 155 414 148 360 c 1
295 191 m 2
 295 259 l 1
 280 245 263 239 217 230 c 0
 160 218 139 197 139 151 c 0
 139 111 160 86 194 86 c 0
 250 86 295 133 295 191 c 2
383 750 m 1
 263 604 l 1
 180 604 l 1
 257 750 l 1
 383 750 l 1
EndSplineSet
KernsSLIF: 121 -13 0 0 119 -6 0 0 118 -15 0 0
Ligature: 0 0 'liga' a acutecomb
EndChar
StartChar: agrave
Encoding: 324 224 218
Width: 456
Flags: W
HStem: -14 100<160 194> 434 112<215 233> 604 146<73 276>
VStem: 24 115<140 163> 295 112<177 392>
Fore
148 360 m 1
 38 360 l 1
 44 419 53 447 72 478 c 1
 103 524 154 546 229 546 c 0
 342 546 407 489 407 392 c 2
 407 104 l 2
 407 52 413 31 432 21 c 1
 432 0 l 1
 309 0 l 1
 302 26 301 34 298 63 c 1
 253 6 216 -14 160 -14 c 0
 76 -14 24 46 24 142 c 0
 24 235 70 296 152 311 c 2
 255 330 l 2
 283 335 295 349 295 374 c 0
 295 414 271 434 224 434 c 0
 175 434 155 414 148 360 c 1
295 191 m 2
 295 259 l 1
 280 245 263 239 217 230 c 0
 160 218 139 197 139 151 c 0
 139 111 160 86 194 86 c 0
 250 86 295 133 295 191 c 2
193 604 m 1
 73 750 l 1
 199 750 l 1
 276 604 l 1
 193 604 l 1
EndSplineSet
KernsSLIF: 121 -13 0 0 119 -6 0 0 118 -15 0 0
Ligature: 0 0 'liga' a gravecomb
EndChar
StartChar: acircumflex
Encoding: 325 226 219
Width: 456
Flags: W
HStem: -14 100<160 194> 434 112<215 233> 604 146<177 177 177 373>
VStem: 24 115<140 163> 295 112<177 392>
DStem: 177 750 228 686 84 604 177 604 228 686 280 750 280 604 373 604
Fore
148 360 m 1
 38 360 l 1
 44 419 53 447 72 478 c 1
 103 524 154 546 229 546 c 0
 342 546 407 489 407 392 c 2
 407 104 l 2
 407 52 413 31 432 21 c 1
 432 0 l 1
 309 0 l 1
 302 26 301 34 298 63 c 1
 253 6 216 -14 160 -14 c 0
 76 -14 24 46 24 142 c 0
 24 235 70 296 152 311 c 2
 255 330 l 2
 283 335 295 349 295 374 c 0
 295 414 271 434 224 434 c 0
 175 434 155 414 148 360 c 1
295 191 m 2
 295 259 l 1
 280 245 263 239 217 230 c 0
 160 218 139 197 139 151 c 0
 139 111 160 86 194 86 c 0
 250 86 295 133 295 191 c 2
280 750 m 1
 373 604 l 1
 280 604 l 1
 228 686 l 1
 177 604 l 1
 84 604 l 1
 177 750 l 1
 280 750 l 1
EndSplineSet
Ligature: 0 0 'liga' a uni0302
EndChar
StartChar: abreve
Encoding: 326 259 220
Width: 456
Flags: W
HStem: -14 100<160 194> 434 112<215 233> 604 77<215 233>
VStem: 24 115<140 163> 295 112<177 392>
Fore
148 360 m 1
 38 360 l 1
 44 419 53 447 72 478 c 1
 103 524 154 546 229 546 c 0
 342 546 407 489 407 392 c 2
 407 104 l 2
 407 52 413 31 432 21 c 1
 432 0 l 1
 309 0 l 1
 302 26 301 34 298 63 c 1
 253 6 216 -14 160 -14 c 0
 76 -14 24 46 24 142 c 0
 24 235 70 296 152 311 c 2
 255 330 l 2
 283 335 295 349 295 374 c 0
 295 414 271 434 224 434 c 0
 175 434 155 414 148 360 c 1
295 191 m 2
 295 259 l 1
 280 245 263 239 217 230 c 0
 160 218 139 197 139 151 c 0
 139 111 160 86 194 86 c 0
 250 86 295 133 295 191 c 2
314 750 m 1
 367 750 l 1
 357 653 308 604 224 604 c 0
 144 604 99 652 90 750 c 1
 144 750 l 1
 153 699 175 681 229 681 c 0
 282 681 303 698 314 750 c 1
EndSplineSet
Ligature: 0 0 'liga' a uni0306
EndChar
StartChar: atilde
Encoding: 327 227 221
Width: 456
Flags: W
HStem: -14 100<160 194> 434 112<206 238> 617 80<279 297> 653 80<166 177>
VStem: 24 115<140 163> 295 112<177 392>
Fore
148 360 m 1xcc
 38 360 l 1
 44 419 53 447 72 478 c 1
 103 524 154 546 229 546 c 0
 342 546 407 489 407 392 c 2
 407 104 l 2
 407 52 413 31 432 21 c 1
 432 0 l 1
 309 0 l 1
 302 26 301 34 298 63 c 1
 253 6 216 -14 160 -14 c 0
 76 -14 24 46 24 142 c 0
 24 235 70 296 152 311 c 2
 255 330 l 2
 283 335 295 349 295 374 c 0
 295 414 271 434 224 434 c 0
 175 434 155 414 148 360 c 1xcc
295 191 m 2
 295 259 l 1
 280 245 263 239 217 230 c 0
 160 218 139 197 139 151 c 0
 139 111 160 86 194 86 c 0
 250 86 295 133 295 191 c 2
326 737 m 1
 379 737 l 1
 366 657 336 617 291 617 c 0xec
 273 617 242 626 206 641 c 1
 188 650 176 653 168 653 c 0
 149 653 136 638 130 610 c 1
 78 610 l 1
 92 694 124 733 177 733 c 0xdc
 193 733 202 730 236 714 c 0
 265 701 276 697 287 697 c 0xec
 308 697 319 709 326 737 c 1
EndSplineSet
Ligature: 0 0 'liga' a tildecomb
EndChar
StartChar: aring
Encoding: 328 229 222
Width: 456
Flags: W
HStem: -14 100<160 194> 434 112<215 233> 595 52<228 232> 751 52<222 232>
VStem: 24 115<140 163> 140 46<699 707> 271 46<699 707> 295 112<177 392>
Fore
148 360 m 1xfd
 38 360 l 1
 44 419 53 447 72 478 c 1
 103 524 154 546 229 546 c 0
 342 546 407 489 407 392 c 2
 407 104 l 2
 407 52 413 31 432 21 c 1
 432 0 l 1
 309 0 l 1
 302 26 301 34 298 63 c 1
 253 6 216 -14 160 -14 c 0
 76 -14 24 46 24 142 c 0
 24 235 70 296 152 311 c 2
 255 330 l 2
 283 335 295 349 295 374 c 0
 295 414 271 434 224 434 c 0
 175 434 155 414 148 360 c 1xfd
295 191 m 2
 295 259 l 1
 280 245 263 239 217 230 c 0
 160 218 139 197 139 151 c 0
 139 111 160 86 194 86 c 0
 250 86 295 133 295 191 c 2
230 803 m 0
 276 803 317 754 317 699 c 0xfe
 317 644 276 595 228 595 c 0
 181 595 140 643 140 699 c 0
 140 755 181 803 230 803 c 0
229 751 m 0
 205 751 186 728 186 699 c 0
 186 670 205 647 228 647 c 0
 252 647 271 670 271 699 c 0
 271 727 252 751 229 751 c 0
EndSplineSet
KernsSLIF: 121 -13 0 0 119 -6 0 0 118 -15 0 0
Ligature: 0 0 'liga' a uni030A
EndChar
StartChar: aogonek
Encoding: 329 261 223
Width: 456
Flags: W
HStem: -228 57<377 393> -14 100<160 194> 434 112<215 233>
VStem: 24 115<139 157> 274 77<-134 -115> 295 112<187 392>
Fore
432 21 m 1xf4
 432 -4 l 1
 379 -42 351 -85 351 -125 c 0
 351 -150 368 -171 388 -171 c 0
 403 -171 425 -165 450 -155 c 1
 465 -204 l 1
 424 -222 404 -228 377 -228 c 0
 316 -228 274 -189 274 -132 c 0xf8
 274 -92 292 -52 323 -26 c 1
 332 -17 339 -13 363 0 c 1
 309 0 l 1
 302 26 301 34 298 63 c 1
 253 6 216 -14 160 -14 c 0
 76 -14 24 46 24 142 c 0
 24 235 70 296 152 311 c 2
 255 330 l 2
 283 335 295 349 295 374 c 0
 295 414 271 434 224 434 c 0
 175 434 155 414 148 360 c 1
 38 360 l 1
 44 419 53 447 72 478 c 1
 103 524 154 546 229 546 c 0
 342 546 407 489 407 392 c 2
 407 104 l 2
 407 52 413 31 432 21 c 1xf4
295 191 m 2xf4
 295 259 l 1
 280 245 263 239 217 230 c 0
 160 218 139 197 139 151 c 0
 139 111 160 86 194 86 c 0
 250 86 295 133 295 191 c 2xf4
EndSplineSet
Ligature: 0 0 'liga' a uni0328
EndChar
StartChar: cacute
Encoding: 330 263 224
Width: 456
Flags: W
HStem: -14 115<219 242> 428 118<227 253>
VStem: 28 118<241 291>
Fore
313 194 m 1
 429 194 l 1
 412 59 342 -14 229 -14 c 0
 100 -14 28 84 28 259 c 0
 28 439 105 546 235 546 c 0
 307 546 368 512 401 452 c 0
 418 421 425 395 430 342 c 1
 314 342 l 1
 303 402 281 428 240 428 c 0
 178 428 146 372 146 265 c 0
 146 156 175 101 233 101 c 0
 277 101 308 138 313 194 c 1
384 750 m 1
 264 604 l 1
 181 604 l 1
 258 750 l 1
 384 750 l 1
EndSplineSet
Ligature: 0 0 'liga' c acutecomb
EndChar
StartChar: ccaron
Encoding: 331 269 225
Width: 456
Flags: W
HStem: -14 115<219 242> 428 118<226 253> 604 146<84 280>
VStem: 28 118<241 291>
DStem: 84 750 177 750 177 604 228 668 280 750 373 750 228 668 280 604
Fore
313 194 m 1
 429 194 l 1
 412 59 342 -14 229 -14 c 0
 100 -14 28 84 28 259 c 0
 28 439 105 546 235 546 c 0
 307 546 368 512 401 452 c 0
 418 421 425 395 430 342 c 1
 314 342 l 1
 303 402 281 428 240 428 c 0
 178 428 146 372 146 265 c 0
 146 156 175 101 233 101 c 0
 277 101 308 138 313 194 c 1
373 750 m 1
 280 604 l 1
 177 604 l 1
 84 750 l 1
 177 750 l 1
 228 668 l 1
 280 750 l 1
 373 750 l 1
EndSplineSet
Ligature: 0 0 'liga' c uni030C
EndChar
StartChar: ccedilla
Encoding: 332 231 226
Width: 456
Flags: W
HStem: -228 57<187 205> -96 197<200 233> 428 118<230 253>
VStem: 28 118<235 285> 232 77<-134 -127>
DStem: 191 -11 237 -14 151 -84 213 -55
Fore
237 -14 m 1
 213 -55 l 1
 223 -52 230 -51 238 -51 c 0
 279 -51 309 -83 309 -129 c 0
 309 -188 267 -228 205 -228 c 0
 177 -228 158 -223 113 -203 c 1
 131 -155 l 1
 161 -166 180 -171 193 -171 c 0
 215 -171 232 -153 232 -132 c 0
 232 -111 218 -96 200 -96 c 0
 193 -96 182 -99 168 -104 c 1
 151 -84 l 1
 191 -11 l 1
 83 10 28 102 28 259 c 0
 28 439 105 546 235 546 c 0
 307 546 368 512 401 452 c 0
 418 421 425 395 430 342 c 1
 314 342 l 1
 303 402 281 428 240 428 c 0
 178 428 146 372 146 265 c 0
 146 156 175 101 233 101 c 0
 277 101 308 138 313 194 c 1
 429 194 l 1
 415 67 343 -11 237 -14 c 1
EndSplineSet
Ligature: 0 0 'liga' c uni0327
EndChar
StartChar: dcaron
Encoding: 333 271 227
Width: 561
Flags: W
HStem: -14 115<212 242> 424 122<211 246> 698 20G<338 452 473 581>
VStem: 28 118<241 291> 340 112<0 718> 473 108<605 718> 536 45<599 615>
Fore
452 718 m 1xf8
 452 0 l 1
 340 0 l 1
 340 70 l 1
 312 13 271 -14 212 -14 c 0
 100 -14 28 98 28 272 c 0
 28 437 101 546 211 546 c 0
 267 546 303 522 338 460 c 1
 338 718 l 1
 452 718 l 1xf8
246 424 m 0
 183 424 146 365 146 264 c 0
 146 164 183 101 242 101 c 0
 306 101 342 159 342 260 c 0
 342 364 307 424 246 424 c 0
473 718 m 1xfc
 581 718 l 1
 581 615 l 2
 581 566 569 530 544 505 c 0
 525 486 497 472 473 471 c 1
 473 517 l 1xfc
 513 525 538 558 536 600 c 1
 536 606 l 1xfa
 473 606 l 1
 473 718 l 1xfc
EndSplineSet
Ligature: 0 0 'liga' d uni030C
EndChar
StartChar: edieresis
Encoding: 334 235 228
Width: 456
Flags: W
HStem: -14 113<223 244> 227 92<137 433> 431 115<210 236> 614 115<97 200 257 360>
VStem: 97 103<614 729> 257 103<614 729>
Fore
310 157 m 1
 428 157 l 1
 409 91 392 60 355 29 c 0
 322 0 281 -14 232 -14 c 0
 96 -14 19 88 19 268 c 0
 19 442 97 546 226 546 c 0
 359 546 433 441 433 252 c 2
 433 227 l 1
 134 227 l 1
 141 138 172 99 234 99 c 0
 273 99 299 119 310 157 c 1
137 319 m 1
 315 319 l 1
 307 394 277 431 225 431 c 0
 174 431 147 396 137 319 c 1
200 729 m 1
 200 614 l 1
 97 614 l 1
 97 729 l 1
 200 729 l 1
360 729 m 1
 360 614 l 1
 257 614 l 1
 257 729 l 1
 360 729 l 1
EndSplineSet
Ligature: 0 0 'liga' e uni0308
EndChar
StartChar: eacute
Encoding: 335 233 229
Width: 456
Flags: W
HStem: -14 113<223 244> 227 92<137 433> 431 115<210 236>
Fore
310 157 m 1
 428 157 l 1
 409 91 392 60 355 29 c 0
 322 0 281 -14 232 -14 c 0
 96 -14 19 88 19 268 c 0
 19 442 97 546 226 546 c 0
 359 546 433 441 433 252 c 2
 433 227 l 1
 134 227 l 1
 141 138 172 99 234 99 c 0
 273 99 299 119 310 157 c 1
137 319 m 1
 315 319 l 1
 307 394 277 431 225 431 c 0
 174 431 147 396 137 319 c 1
384 750 m 1
 264 604 l 1
 181 604 l 1
 258 750 l 1
 384 750 l 1
EndSplineSet
KernsSLIF: 121 -14 0 0 119 -6 0 0 118 -15 0 0
Ligature: 0 0 'liga' e acutecomb
EndChar
StartChar: egrave
Encoding: 336 232 230
Width: 456
Flags: W
HStem: -14 113<223 244> 227 92<137 433> 431 115<210 236> 604 146<73 276>
Fore
310 157 m 1
 428 157 l 1
 409 91 392 60 355 29 c 0
 322 0 281 -14 232 -14 c 0
 96 -14 19 88 19 268 c 0
 19 442 97 546 226 546 c 0
 359 546 433 441 433 252 c 2
 433 227 l 1
 134 227 l 1
 141 138 172 99 234 99 c 0
 273 99 299 119 310 157 c 1
137 319 m 1
 315 319 l 1
 307 394 277 431 225 431 c 0
 174 431 147 396 137 319 c 1
193 604 m 1
 73 750 l 1
 199 750 l 1
 276 604 l 1
 193 604 l 1
EndSplineSet
Ligature: 0 0 'liga' e gravecomb
EndChar
StartChar: ecircumflex
Encoding: 337 234 231
Width: 456
Flags: W
HStem: -14 113<223 244> 227 92<137 433> 431 115<210 236> 604 146<177 177 177 373>
DStem: 177 750 228 686 84 604 177 604 228 686 280 750 280 604 373 604
Fore
310 157 m 1
 428 157 l 1
 409 91 392 60 355 29 c 0
 322 0 281 -14 232 -14 c 0
 96 -14 19 88 19 268 c 0
 19 442 97 546 226 546 c 0
 359 546 433 441 433 252 c 2
 433 227 l 1
 134 227 l 1
 141 138 172 99 234 99 c 0
 273 99 299 119 310 157 c 1
137 319 m 1
 315 319 l 1
 307 394 277 431 225 431 c 0
 174 431 147 396 137 319 c 1
280 750 m 1
 373 604 l 1
 280 604 l 1
 228 686 l 1
 177 604 l 1
 84 604 l 1
 177 750 l 1
 280 750 l 1
EndSplineSet
KernsSLIF: 121 -14 0 0 119 -6 0 0 118 -15 0 0
Ligature: 0 0 'liga' e uni0302
EndChar
StartChar: ecaron
Encoding: 338 283 232
Width: 456
Flags: W
HStem: -14 113<223 244> 227 92<137 433> 431 115<210 236> 604 146<84 280>
DStem: 84 750 177 750 177 604 228 668 280 750 373 750 228 668 280 604
Fore
310 157 m 1
 428 157 l 1
 409 91 392 60 355 29 c 0
 322 0 281 -14 232 -14 c 0
 96 -14 19 88 19 268 c 0
 19 442 97 546 226 546 c 0
 359 546 433 441 433 252 c 2
 433 227 l 1
 134 227 l 1
 141 138 172 99 234 99 c 0
 273 99 299 119 310 157 c 1
137 319 m 1
 315 319 l 1
 307 394 277 431 225 431 c 0
 174 431 147 396 137 319 c 1
373 750 m 1
 280 604 l 1
 177 604 l 1
 84 750 l 1
 177 750 l 1
 228 668 l 1
 280 750 l 1
 373 750 l 1
EndSplineSet
Ligature: 0 0 'liga' e uni030C
EndChar
StartChar: edotaccent
Encoding: 339 279 233
Width: 456
Flags: W
HStem: -14 113<223 244> 227 92<137 433> 431 115<210 236> 709 20G<177 281>
VStem: 177 104<614 729>
Fore
310 157 m 1
 428 157 l 1
 409 91 392 60 355 29 c 0
 322 0 281 -14 232 -14 c 0
 96 -14 19 88 19 268 c 0
 19 442 97 546 226 546 c 0
 359 546 433 441 433 252 c 2
 433 227 l 1
 134 227 l 1
 141 138 172 99 234 99 c 0
 273 99 299 119 310 157 c 1
137 319 m 1
 315 319 l 1
 307 394 277 431 225 431 c 0
 174 431 147 396 137 319 c 1
281 729 m 1
 281 614 l 1
 177 614 l 1
 177 729 l 1
 281 729 l 1
EndSplineSet
Ligature: 0 0 'liga' e uni0307
EndChar
StartChar: eogonek
Encoding: 340 281 234
Width: 456
Flags: W
HStem: -228 57<312 326> -14 113<223 244> 227 92<137 433> 431 115<210 236>
VStem: 209 77<-134 -115>
Fore
433 227 m 1
 134 227 l 1
 141 138 172 99 234 99 c 0
 273 99 299 119 310 157 c 1
 428 157 l 1
 413 101 405 87 348 5 c 1
 297 -65 286 -88 286 -121 c 0
 286 -150 302 -171 324 -171 c 0
 338 -171 360 -165 386 -155 c 1
 401 -204 l 1
 360 -222 339 -228 312 -228 c 0
 251 -228 209 -189 209 -132 c 0
 209 -80 236 -36 284 -8 c 1
 264 -12 250 -14 232 -14 c 0
 96 -14 19 88 19 268 c 0
 19 442 97 546 226 546 c 0
 359 546 433 441 433 252 c 2
 433 227 l 1
137 319 m 1
 315 319 l 1
 307 394 277 431 225 431 c 0
 174 431 147 396 137 319 c 1
EndSplineSet
Ligature: 0 0 'liga' e uni0328
EndChar
StartChar: gbreve
Encoding: 341 287 235
Width: 501
Flags: W
HStem: -217 107<224.951 258> -3 118<220 243> 424 122<215 243> 604 77<238 258>
VStem: 33 118<246 280> 338 115<-10 80 246 532>
Fore
343 532 m 1
 453 532 l 1
 453 28 l 2
 453 -59 439 -113 408 -151 c 0
 373 -194 313 -217 240 -217 c 0
 170 -217 115 -196 80 -156 c 0
 57 -130 49 -108 42 -57 c 1
 167 -57 l 1
 170 -72 172 -78 177 -85 c 0
 187 -101 211 -110 243 -110 c 0
 310 -110 338 -74 338 11 c 2
 338 80 l 1
 308 18 278 -3 220 -3 c 0
 105 -3 33 102 33 271 c 0
 33 437 105 546 215 546 c 0
 275 546 313 518 343 450 c 1
 343 532 l 1
243 424 m 0
 186 424 151 364 151 267 c 0
 151 172 185 115 243 115 c 0
 304 115 339 171 339 267 c 0
 339 360 300 424 243 424 c 0
336 750 m 1
 389 750 l 1
 379 653 330 604 246 604 c 0
 166 604 121 652 112 750 c 1
 166 750 l 1
 175 699 197 681 251 681 c 0
 304 681 325 698 336 750 c 1
EndSplineSet
Ligature: 0 0 'liga' g uni0306
EndChar
StartChar: idieresis
Encoding: 342 239 236
Width: 228
Flags: W
HStem: 0 21G<57 171> 512 20G<57 171> 614 115<-17 86 143 246>
VStem: -17 103<614 729> 57 114<0 532> 143 103<614 729>
Fore
57 532 m 1xe8
 171 532 l 1
 171 0 l 1
 57 0 l 1
 57 532 l 1xe8
86 729 m 1xf0
 86 614 l 1
 -17 614 l 1
 -17 729 l 1
 86 729 l 1xf0
246 729 m 1xe4
 246 614 l 1
 143 614 l 1
 143 729 l 1
 246 729 l 1xe4
EndSplineSet
Ligature: 0 0 'liga' i uni0308
EndChar
StartChar: iacute
Encoding: 343 237 237
Width: 228
Flags: W
HStem: 0 21G<57 171> 512 20G<57 171>
VStem: 57 114<0 532>
Fore
57 532 m 1
 171 532 l 1
 171 0 l 1
 57 0 l 1
 57 532 l 1
270 750 m 1
 150 604 l 1
 67 604 l 1
 144 750 l 1
 270 750 l 1
EndSplineSet
Ligature: 0 0 'liga' i acutecomb
EndChar
StartChar: igrave
Encoding: 344 236 238
Width: 228
Flags: W
HStem: 0 21G<57 171> 512 20G<57 171> 604 146<-41 162>
VStem: 57 114<0 532>
Fore
57 532 m 1
 171 532 l 1
 171 0 l 1
 57 0 l 1
 57 532 l 1
79 604 m 1
 -41 750 l 1
 85 750 l 1
 162 604 l 1
 79 604 l 1
EndSplineSet
Ligature: 0 0 'liga' i gravecomb
EndChar
StartChar: icircumflex
Encoding: 345 238 239
Width: 228
Flags: W
HStem: 0 21G<57 171> 512 20G<57 171> 604 146<63 63 63 259>
VStem: 57 114<0 532>
DStem: 63 750 114 686 -30 604 63 604 114 686 166 750 166 604 259 604
Fore
57 532 m 1
 171 532 l 1
 171 0 l 1
 57 0 l 1
 57 532 l 1
166 750 m 1
 259 604 l 1
 166 604 l 1
 114 686 l 1
 63 604 l 1
 -30 604 l 1
 63 750 l 1
 166 750 l 1
EndSplineSet
Ligature: 0 0 'liga' i uni0302
EndChar
StartChar: lacute
Encoding: 346 314 240
Width: 228
Flags: W
HStem: 0 21G<57 171> 698 20G<57 171>
VStem: 57 114<0 718>
Fore
171 718 m 1
 171 0 l 1
 57 0 l 1
 57 718 l 1
 171 718 l 1
270 936 m 1
 150 790 l 1
 67 790 l 1
 144 936 l 1
 270 936 l 1
EndSplineSet
Ligature: 0 0 'liga' l acutecomb
EndChar
StartChar: lcaron
Encoding: 347 318 241
Width: 280
Flags: W
HStem: 0 21G<57 171> 698 20G<57 171 192 300>
VStem: 57 114<0 718> 192 108<605 718> 255 45<599 615>
Fore
171 718 m 1xe0
 171 0 l 1
 57 0 l 1
 57 718 l 1
 171 718 l 1xe0
192 718 m 1xf0
 300 718 l 1
 300 615 l 2
 300 566 288 530 263 505 c 0
 244 486 216 472 192 471 c 1
 192 517 l 1xf0
 232 525 257 558 255 600 c 1
 255 606 l 1xe8
 192 606 l 1
 192 718 l 1xf0
EndSplineSet
Ligature: 0 0 'liga' l uni030C
EndChar
StartChar: nacute
Encoding: 348 324 242
Width: 501
Flags: W
HStem: 0 21G<53 167 334 448> 428 118<260 297>
VStem: 53 110<0 532> 334 114<0 368>
Fore
163 532 m 1
 163 451 l 1
 194 517 235 546 297 546 c 0
 389 546 448 477 448 368 c 2
 448 0 l 1
 334 0 l 1
 334 323 l 2
 334 397 312 428 260 428 c 0
 203 428 167 381 167 305 c 2
 167 0 l 1
 53 0 l 1
 53 532 l 1
 163 532 l 1
406 750 m 1
 286 604 l 1
 203 604 l 1
 280 750 l 1
 406 750 l 1
EndSplineSet
Ligature: 0 0 'liga' n acutecomb
EndChar
StartChar: ncaron
Encoding: 349 328 243
Width: 501
Flags: W
HStem: 0 21G<53 167 334 448> 428 118<260 297> 604 146<106 302>
VStem: 53 110<0 532> 334 114<0 368>
DStem: 106 750 199 750 199 604 250 668 302 750 395 750 250 668 302 604
Fore
163 532 m 1
 163 451 l 1
 194 517 235 546 297 546 c 0
 389 546 448 477 448 368 c 2
 448 0 l 1
 334 0 l 1
 334 323 l 2
 334 397 312 428 260 428 c 0
 203 428 167 381 167 305 c 2
 167 0 l 1
 53 0 l 1
 53 532 l 1
 163 532 l 1
395 750 m 1
 302 604 l 1
 199 604 l 1
 106 750 l 1
 199 750 l 1
 250 668 l 1
 302 750 l 1
 395 750 l 1
EndSplineSet
Ligature: 0 0 'liga' n uni030C
EndChar
StartChar: ntilde
Encoding: 350 241 244
Width: 501
Flags: W
HStem: 0 21G<53 167 334 448> 428 118<260 297> 617 80<307 315> 653 80<188 199>
VStem: 53 110<0 532> 334 114<0 368>
Fore
163 532 m 1xcc
 163 451 l 1
 194 517 235 546 297 546 c 0
 389 546 448 477 448 368 c 2
 448 0 l 1
 334 0 l 1
 334 323 l 2
 334 397 312 428 260 428 c 0
 203 428 167 381 167 305 c 2
 167 0 l 1
 53 0 l 1
 53 532 l 1
 163 532 l 1xcc
348 737 m 1
 401 737 l 1
 388 657 358 617 313 617 c 0xec
 295 617 264 626 228 641 c 1
 210 650 198 653 190 653 c 0
 171 653 158 638 152 610 c 1
 100 610 l 1
 114 694 146 733 199 733 c 0xdc
 215 733 224 730 258 714 c 0
 287 701 298 697 309 697 c 0xec
 330 697 341 709 348 737 c 1
EndSplineSet
Ligature: 0 0 'liga' n tildecomb
EndChar
StartChar: odieresis
Encoding: 351 246 245
Width: 501
Flags: W
HStem: -14 118<251 257> 428 118<236.556 257> 614 115<119 222 279 382>
VStem: 28 118<241 291> 119 103<614 729> 279 103<614 729> 356 118<241 291>
Fore
254 546 m 0xf2
 387 546 474 434 474 265 c 0
 474 96 386 -14 251 -14 c 0
 116 -14 28 96 28 265 c 0
 28 437 115 546 254 546 c 0xf2
252 428 m 0
 183 428 146 372 146 266 c 0
 146 161 183 104 251 104 c 0
 319 104 356 161 356 266 c 0
 356 370 319 428 252 428 c 0
222 729 m 1xe8
 222 614 l 1
 119 614 l 1
 119 729 l 1
 222 729 l 1xe8
382 729 m 1xe4
 382 614 l 1
 279 614 l 1
 279 729 l 1
 382 729 l 1xe4
EndSplineSet
KernsSLIF: 121 -17 0 0 120 -20 0 0 119 -8 0 0 118 -18 0 0 116 -5 0 0
Ligature: 0 0 'liga' o uni0308
EndChar
StartChar: oacute
Encoding: 352 243 246
Width: 501
Flags: W
HStem: -14 118<251 257> 428 118<236.556 257>
VStem: 28 118<241 291> 356 118<241 291>
Fore
254 546 m 0
 387 546 474 434 474 265 c 0
 474 96 386 -14 251 -14 c 0
 116 -14 28 96 28 265 c 0
 28 437 115 546 254 546 c 0
252 428 m 0
 183 428 146 372 146 266 c 0
 146 161 183 104 251 104 c 0
 319 104 356 161 356 266 c 0
 356 370 319 428 252 428 c 0
406 750 m 1
 286 604 l 1
 203 604 l 1
 280 750 l 1
 406 750 l 1
EndSplineSet
KernsSLIF: 121 -17 0 0 119 -8 0 0 118 -18 0 0
Ligature: 0 0 'liga' o acutecomb
EndChar
StartChar: ograve
Encoding: 353 242 247
Width: 501
Flags: W
HStem: -14 118<251 257> 428 118<236.556 257> 604 146<95 298>
VStem: 28 118<241 291> 356 118<241 291>
Fore
254 546 m 0
 387 546 474 434 474 265 c 0
 474 96 386 -14 251 -14 c 0
 116 -14 28 96 28 265 c 0
 28 437 115 546 254 546 c 0
252 428 m 0
 183 428 146 372 146 266 c 0
 146 161 183 104 251 104 c 0
 319 104 356 161 356 266 c 0
 356 370 319 428 252 428 c 0
215 604 m 1
 95 750 l 1
 221 750 l 1
 298 604 l 1
 215 604 l 1
EndSplineSet
KernsSLIF: 121 -17 0 0 119 -8 0 0 118 -18 0 0
Ligature: 0 0 'liga' o gravecomb
EndChar
StartChar: ocircumflex
Encoding: 354 244 248
Width: 501
Flags: W
HStem: -14 118<251 257> 428 118<236.329 257> 604 146<199 199 199 395>
VStem: 28 118<241 291> 356 118<241 291>
DStem: 199 750 250 686 106 604 199 604 250 686 302 750 302 604 395 604
Fore
254 546 m 0
 387 546 474 434 474 265 c 0
 474 96 386 -14 251 -14 c 0
 116 -14 28 96 28 265 c 0
 28 437 115 546 254 546 c 0
252 428 m 0
 183 428 146 372 146 266 c 0
 146 161 183 104 251 104 c 0
 319 104 356 161 356 266 c 0
 356 370 319 428 252 428 c 0
302 750 m 1
 395 604 l 1
 302 604 l 1
 250 686 l 1
 199 604 l 1
 106 604 l 1
 199 750 l 1
 302 750 l 1
EndSplineSet
KernsSLIF: 116 -5 0 0
Ligature: 0 0 'liga' o uni0302
EndChar
StartChar: otilde
Encoding: 355 245 249
Width: 501
Flags: W
HStem: -14 118<251 261> 428 118<236.556 261> 617 80<307 317> 653 80<187 199>
VStem: 28 118<241 291> 356 118<241 291>
Fore
254 546 m 0xcc
 387 546 474 434 474 265 c 0
 474 96 386 -14 251 -14 c 0
 116 -14 28 96 28 265 c 0
 28 437 115 546 254 546 c 0xcc
252 428 m 0
 183 428 146 372 146 266 c 0
 146 161 183 104 251 104 c 0
 319 104 356 161 356 266 c 0
 356 370 319 428 252 428 c 0
348 737 m 1
 401 737 l 1
 388 657 358 617 313 617 c 0xec
 295 617 264 626 228 641 c 1
 210 650 198 653 190 653 c 0
 171 653 158 638 152 610 c 1
 100 610 l 1
 114 694 146 733 199 733 c 0xdc
 215 733 224 730 258 714 c 0
 287 701 298 697 309 697 c 0xec
 330 697 341 709 348 737 c 1
EndSplineSet
Ligature: 0 0 'liga' o tildecomb
EndChar
StartChar: ohungarumlaut
Encoding: 356 337 250
Width: 501
Flags: W
HStem: -14 118<251 257> 428 118<236.556 257>
VStem: 28 118<241 291> 356 118<241 291>
Fore
254 546 m 0
 387 546 474 434 474 265 c 0
 474 96 386 -14 251 -14 c 0
 116 -14 28 96 28 265 c 0
 28 437 115 546 254 546 c 0
252 428 m 0
 183 428 146 372 146 266 c 0
 146 161 183 104 251 104 c 0
 319 104 356 161 356 266 c 0
 356 370 319 428 252 428 c 0
325 750 m 1
 204 604 l 1
 121 604 l 1
 198 750 l 1
 325 750 l 1
513 750 m 1
 392 604 l 1
 309 604 l 1
 386 750 l 1
 513 750 l 1
EndSplineSet
Ligature: 0 0 'liga' o uni030B
EndChar
StartChar: racute
Encoding: 357 341 251
Width: 319
Flags: W
HStem: 0 21G<52 166> 404 142<275 293>
VStem: 52 110<0 532>
Fore
52 0 m 1
 52 532 l 1
 162 532 l 1
 162 437 l 1
 196 518 227 546 283 546 c 0
 288 546 293 546 306 544 c 1
 306 402 l 1
 298 403 288 404 277 404 c 0
 202 404 166 363 166 277 c 2
 166 0 l 1
 52 0 l 1
315 750 m 1
 195 604 l 1
 112 604 l 1
 189 750 l 1
 315 750 l 1
EndSplineSet
Ligature: 0 0 'liga' r acutecomb
EndChar
StartChar: sacute
Encoding: 358 347 252
Width: 456
Flags: W
HStem: -14 107<215 249> 439 107<222 238>
VStem: 41 112<369 391> 311 115<145 166>
Fore
413 370 m 1
 300 370 l 1
 292 422 272 439 222 439 c 0
 177 439 153 422 153 389 c 0
 153 361 181 343 247 331 c 0
 323 316 383 284 406 247 c 0
 419 225 426 197 426 166 c 0
 426 54 352 -14 232 -14 c 0
 173 -14 120 3 84 33 c 0
 46 64 32 97 25 170 c 1
 143 170 l 1
 145 117 174 93 236 93 c 0
 282 93 311 114 311 148 c 0
 311 176 281 194 216 207 c 0
 95 230 41 280 41 369 c 0
 41 406 50 441 67 470 c 0
 97 521 149 546 222 546 c 0
 276 546 322 532 353 507 c 0
 389 478 404 444 413 370 c 1
384 750 m 1
 264 604 l 1
 181 604 l 1
 258 750 l 1
 384 750 l 1
EndSplineSet
Ligature: 0 0 'liga' s acutecomb
EndChar
StartChar: scaron
Encoding: 359 353 253
Width: 456
Flags: W
HStem: -14 107<215 249> 439 107<222 238> 604 146<84 280>
VStem: 41 112<369 391> 311 115<145 166>
DStem: 84 750 177 750 177 604 228 668 280 750 373 750 228 668 280 604
Fore
413 370 m 1
 300 370 l 1
 292 422 272 439 222 439 c 0
 177 439 153 422 153 389 c 0
 153 361 181 343 247 331 c 0
 323 316 383 284 406 247 c 0
 419 225 426 197 426 166 c 0
 426 54 352 -14 232 -14 c 0
 173 -14 120 3 84 33 c 0
 46 64 32 97 25 170 c 1
 143 170 l 1
 145 117 174 93 236 93 c 0
 282 93 311 114 311 148 c 0
 311 176 281 194 216 207 c 0
 95 230 41 280 41 369 c 0
 41 406 50 441 67 470 c 0
 97 521 149 546 222 546 c 0
 276 546 322 532 353 507 c 0
 389 478 404 444 413 370 c 1
373 750 m 1
 280 604 l 1
 177 604 l 1
 84 750 l 1
 177 750 l 1
 228 668 l 1
 280 750 l 1
 373 750 l 1
EndSplineSet
Ligature: 0 0 'liga' s uni030C
EndChar
StartChar: scommaaccent
Encoding: 360 537 254
Width: 456
Flags: W
HStem: -14 107<215 249> 439 107<222 240>
VStem: 41 112<369 391> 174 108<-173 -60> 237 45<-179 -163> 311 115<146 166>
Fore
413 370 m 1xe4
 300 370 l 1
 292 422 272 439 222 439 c 0
 177 439 153 422 153 389 c 0
 153 361 181 343 247 331 c 0
 323 316 383 284 406 247 c 0
 419 225 426 197 426 166 c 0
 426 54 352 -14 232 -14 c 0
 173 -14 120 3 84 33 c 0
 46 64 32 97 25 170 c 1
 143 170 l 1
 145 117 174 93 236 93 c 0
 282 93 311 114 311 148 c 0
 311 176 281 194 216 207 c 0
 95 230 41 280 41 369 c 0
 41 406 50 441 67 470 c 0
 97 521 149 546 222 546 c 0
 276 546 322 532 353 507 c 0
 389 478 404 444 413 370 c 1xe4
174 -60 m 1xf4
 282 -60 l 1
 282 -163 l 2
 282 -212 270 -248 245 -273 c 0
 226 -292 198 -306 174 -307 c 1
 174 -261 l 1xf4
 214 -253 239 -220 237 -178 c 1
 237 -172 l 1xec
 174 -172 l 1
 174 -60 l 1xf4
EndSplineSet
Ligature: 0 0 'liga' s uni0326
EndChar
StartChar: tcaron
Encoding: 361 357 255
Width: 338
Flags: W
HStem: -6 106<198 230> 432 100<8 67 181 253> 698 20G<250 358>
VStem: 67 114<109 432 532 676> 250 108<605 718> 313 45<599 615>
Fore
181 676 m 1xf8
 181 532 l 1
 253 532 l 1
 253 518 l 1
 292 527 315 559 313 600 c 1
 313 606 l 1xf4
 250 606 l 1
 250 718 l 1
 358 718 l 1
 358 615 l 2
 358 566 346 530 321 505 c 0
 303 487 275 473 253 472 c 1
 253 432 l 1
 181 432 l 1
 181 143 l 2
 181 106 188 100 228 100 c 0
 234 100 238 100 253 102 c 1
 253 -4 l 1
 211 -6 211 -6 198 -6 c 2
 183 -6 l 2
 99 -6 67 25 67 109 c 2
 67 432 l 1
 8 432 l 1
 8 532 l 1
 67 532 l 1
 67 676 l 1
 181 676 l 1xf8
EndSplineSet
Ligature: 0 0 'liga' t uni030C
EndChar
StartChar: udieresis
Encoding: 362 252 256
Width: 501
Flags: W
HStem: -14 118<201 242> 512 20G<54 168 333 447> 614 115<119 222 279 382>
VStem: 54 114<181 531> 119 103<614 729> 279 103<614 729> 333 114<203 532>
Fore
447 532 m 1xf2
 447 0 l 1
 337 0 l 1
 337 78 l 1
 307 15 265 -14 201 -14 c 0
 107 -14 54 57 54 182 c 2
 54 532 l 1
 168 532 l 1
 168 202 l 2
 168 138 193 104 242 104 c 0
 299 104 333 150 333 225 c 2
 333 532 l 1
 447 532 l 1xf2
222 729 m 1xe8
 222 614 l 1
 119 614 l 1
 119 729 l 1
 222 729 l 1xe8
382 729 m 1xe4
 382 614 l 1
 279 614 l 1
 279 729 l 1
 382 729 l 1xe4
EndSplineSet
Ligature: 0 0 'liga' u uni0308
EndChar
StartChar: uacute
Encoding: 363 250 257
Width: 501
Flags: W
HStem: -14 118<201 242> 512 20G<54 168 333 447>
VStem: 54 114<181 531> 333 114<203 532>
Fore
447 532 m 1
 447 0 l 1
 337 0 l 1
 337 78 l 1
 307 15 265 -14 201 -14 c 0
 107 -14 54 57 54 182 c 2
 54 532 l 1
 168 532 l 1
 168 202 l 2
 168 138 193 104 242 104 c 0
 299 104 333 150 333 225 c 2
 333 532 l 1
 447 532 l 1
406 750 m 1
 286 604 l 1
 203 604 l 1
 280 750 l 1
 406 750 l 1
EndSplineSet
Ligature: 0 0 'liga' u acutecomb
EndChar
StartChar: ugrave
Encoding: 364 249 258
Width: 501
Flags: W
HStem: -14 118<201 242> 512 20G<54 168 333 447> 604 146<95 298>
VStem: 54 114<181 531> 333 114<203 532>
Fore
447 532 m 1
 447 0 l 1
 337 0 l 1
 337 78 l 1
 307 15 265 -14 201 -14 c 0
 107 -14 54 57 54 182 c 2
 54 532 l 1
 168 532 l 1
 168 202 l 2
 168 138 193 104 242 104 c 0
 299 104 333 150 333 225 c 2
 333 532 l 1
 447 532 l 1
215 604 m 1
 95 750 l 1
 221 750 l 1
 298 604 l 1
 215 604 l 1
EndSplineSet
Ligature: 0 0 'liga' u gravecomb
EndChar
StartChar: ucircumflex
Encoding: 365 251 259
Width: 501
Flags: W
HStem: -14 118<201 242> 512 20G<54 168 333 447> 604 146<199 199 199 395>
VStem: 54 114<181 531> 333 114<203 532>
DStem: 199 750 250 686 106 604 199 604 250 686 302 750 302 604 395 604
Fore
447 532 m 1
 447 0 l 1
 337 0 l 1
 337 78 l 1
 307 15 265 -14 201 -14 c 0
 107 -14 54 57 54 182 c 2
 54 532 l 1
 168 532 l 1
 168 202 l 2
 168 138 193 104 242 104 c 0
 299 104 333 150 333 225 c 2
 333 532 l 1
 447 532 l 1
302 750 m 1
 395 604 l 1
 302 604 l 1
 250 686 l 1
 199 604 l 1
 106 604 l 1
 199 750 l 1
 302 750 l 1
EndSplineSet
Ligature: 0 0 'liga' u uni0302
EndChar
StartChar: uring
Encoding: 366 367 260
Width: 501
Flags: W
HStem: -14 118<201 242> 512 20G<54 168 333 447> 568 52<250 254> 724 52<242 254>
VStem: 54 114<181 531> 162 46<660.618 675> 293 46<660.618 675> 333 114<203 532>
Fore
447 532 m 1xf9
 447 0 l 1
 337 0 l 1
 337 78 l 1
 307 15 265 -14 201 -14 c 0
 107 -14 54 57 54 182 c 2
 54 532 l 1
 168 532 l 1
 168 202 l 2
 168 138 193 104 242 104 c 0
 299 104 333 150 333 225 c 2
 333 532 l 1
 447 532 l 1xf9
252 776 m 0
 298 776 339 727 339 672 c 0
 339 617 298 568 250 568 c 0
 203 568 162 616 162 672 c 0xf6
 162 728 203 776 252 776 c 0
251 724 m 0
 227 724 208 701 208 672 c 0
 208 643 227 620 250 620 c 0
 274 620 293 643 293 672 c 0
 293 700 274 724 251 724 c 0
EndSplineSet
Ligature: 0 0 'liga' u uni030A
EndChar
StartChar: uhungarumlaut
Encoding: 367 369 261
Width: 501
Flags: W
HStem: -14 118<201 242> 512 20G<54 168 333 447>
VStem: 54 114<181 531> 333 114<203 532>
Fore
447 532 m 1
 447 0 l 1
 337 0 l 1
 337 78 l 1
 307 15 265 -14 201 -14 c 0
 107 -14 54 57 54 182 c 2
 54 532 l 1
 168 532 l 1
 168 202 l 2
 168 138 193 104 242 104 c 0
 299 104 333 150 333 225 c 2
 333 532 l 1
 447 532 l 1
325 750 m 1
 204 604 l 1
 121 604 l 1
 198 750 l 1
 325 750 l 1
513 750 m 1
 392 604 l 1
 309 604 l 1
 386 750 l 1
 513 750 l 1
EndSplineSet
Ligature: 0 0 'liga' u uni030B
EndChar
StartChar: yacute
Encoding: 368 253 262
Width: 456
Flags: W
HStem: -214 112<95 126> 512 20G<8 136 320 442>
Fore
442 532 m 1
 292 9 l 2
 258 -110 242 -153 224 -177 c 0
 204 -204 177 -214 126 -214 c 0
 114 -214 98 -213 71 -212 c 1
 71 -100 l 1
 79 -101 87 -102 95 -102 c 0
 144 -102 158 -87 169 -22 c 1
 8 532 l 1
 136 532 l 1
 230 136 l 1
 320 532 l 1
 442 532 l 1
384 750 m 1
 264 604 l 1
 181 604 l 1
 258 750 l 1
 384 750 l 1
EndSplineSet
Ligature: 0 0 'liga' y acutecomb
EndChar
StartChar: zacute
Encoding: 369 378 263
Width: 410
Flags: W
HStem: 0 115<165 394> 420 112<32 241>
DStem: 241 420 386 417 16 109 165 115
Fore
386 417 m 1
 165 115 l 1
 394 115 l 1
 394 0 l 1
 16 0 l 1
 16 109 l 1
 241 420 l 1
 32 420 l 1
 32 532 l 1
 386 532 l 1
 386 417 l 1
361 750 m 1
 241 604 l 1
 158 604 l 1
 235 750 l 1
 361 750 l 1
EndSplineSet
Ligature: 0 0 'liga' z acutecomb
EndChar
StartChar: zcaron
Encoding: 370 382 264
Width: 410
Flags: W
HStem: 0 115<165 394> 420 112<32 241> 604 146<60 256>
DStem: 60 750 153 750 153 604 204 668 241 420 386 417 16 109 165 115 256 750 349 750 204 668 256 604
Fore
386 417 m 1
 165 115 l 1
 394 115 l 1
 394 0 l 1
 16 0 l 1
 16 109 l 1
 241 420 l 1
 32 420 l 1
 32 532 l 1
 386 532 l 1
 386 417 l 1
349 750 m 1
 256 604 l 1
 153 604 l 1
 60 750 l 1
 153 750 l 1
 204 668 l 1
 256 750 l 1
 349 750 l 1
EndSplineSet
Ligature: 0 0 'liga' z uni030C
EndChar
StartChar: zdotaccent
Encoding: 371 380 265
Width: 410
Flags: W
HStem: 0 115<165 394> 420 112<32 241> 709 20G<154 258>
VStem: 154 104<614 729>
DStem: 241 420 386 417 16 109 165 115
Fore
386 417 m 1
 165 115 l 1
 394 115 l 1
 394 0 l 1
 16 0 l 1
 16 109 l 1
 241 420 l 1
 32 420 l 1
 32 532 l 1
 386 532 l 1
 386 417 l 1
258 729 m 1
 258 614 l 1
 154 614 l 1
 154 729 l 1
 258 729 l 1
EndSplineSet
Ligature: 0 0 'liga' z uni0307
EndChar
StartChar: ydieresis
Encoding: 372 255 266
Width: 456
Flags: W
HStem: -214 112<95 126> 512 20G<8 136 320 442> 614 115<97 200 257 360>
VStem: 97 103<614 729> 257 103<614 729>
Fore
442 532 m 1
 292 9 l 2
 258 -110 242 -153 224 -177 c 0
 204 -204 177 -214 126 -214 c 0
 114 -214 98 -213 71 -212 c 1
 71 -100 l 1
 79 -101 87 -102 95 -102 c 0
 144 -102 158 -87 169 -22 c 1
 8 532 l 1
 136 532 l 1
 230 136 l 1
 320 532 l 1
 442 532 l 1
200 729 m 1
 200 614 l 1
 97 614 l 1
 97 729 l 1
 200 729 l 1
360 729 m 1
 360 614 l 1
 257 614 l 1
 257 729 l 1
 360 729 l 1
EndSplineSet
Ligature: 0 0 'liga' y uni0308
EndChar
StartChar: tcommaaccent
Encoding: 373 355 267
Width: 273
Flags: W
HStem: -6 106<198 233> 432 100<8 67 181 253>
VStem: 67 114<109 432 532 676> 83 108<-173 -60> 146 45<-179 -163>
Fore
181 676 m 1xe0
 181 532 l 1
 253 532 l 1
 253 432 l 1
 181 432 l 1
 181 143 l 2
 181 106 188 100 228 100 c 0
 235 100 240 100 253 102 c 1
 253 -4 l 1
 214 -6 211 -6 198 -6 c 2
 183 -6 l 2
 99 -6 67 25 67 109 c 2
 67 432 l 1
 8 432 l 1
 8 532 l 1
 67 532 l 1
 67 676 l 1
 181 676 l 1xe0
83 -60 m 1xd0
 191 -60 l 1
 191 -163 l 2
 191 -212 179 -248 154 -273 c 0
 135 -292 107 -306 83 -307 c 1
 83 -261 l 1xd0
 123 -253 148 -220 146 -178 c 1
 146 -172 l 1xc8
 83 -172 l 1
 83 -60 l 1xd0
EndSplineSet
Ligature: 0 0 'liga' t uni0327
EndChar
StartChar: amacron
Encoding: 374 257 268
Width: 456
Flags: W
HStem: -14 100<160 194> 434 112<215 233> 605 73<87 370>
VStem: 24 115<140 163> 295 112<177 392>
Fore
148 360 m 1
 38 360 l 1
 44 419 53 447 72 478 c 1
 103 524 154 546 229 546 c 0
 342 546 407 489 407 392 c 2
 407 104 l 2
 407 52 413 31 432 21 c 1
 432 0 l 1
 309 0 l 1
 302 26 301 34 298 63 c 1
 253 6 216 -14 160 -14 c 0
 76 -14 24 46 24 142 c 0
 24 235 70 296 152 311 c 2
 255 330 l 2
 283 335 295 349 295 374 c 0
 295 414 271 434 224 434 c 0
 175 434 155 414 148 360 c 1
295 191 m 2
 295 259 l 1
 280 245 263 239 217 230 c 0
 160 218 139 197 139 151 c 0
 139 111 160 86 194 86 c 0
 250 86 295 133 295 191 c 2
370 678 m 1
 370 605 l 1
 87 605 l 1
 87 678 l 1
 370 678 l 1
EndSplineSet
Ligature: 0 0 'liga' a uni0304
EndChar
StartChar: emacron
Encoding: 375 275 269
Width: 456
Flags: W
HStem: -14 113<223 244> 227 92<137 433> 431 115<210 236> 605 73<87 370>
Fore
310 157 m 1
 428 157 l 1
 409 91 392 60 355 29 c 0
 322 0 281 -14 232 -14 c 0
 96 -14 19 88 19 268 c 0
 19 442 97 546 226 546 c 0
 359 546 433 441 433 252 c 2
 433 227 l 1
 134 227 l 1
 141 138 172 99 234 99 c 0
 273 99 299 119 310 157 c 1
137 319 m 1
 315 319 l 1
 307 394 277 431 225 431 c 0
 174 431 147 396 137 319 c 1
370 678 m 1
 370 605 l 1
 87 605 l 1
 87 678 l 1
 370 678 l 1
EndSplineSet
Ligature: 0 0 'liga' e uni0304
EndChar
StartChar: imacron
Encoding: 376 299 270
Width: 228
Flags: W
HStem: 0 21G<57 171> 512 20G<57 171> 605 73<-28 255>
VStem: 57 114<0 532>
Fore
57 532 m 1
 171 532 l 1
 171 0 l 1
 57 0 l 1
 57 532 l 1
255 678 m 1
 255 605 l 1
 -28 605 l 1
 -28 678 l 1
 255 678 l 1
EndSplineSet
Ligature: 0 0 'liga' i uni0304
EndChar
StartChar: kcommaaccent
Encoding: 377 311 271
Width: 456
Flags: W
HStem: 0 21G<57 171 323 461> 512 20G<315 456> 698 20G<57 171>
VStem: 57 114<0 168 0 718> 174 108<-173 -60> 237 45<-179 -163>
DStem: 315 532 456 532 171 330 302 326
Fore
171 168 m 1xf0
 171 0 l 1
 57 0 l 1
 57 718 l 1
 171 718 l 1
 171 330 l 1
 315 532 l 1
 456 532 l 1
 302 326 l 1
 461 0 l 1
 323 0 l 1
 219 228 l 1
 171 168 l 1xf0
174 -60 m 1xf8
 282 -60 l 1
 282 -163 l 2
 282 -212 270 -248 245 -273 c 0
 226 -292 198 -306 174 -307 c 1
 174 -261 l 1xf8
 214 -253 239 -220 237 -178 c 1
 237 -172 l 1xf4
 174 -172 l 1
 174 -60 l 1xf8
EndSplineSet
Ligature: 0 0 'liga' k uni0327
EndChar
StartChar: lcommaaccent
Encoding: 378 316 272
Width: 228
Flags: W
HStem: 0 21G<57 171> 698 20G<57 171>
VStem: 57 114<0 718> 123 45<-179 -163>
Fore
171 718 m 1xe0
 171 0 l 1
 57 0 l 1
 57 718 l 1
 171 718 l 1xe0
60 -60 m 1
 168 -60 l 1
 168 -163 l 2
 168 -212 156 -248 131 -273 c 0
 112 -292 84 -306 60 -307 c 1
 60 -261 l 1
 100 -253 125 -220 123 -178 c 1
 123 -172 l 1xd0
 60 -172 l 1
 60 -60 l 1
EndSplineSet
Ligature: 0 0 'liga' l uni0327
EndChar
StartChar: ncommaaccent
Encoding: 379 326 273
Width: 501
Flags: W
HStem: 0 21G<53 167 334 448> 428 118<260 297>
VStem: 53 110<0 532> 197 108<-173 -60> 260 45<-179 -163> 334 114<0 368>
Fore
163 532 m 1xec
 163 451 l 1
 194 517 235 546 297 546 c 0
 389 546 448 477 448 368 c 2
 448 0 l 1
 334 0 l 1
 334 323 l 2
 334 397 312 428 260 428 c 0
 203 428 167 381 167 305 c 2
 167 0 l 1
 53 0 l 1
 53 532 l 1
 163 532 l 1xec
197 -60 m 1xf4
 305 -60 l 1
 305 -163 l 2
 305 -212 293 -248 268 -273 c 0
 249 -292 221 -306 197 -307 c 1
 197 -261 l 1xf4
 237 -253 262 -220 260 -178 c 1
 260 -172 l 1xec
 197 -172 l 1
 197 -60 l 1xf4
EndSplineSet
Ligature: 0 0 'liga' n uni0327
EndChar
StartChar: omacron
Encoding: 380 333 274
Width: 501
Flags: W
HStem: -14 118<251 257> 428 118<236.556 257> 605 73<109 392>
VStem: 28 118<241 291> 356 118<241 291>
Fore
254 546 m 0
 387 546 474 434 474 265 c 0
 474 96 386 -14 251 -14 c 0
 116 -14 28 96 28 265 c 0
 28 437 115 546 254 546 c 0
252 428 m 0
 183 428 146 372 146 266 c 0
 146 161 183 104 251 104 c 0
 319 104 356 161 356 266 c 0
 356 370 319 428 252 428 c 0
392 678 m 1
 392 605 l 1
 109 605 l 1
 109 678 l 1
 392 678 l 1
EndSplineSet
Ligature: 0 0 'liga' o uni0304
EndChar
StartChar: rcommaaccent
Encoding: 381 343 275
Width: 319
Flags: W
HStem: 0 21G<52 166> 404 142<275 293>
VStem: 52 110<0 532> 58 108<-173 -60> 121 45<-179 -163>
Fore
52 0 m 1xe0
 52 532 l 1
 162 532 l 1
 162 437 l 1xe0
 196 518 227 546 283 546 c 0
 288 546 293 546 306 544 c 1
 306 402 l 1
 298 403 288 404 277 404 c 0
 202 404 166 363 166 277 c 2
 166 0 l 1xc8
 52 0 l 1xe0
58 -60 m 1xd0
 166 -60 l 1
 166 -163 l 2
 166 -212 154 -248 129 -273 c 0
 110 -292 82 -306 58 -307 c 1
 58 -261 l 1xd0
 98 -253 123 -220 121 -178 c 1
 121 -172 l 1xc8
 58 -172 l 1
 58 -60 l 1xd0
EndSplineSet
Ligature: 0 0 'liga' r uni0327
EndChar
StartChar: umacron
Encoding: 382 363 276
Width: 501
Flags: W
HStem: -14 118<201 242> 512 20G<54 168 333 447> 605 73<109 392>
VStem: 54 114<181 531> 333 114<203 532>
Fore
447 532 m 1
 447 0 l 1
 337 0 l 1
 337 78 l 1
 307 15 265 -14 201 -14 c 0
 107 -14 54 57 54 182 c 2
 54 532 l 1
 168 532 l 1
 168 202 l 2
 168 138 193 104 242 104 c 0
 299 104 333 150 333 225 c 2
 333 532 l 1
 447 532 l 1
392 678 m 1
 392 605 l 1
 109 605 l 1
 109 678 l 1
 392 678 l 1
EndSplineSet
Ligature: 0 0 'liga' u uni0304
EndChar
StartChar: uogonek
Encoding: 383 371 277
Width: 501
Flags: W
HStem: -228 57<392 407> -14 118<201 242> 512 20G<54 168 333 447>
VStem: 54 114<181 532> 289 77<-134 -115> 333 114<203 532>
Fore
447 532 m 1xf4
 447 -4 l 1xf4
 394 -42 366 -85 366 -125 c 0
 366 -150 383 -171 403 -171 c 0
 418 -171 440 -165 465 -155 c 1
 480 -204 l 1
 439 -222 419 -228 392 -228 c 0
 331 -228 289 -189 289 -132 c 0xf8
 289 -92 307 -52 338 -26 c 1
 347 -17 354 -13 378 0 c 1
 337 0 l 1
 337 78 l 1
 307 15 265 -14 201 -14 c 0
 107 -14 54 57 54 182 c 2
 54 532 l 1
 168 532 l 1
 168 202 l 2
 168 138 193 104 242 104 c 0
 299 104 333 150 333 225 c 2
 333 532 l 1
 447 532 l 1xf4
EndSplineSet
Ligature: 0 0 'liga' u uni0328
EndChar
StartChar: rcaron
Encoding: 384 345 278
Width: 319
Flags: W
HStem: 0 21G<52 166> 404 142<269 287> 604 146<30 226>
VStem: 52 110<0 532>
DStem: 30 750 123 750 123 604 174 668 226 750 319 750 174 668 226 604
Fore
52 0 m 1
 52 532 l 1
 162 532 l 1
 162 437 l 1
 196 518 227 546 283 546 c 0
 288 546 293 546 306 544 c 1
 306 402 l 1
 298 403 288 404 277 404 c 0
 202 404 166 363 166 277 c 2
 166 0 l 1
 52 0 l 1
319 750 m 1
 226 604 l 1
 123 604 l 1
 30 750 l 1
 123 750 l 1
 174 668 l 1
 226 750 l 1
 319 750 l 1
EndSplineSet
Ligature: 0 0 'liga' r uni030C
EndChar
StartChar: scedilla
Encoding: 385 351 279
Width: 456
Flags: W
HStem: -228 57<200 218> -96 189<214 236> 439 107<222 238>
VStem: 41 112<369 391> 246 77<-134 -127> 311 115<146 166>
DStem: 203 -13 250 -13 164 -84 227 -55
Fore
413 370 m 1xf4
 300 370 l 1
 292 422 272 439 222 439 c 0
 177 439 153 422 153 389 c 0
 153 361 181 343 247 331 c 0
 323 316 383 284 406 247 c 0
 419 225 426 197 426 166 c 0xf4
 426 59 363 -4 250 -13 c 1
 227 -55 l 1
 236 -52 243 -51 251 -51 c 0
 293 -51 323 -83 323 -129 c 0
 323 -188 281 -228 218 -228 c 0
 191 -228 172 -223 127 -203 c 1
 145 -155 l 1
 175 -166 194 -171 207 -171 c 0
 228 -171 246 -153 246 -132 c 0xf8
 246 -112 232 -96 214 -96 c 0
 207 -96 197 -99 181 -104 c 1
 164 -84 l 1
 203 -13 l 1
 88 1 30 60 25 170 c 1
 143 170 l 1
 145 117 174 93 236 93 c 0
 282 93 311 114 311 148 c 0
 311 176 281 194 216 207 c 0
 95 230 41 280 41 369 c 0
 41 406 50 441 67 470 c 0
 97 521 149 546 222 546 c 0
 276 546 322 532 353 507 c 0
 389 478 404 444 413 370 c 1xf4
EndSplineSet
Ligature: 0 0 'liga' s uni0327
EndChar
StartChar: gcommaaccent
Encoding: 386 291 280
Width: 501
Flags: W
HStem: -217 107<232 258> -3 118<220 243> 424 122<215 243> 718 21G<242 305>
VStem: 33 118<246 280> 197 45<709 724> 197 108<606 718> 338 115<-10 80 246 532>
Fore
343 532 m 1xf9
 453 532 l 1
 453 28 l 2
 453 -59 439 -113 408 -151 c 0
 373 -194 313 -217 240 -217 c 0
 170 -217 115 -196 80 -156 c 0
 57 -130 49 -108 42 -57 c 1
 167 -57 l 1
 170 -72 172 -78 177 -85 c 0
 187 -101 211 -110 243 -110 c 0
 310 -110 338 -74 338 11 c 2
 338 80 l 1
 308 18 278 -3 220 -3 c 0
 105 -3 33 102 33 271 c 0
 33 437 105 546 215 546 c 0
 275 546 313 518 343 450 c 1
 343 532 l 1xf9
243 424 m 0
 186 424 151 364 151 267 c 0
 151 172 185 115 243 115 c 0
 304 115 339 171 339 267 c 0
 339 360 300 424 243 424 c 0
305 606 m 1xfb
 197 606 l 1xfb
 197 709 l 2xfd
 197 758 209 794 234 819 c 0
 253 838 281 852 305 853 c 1
 305 807 l 1xfb
 265 799 240 766 242 724 c 1
 242 718 l 1xfd
 305 718 l 1
 305 606 l 1xfb
EndSplineSet
Ligature: 0 0 'liga' g uni0327
EndChar
StartChar: iogonek
Encoding: 387 303 281
Width: 228
Flags: W
HStem: -228 57<116 129> -20 20G<57 102> 512 20G<57 171> 705 20G<57 171>
VStem: 57 114<-1 532 595 725>
Fore
171 532 m 1
 171 -4 l 1
 118 -42 90 -85 90 -125 c 0
 90 -150 107 -171 127 -171 c 0
 142 -171 164 -165 189 -155 c 1
 204 -204 l 1
 163 -222 143 -228 116 -228 c 0
 55 -228 13 -189 13 -132 c 0
 13 -92 31 -52 62 -26 c 1
 71 -17 78 -13 102 0 c 1
 57 0 l 1
 57 532 l 1
 171 532 l 1
171 725 m 1
 171 595 l 1
 57 595 l 1
 57 725 l 1
 171 725 l 1
EndSplineSet
Ligature: 0 0 'liga' i uni0328
EndChar
StartChar: Scommaaccent
Encoding: 388 536 282
Width: 547
Flags: W
HStem: -19 123<259 293> 614 123<255 281>
VStem: 41 115<511 529> 220 108<-173 -60> 283 45<-179 -163> 398 118<188 214>
Fore
32 221 m 1xe4
 150 221 l 1
 155 142 196 104 278 104 c 0
 354 104 398 138 398 196 c 0
 398 243 374 263 291 287 c 2
 228 305 l 2
 153 326 116 343 91 369 c 1
 58 401 41 450 41 512 c 0
 41 652 125 737 265 737 c 0
 406 737 488 655 497 505 c 1
 379 505 l 1
 370 581 334 614 261 614 c 0
 196 614 156 581 156 527 c 0
 156 486 173 466 218 452 c 2
 362 409 l 2
 472 376 516 320 516 214 c 0
 516 70 425 -19 277 -19 c 0
 174 -19 97 22 59 98 c 0
 41 134 34 163 32 221 c 1xe4
220 -60 m 1xf4
 328 -60 l 1
 328 -163 l 2
 328 -212 316 -248 291 -273 c 0
 272 -292 244 -306 220 -307 c 1
 220 -261 l 1xf4
 260 -253 285 -220 283 -178 c 1
 283 -172 l 1xec
 220 -172 l 1
 220 -60 l 1xf4
EndSplineSet
Ligature: 0 0 'liga' S uni0326
EndChar
StartChar: Eth
Encoding: 389 208 283
Width: 592
Flags: W
HStem: 0 123<182 317> 317 123<-4 62 182 319> 595 123<62 319>
VStem: 62 120<0 317 440 595> 437 125<335 401>
Fore
62 317 m 1
 -4 317 l 1
 -4 440 l 1
 62 440 l 1
 62 718 l 1
 322 718 l 2
 474 718 562 592 562 375 c 0
 562 250 532 144 478 75 c 0
 440 26 383 0 317 0 c 2
 62 0 l 1
 62 317 l 1
182 595 m 1
 182 440 l 1
 319 440 l 1
 319 317 l 1
 182 317 l 1
 182 123 l 1
 303 123 l 2
 387 123 437 214 437 369 c 0
 437 522 393 595 301 595 c 2
 182 595 l 1
EndSplineSet
EndChar
StartChar: Dcroat
Encoding: 390 272 284
Width: 592
Flags: W
HStem: 0 123<182 317> 317 123<-4 62 182 319> 595 123<62 319>
VStem: 62 120<0 317 440 595> 437 125<335 401>
Fore
62 317 m 1
 -4 317 l 1
 -4 440 l 1
 62 440 l 1
 62 718 l 1
 322 718 l 2
 474 718 562 592 562 375 c 0
 562 250 532 144 478 75 c 0
 440 26 383 0 317 0 c 2
 62 0 l 1
 62 317 l 1
182 595 m 1
 182 440 l 1
 319 440 l 1
 319 317 l 1
 182 317 l 1
 182 123 l 1
 303 123 l 2
 387 123 437 214 437 369 c 0
 437 522 393 595 301 595 c 2
 182 595 l 1
EndSplineSet
EndChar
StartChar: Thorn
Encoding: 391 222 285
Width: 547
Flags: W
HStem: 0 21G<62 185> 159 123<185 326> 698 20G<62 185>
VStem: 62 123<0 159 0 497 0 718> 391 123<383 401>
Fore
62 0 m 1
 62 718 l 1
 185 718 l 1
 185 620 l 1
 331 620 l 2
 442 620 514 531 514 394 c 0
 514 252 440 159 326 159 c 2
 185 159 l 1
 185 0 l 1
 62 0 l 1
185 282 m 1
 299 282 l 2
 361 282 391 317 391 392 c 0
 391 466 359 497 283 497 c 2
 185 497 l 1
 185 282 l 1
EndSplineSet
EndChar
StartChar: dcroat
Encoding: 392 273 286
Width: 501
Flags: W
HStem: -14 115<212 242> 424 122<211 246> 596 67<219 338 452 501> 698 20G<338 452>
VStem: 28 118<241 291> 340 112<0 596 663 718>
Fore
452 663 m 1
 501 663 l 1
 501 596 l 1
 452 596 l 1
 452 0 l 1
 340 0 l 1
 340 70 l 1
 312 13 271 -14 212 -14 c 0
 100 -14 28 98 28 272 c 0
 28 437 101 546 211 546 c 0
 267 546 303 521 338 460 c 1
 338 596 l 1
 219 596 l 1
 219 663 l 1
 338 663 l 1
 338 718 l 1
 452 718 l 1
 452 663 l 1
246 424 m 0
 183 424 146 365 146 264 c 0
 146 164 183 101 242 101 c 0
 306 101 342 159 342 260 c 0
 342 364 307 424 246 424 c 0
EndSplineSet
EndChar
StartChar: eth
Encoding: 393 240 287
Width: 501
Flags: W
HStem: -14 118<248 256> 405 118<226 253>
VStem: 28 118<241 275> 356 118<257 291>
Fore
430 685 m 1
 347 641 l 1
 399 576 421 539 443 475 c 0
 464 416 474 356 474 291 c 0
 474 106 386 -14 250 -14 c 0
 117 -14 28 95 28 260 c 0
 28 413 111 523 226 523 c 0
 274 523 305 506 337 460 c 1
 317 511 296 545 253 591 c 1
 165 544 l 1
 113 596 l 1
 202 643 l 1
 179 663 159 678 142 688 c 1
 231 737 l 1
 254 725 274 711 295 693 c 1
 379 737 l 1
 430 685 l 1
253 405 m 0
 188 405 146 345 146 252 c 0
 146 162 188 104 252 104 c 0
 316 104 356 165 356 260 c 0
 356 346 314 405 253 405 c 0
EndSplineSet
EndChar
StartChar: thorn
Encoding: 394 254 288
Width: 501
Flags: W
HStem: -14 115<259 289> 424 122<258 291> 698 20G<51 165>
VStem: 51 109<-207 274> 356 118<240 290>
Fore
165 71 m 1
 165 -207 l 1
 51 -207 l 1
 51 718 l 1
 165 718 l 1
 165 461 l 1
 198 521 235 546 291 546 c 0
 401 546 474 437 474 272 c 0
 474 97 402 -14 289 -14 c 0
 230 -14 195 10 165 71 c 1
258 424 m 0
 194 424 160 366 160 258 c 0
 160 159 197 101 259 101 c 0
 319 101 356 165 356 265 c 0
 356 364 319 424 258 424 c 0
EndSplineSet
EndChar
StartChar: Euro
Encoding: 395 8364 289
Width: 440
Flags: W
HStem: -12 111<268 289> 231 83<28 80 223 301> 343 83<28 80 223 338> 565 113<268 289>
VStem: 80 143<179 231 313 343 425 485>
Fore
223 426 m 1
 366 426 l 1
 338 343 l 1
 223 343 l 1
 223 314 l 1
 330 314 l 1
 301 231 l 1
 223 231 l 1
 223 207 l 2
 223 155 225 140 232 126 c 0
 240 108 256 99 279 99 c 0
 319 99 354 112 401 146 c 1
 401 16 l 1
 352 -5 319 -12 270 -12 c 0
 185 -12 127 20 100 83 c 0
 86 113 80 153 80 212 c 2
 80 231 l 1
 0 231 l 1
 29 314 l 1
 80 314 l 1
 80 343 l 1
 0 343 l 1
 29 426 l 1
 80 426 l 1
 80 495 l 2
 80 609 152 678 270 678 c 0
 336 678 377 663 433 619 c 1
 392 509 l 1
 353 549 319 565 279 565 c 0
 240 565 223 536 223 467 c 2
 223 426 l 1
EndSplineSet
EndChar
StartChar: onesuperior
Encoding: 396 185 290
Width: 273
Flags: W
HStem: 574 62<21 111> 690 20G<124 194>
VStem: 111 83<283 710>
Fore
21 574 m 1
 21 636 l 1
 32 636 l 2
 89 636 120 661 124 710 c 1
 194 710 l 1
 194 283 l 1
 111 283 l 1
 111 574 l 1
 21 574 l 1
EndSplineSet
EndChar
StartChar: twosuperior
Encoding: 397 178 291
Width: 273
Flags: W
HStem: 283 82<113 266> 644 78<126 139>
VStem: 187 78<570 588>
Fore
83 558 m 1
 11 558 l 1
 13 609 18 634 33 661 c 0
 54 700 90 722 136 722 c 0
 212 722 265 662 265 576 c 0
 265 532 251 494 224 463 c 1
 213 452 213 452 167 416 c 0
 144 398 120 376 113 365 c 1
 266 365 l 1
 266 283 l 1
 7 283 l 1
 12 371 35 409 128 482 c 1
 173 520 187 545 187 586 c 0
 187 618 164 644 137 644 c 0
 101 644 86 619 83 558 c 1
EndSplineSet
EndChar
StartChar: threesuperior
Encoding: 398 179 292
Width: 273
Flags: W
HStem: 271 75<131 140> 479 64<106 120> 647 75<131 139>
VStem: 178 78<590 607> 187 80<399.311 432>
Fore
7 425 m 1xe8
 80 425 l 1
 81 371 98 346 134 346 c 0
 169 346 187 371 187 417 c 0xe8
 187 463 167 479 106 479 c 1
 106 543 l 1
 118 543 l 2
 161 543 178 558 178 595 c 0
 178 629 162 647 133 647 c 0
 101 647 84 626 83 585 c 1
 14 585 l 1
 15 625 20 645 33 668 c 0
 54 703 91 722 137 722 c 0
 209 722 256 676 256 605 c 0xf0
 256 564 241 538 209 520 c 1
 248 504 267 471 267 418 c 0
 267 332 213 271 136 271 c 0
 101 271 70 282 48 303 c 0
 21 329 11 360 7 425 c 1xe8
EndSplineSet
EndChar
StartChar: degree
Encoding: 399 176 293
Width: 328
Flags: W
HStem: 426 57<164 168> 655 57<165 176>
VStem: 47 46<554.688 572> 235 46<554.688 572>
Fore
165 712 m 0
 228 712 281 647 281 569 c 0
 281 490 228 426 164 426 c 0
 100 426 47 490 47 569 c 0
 47 648 100 712 165 712 c 0
165 655 m 0
 125 655 93 617 93 569 c 0
 93 522 125 483 164 483 c 0
 203 483 235 522 235 569 c 0
 235 615 203 655 165 655 c 0
EndSplineSet
EndChar
StartChar: minus
Encoding: 400 8722 294
Width: 479
Flags: W
HStem: 197 112<33 446>
Fore
446 197 m 1
 33 197 l 1
 33 309 l 1
 446 309 l 1
 446 197 l 1
EndSplineSet
EndChar
StartChar: multiply
Encoding: 401 215 295
Width: 479
Flags: W
DStem: 33 426 98 505 175 253 240 332 175 253 240 174 33 80 99 1 240 174 304 253 381 1 447 80 381 505 446 426 240 332 304 253
Fore
175 253 m 1
 33 426 l 1
 98 505 l 1
 240 332 l 1
 381 505 l 1
 446 426 l 1
 304 253 l 1
 447 80 l 1
 381 1 l 1
 240 174 l 1
 99 1 l 1
 33 80 l 1
 175 253 l 1
EndSplineSet
EndChar
StartChar: divide
Encoding: 402 247 296
Width: 479
Flags: W
HStem: -42 177<229.46 243> 197 112<33 446> 371 177<229.46 243>
VStem: 167 145<37 55 453 471>
CounterMasks: 1 00
Fore
446 197 m 1
 33 197 l 1
 33 309 l 1
 446 309 l 1
 446 197 l 1
240 548 m 0
 278 548 312 506 312 460 c 0
 312 413 278 371 240 371 c 0
 201 371 167 412 167 459 c 0
 167 508 200 548 240 548 c 0
240 135 m 0
 278 135 312 93 312 47 c 0
 312 1 277 -42 240 -42 c 0
 201 -42 167 -1 167 46 c 0
 167 95 200 135 240 135 c 0
EndSplineSet
EndChar
StartChar: trademark
Encoding: 403 8482 297
Width: 820
Flags: W
HStem: 633 85<36 129 36 316>
VStem: 129 92<306 633> 380 87<306 593> 697 87<306 718>
DStem: 467 593 505 718 549 306 582 468 659 718 697 593 582 468 615 306
Fore
505 718 m 1
 582 468 l 1
 659 718 l 1
 784 718 l 1
 784 306 l 1
 697 306 l 1
 697 593 l 1
 615 306 l 1
 549 306 l 1
 467 593 l 1
 467 306 l 1
 380 306 l 1
 380 718 l 1
 505 718 l 1
316 718 m 1
 316 633 l 1
 221 633 l 1
 221 306 l 1
 129 306 l 1
 129 633 l 1
 36 633 l 1
 36 718 l 1
 316 718 l 1
EndSplineSet
Ligature: 0 1 'liga' T M
EndChar
StartChar: plusminus
Encoding: 404 177 298
Width: 479
Flags: W
HStem: 0 112<33 446> 269 112<33 194 286 446>
VStem: 194 92<143 269 381 578>
Fore
194 381 m 1
 194 578 l 1
 286 578 l 1
 286 381 l 1
 446 381 l 1
 446 269 l 1
 286 269 l 1
 286 143 l 1
 194 143 l 1
 194 269 l 1
 33 269 l 1
 33 381 l 1
 194 381 l 1
33 0 m 1
 33 112 l 1
 446 112 l 1
 446 0 l 1
 33 0 l 1
EndSplineSet
EndChar
StartChar: onehalf
Encoding: 405 189 299
Width: 684
Flags: W
HStem: 0 82<498 651> 361 78<511 528> 574 62<21 111> 690 20G<124 194 462 526>
VStem: 111 83<283 710> 572 78<291 305>
DStem: 462 710 526 710 111 -19 176 -19
Fore
111 -19 m 1
 462 710 l 1
 526 710 l 1
 176 -19 l 1
 111 -19 l 1
21 574 m 1
 21 636 l 1
 32 636 l 2
 89 636 120 661 124 710 c 1
 194 710 l 1
 194 283 l 1
 111 283 l 1
 111 574 l 1
 21 574 l 1
469 275 m 1
 397 275 l 1
 398 326 404 351 418 378 c 0
 439 417 476 439 521 439 c 0
 597 439 650 379 650 293 c 0
 650 249 636 211 609 180 c 0
 598 168 598 168 552 133 c 0
 528 114 506 93 498 82 c 1
 651 82 l 1
 651 0 l 1
 393 0 l 1
 397 88 420 126 513 199 c 1
 558 237 572 262 572 303 c 0
 572 335 550 361 522 361 c 0
 487 361 471 335 469 275 c 1
EndSplineSet
Ligature: 0 1 'frac' one slash two
Ligature: 0 1 'frac' one fraction two
EndChar
StartChar: onequarter
Encoding: 406 188 300
Width: 684
Flags: W
HStem: 0 157<418 587> 90 67<418 509 587 628> 574 62<21 111> 690 20G<124 194 462 526>
VStem: 111 83<283 710> 509 78<0 90>
DStem: 462 710 526 710 111 -19 176 -19 498 424 514 343 359 163 418 157
Fore
587 424 m 1x7c
 587 158 l 1
 628 158 l 1
 628 90 l 1
 587 90 l 1x7c
 587 0 l 1
 509 0 l 1xbc
 509 90 l 1
 359 90 l 1
 359 163 l 1
 498 424 l 1
 587 424 l 1x7c
418 157 m 1xbc
 512 157 l 1
 513 264 513 288 514 343 c 1
 418 157 l 1xbc
111 -19 m 1
 462 710 l 1
 526 710 l 1
 176 -19 l 1
 111 -19 l 1
21 574 m 1
 21 636 l 1
 32 636 l 2
 89 636 120 661 124 710 c 1
 194 710 l 1
 194 283 l 1
 111 283 l 1
 111 574 l 1
 21 574 l 1
EndSplineSet
Ligature: 0 1 'frac' one slash four
Ligature: 0 1 'frac' one fraction four
EndChar
StartChar: threequarters
Encoding: 407 190 301
Width: 684
Flags: W
HStem: 0 158<444 614> 90 68<444 536 614 655> 271 75<137 149> 479 64<112 126> 647 75<127.584 149>
VStem: 184 78<588 607> 194 80<399.406 430> 386 228<90 90 90 424> 536 78<0 90 158 339>
DStem: 498 710 562 710 147 -19 212 -19 525 424 538 339 386 163 444 158
Fore
614 424 m 1x79
 614 158 l 1xb9
 655 158 l 1
 655 90 l 1
 614 90 l 1x79
 614 0 l 1
 536 0 l 1xb880
 536 90 l 1x7880
 386 90 l 1
 386 163 l 1
 525 424 l 1
 614 424 l 1x79
444 158 m 1
 536 158 l 1xb880
 536 259 537 289 538 339 c 1
 444 158 l 1
147 -19 m 1
 498 710 l 1
 562 710 l 1
 212 -19 l 1
 147 -19 l 1
13 425 m 1
 87 425 l 1
 86 420 86 416 86 414 c 0
 86 373 108 346 141 346 c 0
 175 346 194 371 194 417 c 0x3a
 194 463 174 479 112 479 c 1
 112 543 l 1
 124 543 l 2
 167 543 184 558 184 595 c 0
 184 629 168 647 139 647 c 0
 107 647 90 626 89 585 c 1
 19 585 l 1
 21 625 26 645 39 668 c 0
 60 703 96 722 142 722 c 0
 214 722 262 675 262 605 c 0x3c
 262 564 247 538 215 520 c 1
 255 504 274 471 274 418 c 0x3a
 274 331 220 271 142 271 c 0
 108 271 76 282 54 303 c 0
 27 329 16 360 13 425 c 1
EndSplineSet
Ligature: 0 1 'frac' three slash four
Ligature: 0 1 'frac' three fraction four
EndChar
StartChar: commaaccent
Encoding: 408 63171 302
Width: 273
Flags: W
VStem: 83 108<-173 -60>
Fore
83 -60 m 1
 191 -60 l 1
 191 -163 l 2
 191 -212 179 -248 154 -273 c 0
 135 -292 107 -306 83 -307 c 1
 83 -261 l 1
 123 -253 148 -220 146 -178 c 1
 146 -172 l 1
 83 -172 l 1
 83 -60 l 1
EndSplineSet
EndChar
StartChar: copyright
Encoding: 409 169 303
Width: 604
Flags: W
HStem: -19 88<294 320> 146 87<305 328> 492 87<301 328> 650 87<294 320>
VStem: -9 90<359 382> 144 85<348 382> 524 90<360 382>
Fore
388 303 m 1
 462 303 l 1
 454 256 445 233 426 205 c 0
 398 167 358 146 313 146 c 0
 215 146 144 237 144 364 c 0
 144 491 213 579 312 579 c 0
 362 579 403 556 429 513 c 0
 445 489 451 468 458 426 c 1
 388 426 l 1
 379 469 354 492 314 492 c 0
 262 492 229 443 229 367 c 0
 229 288 265 233 317 233 c 0
 358 233 383 257 388 303 c 1
306 737 m 0
 415 737 517 670 570 563 c 0
 599 505 614 435 614 360 c 0
 614 141 483 -19 302 -19 c 0
 122 -19 -9 140 -9 359 c 0
 -9 581 121 737 306 737 c 0
305 650 m 0
 174 650 81 529 81 359 c 0
 81 190 174 69 304 69 c 0
 430 69 524 194 524 360 c 0
 524 524 429 650 305 650 c 0
EndSplineSet
EndChar
StartChar: registered
Encoding: 410 174 304
Width: 604
Flags: W
HStem: -19 88<283 316> 495 68<179 316> 649 88<283 316>
VStem: -9 90<358 382> 179 72<157 328 157 495> 364 77<438 449> 523 90<359 382>
DStem: 285 328 361 335 362 157 446 157
Fore
251 328 m 1
 251 157 l 1
 179 157 l 1
 179 563 l 1
 304 563 l 2
 399 563 441 525 441 440 c 0
 441 374 417 343 361 335 c 1
 446 157 l 1
 362 157 l 1
 285 328 l 1
 251 328 l 1
251 396 m 1
 314 396 l 2
 350 396 364 410 364 447 c 0
 364 481 346 495 301 495 c 2
 251 495 l 1
 251 396 l 1
306 737 m 0
 483 737 613 577 613 359 c 0
 613 139 483 -19 302 -19 c 0
 122 -19 -9 139 -9 358 c 0
 -9 581 121 737 306 737 c 0
304 649 m 0
 174 649 81 528 81 358 c 0
 81 190 174 69 304 69 c 0
 429 69 523 194 523 359 c 0
 523 523 428 649 304 649 c 0
EndSplineSet
EndChar
StartChar: lozenge
Encoding: 411 9674 305
Width: 405
Flags: W
HStem: 0 21G<171 221>
DStem: 15 377 106 376 171 0 197 152 176 740 201 591 15 377 106 376 201 591 227 740 291 374 382 374 291 374 382 374 197 152 221 0
Fore
171 0 m 1
 15 377 l 1
 176 740 l 1
 227 740 l 1
 382 374 l 1
 221 0 l 1
 171 0 l 1
197 152 m 1
 291 374 l 1
 201 591 l 1
 106 376 l 1
 197 152 l 1
EndSplineSet
EndChar
StartChar: Delta
Encoding: 412 8710 306
Width: 502
Flags: W
HStem: 0 51<63 499>
DStem: 238 509 268 688 393 51 499 0 268 688 238 509 5 0 63 51
Fore
5 0 m 1
 268 688 l 1
 499 0 l 1
 5 0 l 1
63 51 m 1
 393 51 l 1
 238 509 l 1
 63 51 l 1
EndSplineSet
EndChar
StartChar: notequal
Encoding: 413 8800 307
Width: 479
Flags: W
HStem: 87 112<33 120 269 446> 307 112<33 210 359 446>
DStem: 210 307 313 307 166 199 269 199
Fore
313 307 m 1
 269 199 l 1
 446 199 l 1
 446 87 l 1
 222 87 l 1
 180 -16 l 1
 98 34 l 1
 120 87 l 1
 33 87 l 1
 33 199 l 1
 166 199 l 1
 210 307 l 1
 33 307 l 1
 33 419 l 1
 257 419 l 1
 299 522 l 1
 381 472 l 1
 359 419 l 1
 446 419 l 1
 446 307 l 1
 313 307 l 1
EndSplineSet
Ligature: 0 1 'liga' equal uni0338
EndChar
StartChar: radical
Encoding: 414 8730 308
Width: 450
Flags: W
DStem: 86 418 140 563 268 -35 275 230 366 918 448 903 275 230 324 -35
Fore
268 -35 m 1
 86 418 l 1
 9 371 l 1
 -27 463 l 1
 140 563 l 1
 275 230 l 1
 366 918 l 1
 448 903 l 1
 324 -35 l 1
 268 -35 l 1
EndSplineSet
EndChar
StartChar: lessequal
Encoding: 415 8804 309
Width: 479
Flags: W
HStem: 0 112<31 448>
DStem: 31 351 164 404 448 135 448 258 448 672 448 549 31 456 164 404
Fore
448 135 m 1
 31 351 l 1
 31 456 l 1
 448 672 l 1
 448 549 l 1
 164 404 l 1
 448 258 l 1
 448 135 l 1
448 0 m 1
 31 0 l 1
 31 112 l 1
 448 112 l 1
 448 0 l 1
EndSplineSet
EndChar
StartChar: greaterequal
Encoding: 416 8805 310
Width: 479
Flags: W
HStem: 0 112<31 448>
DStem: 31 549 31 672 315 404 448 456 315 404 448 351 31 258 31 135
Fore
31 135 m 1
 31 258 l 1
 315 404 l 1
 31 549 l 1
 31 672 l 1
 448 456 l 1
 448 351 l 1
 31 135 l 1
31 0 m 1
 31 112 l 1
 448 112 l 1
 448 0 l 1
 31 0 l 1
EndSplineSet
EndChar
StartChar: logicalnot
Encoding: 417 172 311
Width: 479
Flags: W
HStem: 307 112<33 354>
VStem: 354 92<108 419>
Fore
354 108 m 1
 354 307 l 1
 33 307 l 1
 33 419 l 1
 446 419 l 1
 446 108 l 1
 354 108 l 1
EndSplineSet
EndChar
StartChar: summation
Encoding: 418 8721 312
Width: 585
Flags: W
HStem: -123 112<134 526> 587 165<19 519> 711 41<19 381>
DStem: 19 752 145 711 210 285 299 341 210 285 299 341 12 -123 134 -11
Fore
145 711 m 1xa0
 299 341 l 1
 134 -11 l 1
 403 -11 l 2
 498 -11 523 6 549 87 c 1
 570 87 l 1
 526 -123 l 1
 12 -123 l 1
 210 285 l 1
 19 752 l 1
 511 752 l 1
 519 587 l 1
 497 587 l 1xc0
 483 689 459 711 364 711 c 2
 145 711 l 1xa0
EndSplineSet
EndChar
StartChar: partialdiff
Encoding: 419 8706 313
Width: 405
Flags: W
HStem: -21 52<158 175> 346 66<181 213> 674 69<159 180>
VStem: 12 90<154 179> 301 87<391 434>
Fore
85 640 m 1
 38 709 l 1
 100 736 123 743 159 743 c 0
 290 743 388 592 388 391 c 0
 388 276 360 143 322 76 c 0
 285 12 235 -21 175 -21 c 0
 84 -21 12 68 12 179 c 0
 12 242 33 305 71 354 c 0
 102 393 138 412 181 412 c 0
 222 412 252 398 298 357 c 1
 300 395 301 412 301 434 c 0
 301 585 256 674 180 674 c 0
 151 674 130 667 85 640 c 1
290 299 m 1
 287 303 286 303 282 308 c 0
 260 334 238 346 213 346 c 0
 153 346 102 258 102 154 c 0
 102 78 126 31 165 31 c 0
 197 31 230 61 249 108 c 0
 269 157 278 197 290 299 c 1
EndSplineSet
EndChar
StartChar: brokenbar
Encoding: 420 166 314
Width: 230
Flags: W
HStem: -19 21G<69 161> 717 20G<69 161>
VStem: 69 92<-19 271 447 737>
Fore
69 -19 m 1
 69 271 l 1
 161 271 l 1
 161 -19 l 1
 69 -19 l 1
69 447 m 1
 69 737 l 1
 161 737 l 1
 161 447 l 1
 69 447 l 1
EndSplineSet
EndChar
StartChar: mu
Encoding: 421 181 315
Width: 501
Flags: W
HStem: -14 118<228 242> 512 20G<54 168 333 447>
VStem: 54 114<-207 12 -207 532> 333 114<203 532>
Fore
447 532 m 1
 447 0 l 1
 337 0 l 1
 337 78 l 1
 308 16 273 -14 228 -14 c 0
 202 -14 185 -7 168 12 c 1
 168 -207 l 1
 54 -207 l 1
 54 532 l 1
 168 532 l 1
 168 202 l 2
 168 138 193 104 242 104 c 0
 299 104 333 150 333 225 c 2
 333 532 l 1
 447 532 l 1
EndSplineSet
EndChar
StartChar: afii10017
Encoding: 422 1040 316
Width: 592
Flags: W
HStem: 0 21G<16 146 442 576> 148 123<220 404> 698 20G<226 368>
DStem: 226 718 296 559 16 0 220 271 226 718 187 148 16 0 146 0
Fore
187 148 m 1
 146 0 l 1
 16 0 l 1
 226 718 l 1
 368 718 l 1
 576 0 l 1
 442 0 l 1
 404 148 l 1
 187 148 l 1
296 559 m 1
 220 271 l 1
 370 271 l 1
 296 559 l 1
EndSplineSet
EndChar
StartChar: afii10018
Encoding: 423 1041 317
Width: 592
Flags: W
HStem: 0 123<180 339> 315 122<180 351> 591 127<62 481>
VStem: 62 118<0 315 0 591> 426 123<207 227>
Fore
481 591 m 1
 180 591 l 1
 180 437 l 1
 324 437 l 2
 494 437 511 351 527 320 c 0
 541 292 549 255 549 216 c 0
 549 157 532 105 498 64 c 0
 457 15 413 0 311 0 c 2
 62 0 l 1
 62 718 l 1
 481 718 l 1
 481 591 l 1
180 315 m 1
 180 123 l 1
 331 123 l 2
 393 123 426 159 426 225 c 0
 426 282 393 315 337 315 c 2
 180 315 l 1
EndSplineSet
EndChar
StartChar: afii10019
Encoding: 424 1042 318
Width: 592
Flags: W
HStem: 0 123<180 348> 315 122<180 339> 595 123<62 339>
VStem: 62 118<0 315 0 595> 412 118<511 533> 426 123<207 227>
Fore
62 0 m 1xf4
 62 718 l 1
 348 718 l 2
 461 718 530 647 530 531 c 0xf8
 530 460 509 418 458 387 c 1
 495 367 511 351 527 320 c 0
 541 292 549 255 549 216 c 0
 549 157 532 105 498 64 c 0
 457 15 413 0 311 0 c 2
 62 0 l 1xf4
180 315 m 1
 180 123 l 1
 331 123 l 2
 393 123 426 159 426 225 c 0xf4
 426 282 393 315 337 315 c 2
 180 315 l 1
180 595 m 1
 180 437 l 1
 324 437 l 2
 380 437 412 466 412 519 c 0xf8
 412 571 384 595 321 595 c 2
 180 595 l 1
EndSplineSet
EndChar
StartChar: afii10020
Encoding: 425 1043 319
Width: 501
Flags: W
HStem: 0 21G<62 185> 591 127<62 481>
VStem: 62 123<0 591>
Fore
185 0 m 1
 62 0 l 1
 62 718 l 1
 481 718 l 1
 481 591 l 1
 185 591 l 1
 185 0 l 1
EndSplineSet
EndChar
StartChar: afii10021
Encoding: 426 1044 320
Width: 712
Flags: W
HStem: 0 123<256 580> 595 123<204 493>
VStem: 25 107<-120 0> 204 123<455 595> 493 123<123 718> 580 107<-120 120>
Fore
25 -120 m 1xf4
 25 120 l 1
 90 120 l 2
 152 120 204 312 204 490 c 2
 204 718 l 1
 616 718 l 1
 616 120 l 1xf8
 687 120 l 1
 687 -120 l 1
 580 -120 l 1
 580 0 l 1
 132 0 l 1
 132 -120 l 1
 25 -120 l 1xf4
256 123 m 1
 493 123 l 1
 493 595 l 1
 327 595 l 1
 327 485 l 1
 328 365 307 222 256 123 c 1
EndSplineSet
EndChar
StartChar: afii10022
Encoding: 427 1045 321
Width: 547
Flags: W
HStem: 0 127<182 509> 313 127<182 470> 591 127<62 495>
VStem: 62 120<0 313 0 591>
Fore
495 718 m 1
 495 591 l 1
 182 591 l 1
 182 440 l 1
 470 440 l 1
 470 313 l 1
 182 313 l 1
 182 127 l 1
 509 127 l 1
 509 0 l 1
 62 0 l 1
 62 718 l 1
 495 718 l 1
EndSplineSet
EndChar
StartChar: afii10023
Encoding: 428 1025 322
Width: 547
Flags: W
HStem: 0 127<182 509> 313 127<182 470> 591 127<62 495> 800 115<142 245 302 405>
VStem: 62 120<0 313 0 591> 142 103<800 915> 302 103<800 915>
Fore
495 718 m 1xfa
 495 591 l 1
 182 591 l 1
 182 440 l 1
 470 440 l 1
 470 313 l 1
 182 313 l 1
 182 127 l 1
 509 127 l 1
 509 0 l 1
 62 0 l 1
 62 718 l 1
 495 718 l 1xfa
245 915 m 1xf6
 245 800 l 1
 142 800 l 1
 142 915 l 1
 245 915 l 1xf6
405 915 m 1
 405 800 l 1
 302 800 l 1
 302 915 l 1
 405 915 l 1
EndSplineSet
Ligature: 0 1 'liga' afii10022 uni0308
EndChar
StartChar: afii10024
Encoding: 429 1046 323
Width: 878
Flags: W
HStem: 0 21G<0 158 378 500 720 878> 698 20G<14 173 378 500 705 864>
VStem: 378 122<0 284 460 718>
DStem: 14 718 173 718 292 374 378 460 292 374 378 284 0 0 158 0 500 284 586 374 720 0 878 0 705 718 864 718 500 460 586 374
Fore
378 718 m 1
 500 718 l 1
 500 460 l 1
 705 718 l 1
 864 718 l 1
 586 374 l 1
 878 0 l 1
 720 0 l 1
 500 284 l 1
 500 0 l 1
 378 0 l 1
 378 284 l 1
 158 0 l 1
 0 0 l 1
 292 374 l 1
 14 718 l 1
 173 718 l 1
 378 460 l 1
 378 718 l 1
EndSplineSet
EndChar
StartChar: afii10025
Encoding: 430 1047 324
Width: 547
Flags: W
HStem: -19 123<255.378 293> 614 123<255.75 293>
VStem: 382 115<508 529> 398 118<188 214>
Fore
212 308 m 1xd0
 212 425 l 1
 320 425 l 2
 367 425 382 486 382 527 c 0
 382 581 342 614 277 614 c 0
 204 614 168 581 159 505 c 1
 41 505 l 1
 50 655 132 737 273 737 c 0
 413 737 497 652 497 512 c 0xe0
 497 450 480 401 447 369 c 1
 496 335 516 287 516 214 c 0
 516 70 425 -19 277 -19 c 0
 174 -19 97 22 59 98 c 0
 41 134 34 163 32 221 c 1
 150 221 l 1
 155 142 196 104 278 104 c 0
 354 104 398 138 398 196 c 0
 398 243 377 308 291 308 c 2
 212 308 l 1xd0
EndSplineSet
EndChar
StartChar: afii10026
Encoding: 431 1048 325
Width: 592
Flags: W
HStem: 0 21G<57 186 422 536> 698 20G<57 171 414 536>
VStem: 57 114<0 718> 422 114<0 718>
DStem: 414 718 422 504 171 203 186 0
Fore
422 504 m 1
 186 0 l 1
 57 0 l 1
 57 718 l 1
 171 718 l 1
 171 203 l 1
 414 718 l 1
 536 718 l 1
 536 0 l 1
 422 0 l 1
 422 504 l 1
EndSplineSet
EndChar
StartChar: afii10027
Encoding: 432 1049 326
Width: 592
Flags: W
HStem: 0 21G<57 186 422 536> 698 20G<57 171 414 536> 766 77<296 314>
VStem: 57 114<0 718> 422 114<0 718>
DStem: 414 718 422 504 171 203 186 0
Fore
389 912 m 1
 442 912 l 1
 432 815 383 766 299 766 c 0
 219 766 174 814 165 912 c 1
 219 912 l 1
 228 861 250 843 304 843 c 0
 357 843 378 860 389 912 c 1
422 504 m 1
 186 0 l 1
 57 0 l 1
 57 718 l 1
 171 718 l 1
 171 203 l 1
 414 718 l 1
 536 718 l 1
 536 0 l 1
 422 0 l 1
 422 504 l 1
EndSplineSet
Ligature: 0 1 'liga' afii10026 uni0306
EndChar
StartChar: afii10028
Encoding: 433 1050 327
Width: 592
Flags: W
HStem: 0 21G<71 194 434 592> 698 20G<71 194 419 578>
VStem: 71 123<0 284 0 718>
DStem: 194 284 280 374 434 0 592 0 419 718 578 718 194 460 280 374
Fore
194 0 m 1
 71 0 l 1
 71 718 l 1
 194 718 l 1
 194 460 l 1
 419 718 l 1
 578 718 l 1
 280 374 l 1
 592 0 l 1
 434 0 l 1
 194 284 l 1
 194 0 l 1
EndSplineSet
EndChar
StartChar: afii10029
Encoding: 434 1051 328
Width: 592
Flags: W
HStem: 0 121<15 23.166> 595 123<129 418>
VStem: 129 123<447 595> 418 123<0 718>
Fore
418 595 m 1
 252 595 l 1
 252 485 l 1
 253 276 191 0 15 0 c 1
 15 121 l 1
 77 120 129 312 129 490 c 2
 129 718 l 1
 541 718 l 1
 541 0 l 1
 418 0 l 1
 418 595 l 1
EndSplineSet
EndChar
StartChar: afii10030
Encoding: 435 1052 329
Width: 683
Flags: W
HStem: 0 21G<57 171 280 401 513 627> 698 20G<57 236 450 627>
VStem: 57 114<0 609> 513 114<0 718>
DStem: 171 609 236 718 280 0 344 148 450 718 513 609 344 148 401 0
Fore
627 718 m 1
 627 0 l 1
 513 0 l 1
 513 609 l 1
 401 0 l 1
 280 0 l 1
 171 609 l 1
 171 0 l 1
 57 0 l 1
 57 718 l 1
 236 718 l 1
 344 148 l 1
 450 718 l 1
 627 718 l 1
EndSplineSet
EndChar
StartChar: afii10031
Encoding: 436 1053 330
Width: 592
Flags: W
HStem: 0 21G<58 181 411 534> 323 123<181 411> 698 20G<58 181 411 534>
VStem: 58 123<0 323 0 718> 411 123<0 718>
Fore
411 323 m 1
 181 323 l 1
 181 0 l 1
 58 0 l 1
 58 718 l 1
 181 718 l 1
 181 446 l 1
 411 446 l 1
 411 718 l 1
 534 718 l 1
 534 0 l 1
 411 0 l 1
 411 323 l 1
EndSplineSet
EndChar
StartChar: afii10032
Encoding: 437 1054 331
Width: 638
Flags: W
HStem: -19 127<319 325> 610 127<307 325>
VStem: 36 123<332 382> 479 123<332 382>
Fore
323 737 m 0
 398 737 472 701 521 642 c 0
 574 578 602 480 602 359 c 0
 602 238 574 140 521 76 c 0
 472 16 398 -19 319 -19 c 0
 216 -19 126 39 79 135 c 0
 51 194 36 270 36 358 c 0
 36 480 64 578 117 642 c 0
 167 703 241 737 323 737 c 0
321 610 m 0
 220 610 159 516 159 361 c 0
 159 203 219 108 319 108 c 0
 419 108 479 203 479 362 c 0
 479 446 460 516 425 558 c 0
 399 591 360 610 321 610 c 0
EndSplineSet
EndChar
StartChar: afii10033
Encoding: 438 1055 332
Width: 592
Flags: W
HStem: 0 21G<58 181 411 534> 595 123<58 411>
VStem: 58 123<0 595> 411 123<0 718>
Fore
411 595 m 1
 181 595 l 1
 181 0 l 1
 58 0 l 1
 58 718 l 1
 534 718 l 1
 534 0 l 1
 411 0 l 1
 411 595 l 1
EndSplineSet
EndChar
StartChar: afii10034
Encoding: 439 1056 333
Width: 547
Flags: W
HStem: 0 21G<62 185> 260 123<185 326> 595 123<62 303>
VStem: 62 123<0 260 0 595> 391 123<479 513>
Fore
185 260 m 1
 185 0 l 1
 62 0 l 1
 62 718 l 1
 331 718 l 2
 442 718 514 630 514 495 c 0
 514 353 440 260 326 260 c 2
 185 260 l 1
185 383 m 1
 299 383 l 2
 361 383 391 418 391 492 c 0
 391 566 360 595 283 595 c 2
 185 595 l 1
 185 383 l 1
EndSplineSet
EndChar
StartChar: afii10035
Encoding: 440 1057 334
Width: 592
Flags: W
HStem: -19 130<291 325> 607 130<304 325>
VStem: 36 125<332 382>
Fore
561 483 m 1
 438 483 l 1
 429 522 422 538 409 559 c 1
 388 589 353 607 312 607 c 0
 217 607 161 514 161 356 c 0
 161 203 216 111 308 111 c 0
 351 111 386 130 410 167 c 0
 423 188 429 206 438 246 c 1
 561 246 l 1
 545 161 529 120 495 74 c 0
 450 13 384 -19 306 -19 c 0
 139 -19 36 124 36 357 c 0
 36 591 141 737 309 737 c 0
 402 737 479 691 524 610 c 0
 546 570 555 540 561 483 c 1
EndSplineSet
EndChar
StartChar: afii10036
Encoding: 441 1058 335
Width: 501
Flags: W
HStem: 0 21G<189 312> 591 127<11 189 11 490>
VStem: 189 123<0 591>
Fore
312 591 m 1
 312 0 l 1
 189 0 l 1
 189 591 l 1
 11 591 l 1
 11 718 l 1
 490 718 l 1
 490 591 l 1
 312 591 l 1
EndSplineSet
EndChar
StartChar: afii10037
Encoding: 442 1059 336
Width: 547
Flags: W
HStem: 0 21G<86 225> 698 20G<12 157 396 535>
DStem: 12 718 157 718 214 282 284 428
Fore
225 0 m 1
 86 0 l 1
 214 282 l 1
 12 718 l 1
 157 718 l 1
 284 428 l 1
 396 718 l 1
 535 718 l 1
 225 0 l 1
EndSplineSet
EndChar
StartChar: afii10038
Encoding: 443 1060 337
Width: 816
Flags: W
HStem: 0 21G<346 470> 698 20G<346 470>
VStem: 30 127<351 369> 346 124<0 79 203 516 639 718> 659 127<359 369>
CounterMasks: 1 00
Fore
470 79 m 1
 470 0 l 1
 346 0 l 1
 346 78 l 1
 253 87 178 113 125 157 c 0
 64 207 30 281 30 363 c 0
 30 438 66 512 125 561 c 0
 177 604 255 631 346 639 c 1
 346 718 l 1
 470 718 l 1
 470 640 l 1
 562 632 639 604 691 561 c 0
 751 512 786 438 786 359 c 0
 786 256 728 166 632 119 c 0
 587 98 533 84 470 79 c 1
470 202 m 1
 588 217 659 274 659 359 c 0
 659 444 589 501 470 516 c 1
 470 202 l 1
346 203 m 1
 346 516 l 1
 290 508 240 491 209 465 c 0
 176 439 157 400 157 361 c 0
 157 274 228 217 346 203 c 1
EndSplineSet
EndChar
StartChar: afii10039
Encoding: 444 1061 338
Width: 547
Flags: W
HStem: 0 21G<11 155 385 535> 698 20G<22 168 381 523>
DStem: 201 367 273 245 11 0 155 0
Fore
343 373 m 1
 535 0 l 1
 385 0 l 1
 273 245 l 1
 155 0 l 1
 11 0 l 1
 201 367 l 1
 22 718 l 1
 168 718 l 1
 273 486 l 1
 381 718 l 1
 523 718 l 1
 343 373 l 1
EndSplineSet
EndChar
StartChar: afii10040
Encoding: 445 1062 339
Width: 676
Flags: W
HStem: -20 20G<58 544> 698 20G<58 181 411 534>
VStem: 58 123<0 718> 411 123<123 718> 544 107<-120 120>
Fore
411 123 m 1
 411 718 l 1
 534 718 l 1
 534 120 l 1
 651 120 l 1
 651 -120 l 1
 544 -120 l 1
 544 0 l 1
 58 0 l 1
 58 718 l 1
 181 718 l 1
 181 123 l 1
 411 123 l 1
EndSplineSet
EndChar
StartChar: afii10041
Encoding: 446 1063 340
Width: 562
Flags: W
HStem: 0 21G<381 504> 241 123<258 291> 698 20G<50 173 381 504>
VStem: 50 123<415 718> 381 123<0 718>
Fore
381 268 m 1
 360 253 336 241 258 241 c 0
 129 241 50 299 50 417 c 2
 50 718 l 1
 173 718 l 1
 173 421 l 2
 173 375 246 364 282 364 c 0
 311 364 381 379 381 421 c 2
 381 718 l 1
 504 718 l 1
 504 0 l 1
 381 0 l 1
 381 268 l 1
EndSplineSet
EndChar
StartChar: afii10042
Encoding: 447 1064 341
Width: 741
Flags: W
HStem: 0 123<181 683> 698 20G<58 181 314 437 560 683>
VStem: 58 123<0 718> 314 123<123 718> 560 123<123 718>
Fore
437 124 m 1
 560 123 l 1
 560 718 l 1
 683 718 l 1
 683 0 l 1
 58 0 l 1
 58 718 l 1
 181 718 l 1
 181 123 l 1
 314 124 l 1
 314 718 l 1
 437 718 l 1
 437 124 l 1
EndSplineSet
EndChar
StartChar: afii10043
Encoding: 448 1065 342
Width: 825
Flags: W
HStem: -20 20G<58 693> 698 20G<58 181 314 437 560 683>
VStem: 58 123<0 718> 314 123<123 718> 560 123<123 718> 693 107<-120 120>
Fore
437 123 m 1
 560 123 l 1
 560 718 l 1
 683 718 l 1
 683 120 l 1
 800 120 l 1
 800 -120 l 1
 693 -120 l 1
 693 0 l 1
 58 0 l 1
 58 718 l 1
 181 718 l 1
 181 123 l 1
 314 123 l 1
 314 718 l 1
 437 718 l 1
 437 123 l 1
EndSplineSet
EndChar
StartChar: afii10044
Encoding: 449 1066 343
Width: 713
Flags: W
HStem: 0 123<351 497> 335 123<351 475> 591 127<10 228>
VStem: 228 123<0 335 0 718> 557 123<207 241>
Fore
228 0 m 1
 228 591 l 1
 10 591 l 1
 10 718 l 1
 351 718 l 1
 351 458 l 1
 492 458 l 2
 606 458 680 365 680 223 c 0
 680 88 608 0 497 0 c 2
 228 0 l 1
351 335 m 1
 351 123 l 1
 449 123 l 2
 526 123 557 152 557 226 c 0
 557 300 527 335 465 335 c 2
 351 335 l 1
EndSplineSet
EndChar
StartChar: afii10045
Encoding: 450 1067 344
Width: 728
Flags: W
HStem: 0 123<185 331> 698 20G<62 185 547 670>
VStem: 62 123<0 335 0 718> 391 123<207 241> 547 123<0 718>
Fore
670 718 m 1
 670 0 l 1
 547 0 l 1
 547 718 l 1
 670 718 l 1
185 458 m 1
 326 458 l 2
 440 458 514 365 514 223 c 0
 514 88 442 0 331 0 c 2
 62 0 l 1
 62 718 l 1
 185 718 l 1
 185 458 l 1
185 335 m 1
 185 123 l 1
 283 123 l 2
 360 123 391 152 391 226 c 0
 391 300 361 335 299 335 c 2
 185 335 l 1
EndSplineSet
EndChar
StartChar: afii10046
Encoding: 451 1068 345
Width: 547
Flags: W
HStem: 0 123<185 331> 698 20G<62 185>
VStem: 62 123<0 335 0 718> 391 123<207 241>
Fore
185 458 m 5
 326 458 l 6
 440 458 514 365 514 223 c 4
 514 88 442 0 331 0 c 6
 62 0 l 5
 62 718 l 1
 185 718 l 5
 185 458 l 5
185 335 m 5
 185 123 l 5
 283 123 l 6
 360 123 391 152 391 226 c 4
 391 300 361 335 299 335 c 6
 185 335 l 5
EndSplineSet
EndChar
StartChar: afii10047
Encoding: 452 1069 346
Width: 592
Flags: W
HStem: -19 130<275 293> 313 127<223 434> 607 130<275 294>
Fore
430 440 m 1
 413 546 362 607 285 607 c 0
 244 607 209 589 188 559 c 1
 175 538 168 522 159 483 c 1
 36 483 l 1
 42 540 51 570 73 610 c 0
 118 691 195 737 288 737 c 0
 456 737 561 591 561 357 c 0
 561 124 458 -19 291 -19 c 0
 213 -19 147 13 102 74 c 0
 68 120 52 161 36 246 c 1
 159 246 l 1
 168 206 174 188 187 167 c 0
 211 130 246 111 289 111 c 0
 372 111 425 186 434 313 c 1
 223 313 l 1
 223 440 l 1
 430 440 l 1
EndSplineSet
EndChar
StartChar: afii10048
Encoding: 453 1070 347
Width: 914
Flags: W
HStem: -19 127<595 603> 323 123<181 312> 610 127<585 603>
VStem: 58 123<0 323 0 718> 755 123<332 382>
Fore
318 446 m 1
 328 528 353 594 393 642 c 0
 443 703 517 737 599 737 c 0
 674 737 748 701 797 642 c 0
 850 578 878 480 878 359 c 0
 878 238 850 140 797 76 c 0
 748 16 674 -19 595 -19 c 0
 492 -19 402 39 355 135 c 0
 331 186 316 250 312 323 c 1
 181 323 l 1
 181 0 l 1
 58 0 l 1
 58 718 l 1
 181 718 l 1
 181 446 l 1
 318 446 l 1
597 610 m 0
 496 610 435 516 435 361 c 0
 435 203 495 108 595 108 c 0
 695 108 755 203 755 362 c 0
 755 446 736 516 701 558 c 0
 675 591 636 610 597 610 c 0
EndSplineSet
EndChar
StartChar: afii10049
Encoding: 454 1071 348
Width: 570
Flags: W
HStem: 0 21G<30 188 389 512> 595 123<243 389>
VStem: 60 123<479 513> 389 123<0 718>
DStem: 234 260 389 260 30 0 188 0
Fore
234 260 m 1
 127 267 60 358 60 495 c 0
 60 630 132 718 243 718 c 2
 512 718 l 1
 512 0 l 1
 389 0 l 1
 389 260 l 1
 188 0 l 1
 30 0 l 1
 234 260 l 1
389 383 m 1
 389 595 l 1
 291 595 l 2
 214 595 183 566 183 492 c 0
 183 418 213 383 275 383 c 2
 389 383 l 1
EndSplineSet
EndChar
StartChar: afii10065
Encoding: 455 1072 349
Width: 456
Flags: W
HStem: -14 100<160 194> 434 112<215 233>
VStem: 24 115<140 163> 295 112<177 392>
Fore
148 360 m 1
 38 360 l 1
 44 419 53 447 72 478 c 1
 103 524 154 546 229 546 c 0
 342 546 407 489 407 392 c 2
 407 104 l 2
 407 52 413 31 432 21 c 1
 432 0 l 1
 309 0 l 1
 302 26 301 34 298 63 c 1
 253 6 216 -14 160 -14 c 0
 76 -14 24 46 24 142 c 0
 24 235 70 296 152 311 c 2
 255 330 l 2
 283 335 295 349 295 374 c 0
 295 414 271 434 224 434 c 0
 175 434 155 414 148 360 c 1
295 191 m 2
 295 259 l 1
 280 245 263 239 217 230 c 0
 160 218 139 197 139 151 c 0
 139 111 160 86 194 86 c 0
 250 86 295 133 295 191 c 2
EndSplineSet
EndChar
StartChar: afii10066
Encoding: 456 1073 350
Width: 501
Flags: W
HStem: -14 118<251 257> 428 118<236.556 257>
VStem: 28 118<241 291> 356 118<241 291>
Fore
142 668 m 0
 226 718 290 708 328 718 c 0
 365 728 367 747 379 776 c 1
 483 776 l 1
 471 730 462 687 420 650 c 0
 373 609 324 615 272 598 c 0
 212 578 186 564 172 531 c 1
 197 541 224 546 254 546 c 0
 387 546 474 434 474 265 c 0
 474 96 386 -14 251 -14 c 0
 116 -14 28 96 28 265 c 0
 28 400 26 599 142 668 c 0
252 428 m 0
 183 428 146 372 146 266 c 0
 146 161 183 104 251 104 c 0
 319 104 356 161 356 266 c 0
 356 370 319 428 252 428 c 0
EndSplineSet
EndChar
StartChar: afii10067
Encoding: 457 1074 351
Width: 478
Flags: W
HStem: 0 21G<54 230> 228 101<166 269> 426 106<54 269>
VStem: 54 112<0 228 0 426> 331 118<375 393> 345 123<158 177>
Fore
54 0 m 1xf4
 54 532 l 1
 267 532 l 2
 380 532 449 479 449 393 c 0xf8
 449 341 428 310 377 287 c 1
 414 272 430 260 446 237 c 0
 460 216 468 189 468 160 c 0
 468 117 451 78 417 48 c 0
 376 11 332 0 230 0 c 2
 54 0 l 1xf4
166 228 m 1
 166 106 l 1
 250 106 l 2
 312 106 345 123 345 172 c 0xf4
 345 214 312 228 256 228 c 2
 166 228 l 1
166 426 m 1
 166 329 l 1
 243 329 l 2
 299 329 331 338 331 377 c 0xf8
 331 416 303 426 240 426 c 2
 166 426 l 1
EndSplineSet
EndChar
StartChar: afii10068
Encoding: 458 1075 352
Width: 384
Flags: W
HStem: 0 21G<53 167> 418 114<53 371>
VStem: 53 114<0 418>
Fore
371 532 m 1
 371 418 l 1
 167 418 l 1
 167 0 l 1
 53 0 l 1
 53 532 l 1
 371 532 l 1
EndSplineSet
EndChar
StartChar: afii10069
Encoding: 459 1076 353
Width: 637
Flags: W
HStem: 0 114<238 503> 418 114<175 422>
VStem: 30 104<-120 0> 175 114<359 418> 422 114<114 532> 503 104<-120 110>
Fore
105 110 m 2xf4
 131 110 175 223 175 381 c 2
 175 532 l 1
 536 532 l 1
 536 110 l 1xf8
 607 110 l 1
 607 -120 l 1
 503 -120 l 1
 503 0 l 1
 134 0 l 1
 134 -120 l 1
 30 -120 l 1
 30 110 l 1
 105 110 l 2xf4
238 114 m 1
 422 114 l 1
 422 418 l 1
 289 418 l 1
 289 387 l 2
 289 319 276 202 238 114 c 1
EndSplineSet
EndChar
StartChar: afii10070
Encoding: 460 1077 354
Width: 456
Flags: W
HStem: -14 113<223 244> 227 92<137 433> 431 115<210 236>
Fore
310 157 m 1
 428 157 l 1
 409 91 392 60 355 29 c 0
 322 0 281 -14 232 -14 c 0
 96 -14 19 88 19 268 c 0
 19 442 97 546 226 546 c 0
 359 546 433 441 433 252 c 2
 433 227 l 1
 134 227 l 1
 141 138 172 99 234 99 c 0
 273 99 299 119 310 157 c 1
137 319 m 1
 315 319 l 1
 307 394 277 431 225 431 c 0
 174 431 147 396 137 319 c 1
EndSplineSet
EndChar
StartChar: afii10071
Encoding: 461 1105 355
Width: 456
Flags: W
HStem: -14 113<223 244> 227 92<137 433> 431 115<210 236> 614 115<97 200 257 360>
VStem: 97 103<614 729> 257 103<614 729>
Fore
310 157 m 1
 428 157 l 1
 409 91 392 60 355 29 c 0
 322 0 281 -14 232 -14 c 0
 96 -14 19 88 19 268 c 0
 19 442 97 546 226 546 c 0
 359 546 433 441 433 252 c 2
 433 227 l 1
 134 227 l 1
 141 138 172 99 234 99 c 0
 273 99 299 119 310 157 c 1
137 319 m 1
 315 319 l 1
 307 394 277 431 225 431 c 0
 174 431 147 396 137 319 c 1
200 729 m 1
 200 614 l 1
 97 614 l 1
 97 729 l 1
 200 729 l 1
360 729 m 1
 360 614 l 1
 257 614 l 1
 257 729 l 1
 360 729 l 1
EndSplineSet
Ligature: 0 1 'liga' afii10070 uni0308
EndChar
StartChar: afii10072
Encoding: 462 1078 356
Width: 684
Flags: W
HStem: 0 21G<-5 133 284 399 551 689> 512 20G<0 141 285 399 543 684>
VStem: 284 115<0 208 346 532>
DStem: 0 532 141 532 202 282 285 346 202 282 285 208 -5 0 133 0 399 208 482 282 551 0 689 0 543 532 684 532 399 346 482 282
Fore
285 532 m 1
 399 532 l 1
 399 346 l 1
 543 532 l 1
 684 532 l 1
 482 282 l 1
 689 0 l 1
 551 0 l 1
 399 208 l 1
 399 0 l 1
 284 0 l 1
 285 208 l 1
 133 0 l 1
 -5 0 l 1
 202 282 l 1
 0 532 l 1
 141 532 l 1
 285 346 l 1
 285 532 l 1
EndSplineSet
EndChar
StartChar: afii10073
Encoding: 463 1079 357
Width: 456
Flags: W
HStem: -14 107<216 250> 439 107<232 250>
VStem: 301 112<369 391> 311 115<145 166>
Fore
235 223 m 2xd0
 188 224 l 1
 188 316 l 1
 225 317 l 2
 296 319 301 361 301 389 c 0
 301 422 277 439 232 439 c 0
 182 439 162 422 154 370 c 1
 41 370 l 1
 50 444 65 478 101 507 c 0
 132 532 178 546 232 546 c 0
 305 546 357 521 387 470 c 0
 404 441 413 406 413 369 c 0xe0
 413 333 404 304 386 280 c 1
 406 247 l 2
 422 222 426 197 426 166 c 0
 426 54 352 -14 232 -14 c 0
 173 -14 120 3 84 33 c 0
 46 64 32 97 25 170 c 1
 143 170 l 1
 145 117 174 93 236 93 c 0
 282 93 311 114 311 148 c 0
 311 176 301 222 235 223 c 2xd0
EndSplineSet
EndChar
StartChar: afii10074
Encoding: 464 1080 358
Width: 496
Flags: W
HStem: 0 21G<53 184 334 448> 512 20G<53 167 317 448>
VStem: 53 114<0 532> 334 114<0 532>
DStem: 317 532 334 342 167 189 184 0
Fore
448 532 m 1
 448 0 l 1
 334 0 l 1
 334 342 l 1
 184 0 l 1
 53 0 l 1
 53 532 l 1
 167 532 l 1
 167 189 l 1
 317 532 l 1
 448 532 l 1
EndSplineSet
EndChar
StartChar: afii10075
Encoding: 465 1081 359
Width: 496
Flags: W
HStem: 0 21G<53 184 334 448> 512 20G<53 167 317 448> 604 77<244 262>
VStem: 53 114<0 532> 334 114<0 532>
DStem: 317 532 334 342 167 189 184 0
Fore
342 750 m 1
 395 750 l 1
 385 653 336 604 252 604 c 0
 172 604 127 652 118 750 c 1
 172 750 l 1
 181 699 203 681 257 681 c 0
 310 681 331 698 342 750 c 1
448 532 m 1
 448 0 l 1
 334 0 l 1
 334 342 l 1
 184 0 l 1
 53 0 l 1
 53 532 l 1
 167 532 l 1
 167 189 l 1
 317 532 l 1
 448 532 l 1
EndSplineSet
Ligature: 0 1 'liga' afii10074 uni0306
EndChar
StartChar: afii10076
Encoding: 466 1082 360
Width: 456
Flags: W
HStem: 0 21G<57 171 323 461> 512 20G<57 171 315 456>
VStem: 57 114<0 208 0 532>
DStem: 171 208 254 282 323 0 461 0 315 532 456 532 171 346 254 282
Fore
171 0 m 1
 57 0 l 1
 57 532 l 1
 171 532 l 1
 171 346 l 1
 315 532 l 1
 456 532 l 1
 254 282 l 1
 461 0 l 1
 323 0 l 1
 171 208 l 1
 171 0 l 1
EndSplineSet
EndChar
StartChar: afii10077
Encoding: 467 1083 361
Width: 496
Flags: W
HStem: 0 21G<334 448> 418 114<87 334>
VStem: 87 114<351 417> 334 114<0 532>
Fore
448 532 m 1
 448 0 l 1
 334 0 l 1
 334 418 l 1
 201 418 l 1
 201 387 l 2
 201 269 162 0 17 0 c 1
 17 115 l 1
 43 115 87 223 87 381 c 2
 87 532 l 1
 448 532 l 1
EndSplineSet
EndChar
StartChar: afii10078
Encoding: 468 1084 362
Width: 646
Flags: W
HStem: 0 21G<53 167 259 380 479 593> 512 20G<53 231 415 593>
VStem: 53 114<0 313> 479 114<0 532>
Fore
53 532 m 1
 231 532 l 1
 322 136 l 1
 415 532 l 1
 593 532 l 1
 593 0 l 1
 479 0 l 1
 479 335 l 1
 380 0 l 1
 259 0 l 1
 167 313 l 1
 167 0 l 1
 53 0 l 1
 53 532 l 1
EndSplineSet
EndChar
StartChar: afii10079
Encoding: 469 1085 363
Width: 496
Flags: W
HStem: 0 21G<53 167 334 448> 221 114<167 334> 512 20G<53 167 334 448>
VStem: 53 114<0 221 0 532> 334 114<0 532>
Fore
448 532 m 1
 448 0 l 1
 334 0 l 1
 334 221 l 1
 167 221 l 1
 167 0 l 1
 53 0 l 1
 53 532 l 1
 167 532 l 1
 167 335 l 1
 334 335 l 1
 334 532 l 1
 448 532 l 1
EndSplineSet
EndChar
StartChar: afii10080
Encoding: 470 1086 364
Width: 501
Flags: W
HStem: -14 118<251 257> 428 118<236.556 257>
VStem: 28 118<241 291> 356 118<241 291>
Fore
254 546 m 0
 387 546 474 434 474 265 c 0
 474 96 386 -14 251 -14 c 0
 116 -14 28 96 28 265 c 0
 28 437 115 546 254 546 c 0
252 428 m 0
 183 428 146 372 146 266 c 0
 146 161 183 104 251 104 c 0
 319 104 356 161 356 266 c 0
 356 370 319 428 252 428 c 0
EndSplineSet
EndChar
StartChar: afii10081
Encoding: 471 1087 365
Width: 501
Flags: W
HStem: 0 21G<53 167 334 448> 418 114<53 334>
VStem: 53 114<0 418> 334 114<0 532>
Fore
448 532 m 1
 448 0 l 1
 334 0 l 1
 334 418 l 1
 167 418 l 1
 167 0 l 1
 53 0 l 1
 53 532 l 1
 448 532 l 1
EndSplineSet
EndChar
StartChar: afii10082
Encoding: 472 1088 366
Width: 501
Flags: W
HStem: -14 115<260 289> 424 122<258 290>
VStem: 51 110<-207 290 -207 532> 356 118<240 290>
Fore
161 532 m 1
 161 452 l 1
 194 519 231 546 290 546 c 0
 401 546 474 437 474 272 c 0
 474 97 402 -14 289 -14 c 0
 230 -14 195 10 165 71 c 1
 165 -207 l 1
 51 -207 l 1
 51 532 l 1
 161 532 l 1
258 424 m 0
 194 424 161 368 161 260 c 0
 161 158 196 101 260 101 c 0
 319 101 356 165 356 265 c 0
 356 364 319 424 258 424 c 0
EndSplineSet
EndChar
StartChar: afii10083
Encoding: 473 1089 367
Width: 456
Flags: W
HStem: -14 115<219 242> 428 118<227 253>
VStem: 28 118<241 291>
Fore
313 194 m 1
 429 194 l 1
 412 59 342 -14 229 -14 c 0
 100 -14 28 84 28 259 c 0
 28 439 105 546 235 546 c 0
 307 546 368 512 401 452 c 0
 418 421 425 395 430 342 c 1
 314 342 l 1
 303 402 281 428 240 428 c 0
 178 428 146 372 146 265 c 0
 146 156 175 101 233 101 c 0
 277 101 308 138 313 194 c 1
EndSplineSet
EndChar
